<svg width="28" height="23" viewBox="0 0 28 23" fill="none" xmlns="http://www.w3.org/2000/svg">
<path d="M1 5H27V6.8039C27 8.40551 26.0446 9.85272 24.5719 10.4821L14 15L3.42812 10.4821C1.95535 9.85272 1 8.40551 1 6.8039V5Z" stroke="#1A1A20" stroke-width="1.5" stroke-linecap="round"/>
<path d="M12 14.5V17C12 17.5523 12.4477 18 13 18H15C15.5523 18 16 17.5523 16 17V14.5" stroke="#1A1A20" stroke-width="1.5" stroke-linecap="round"/>
<path d="M10 3C10 1.89543 10.8954 1 12 1H16C17.1046 1 18 1.89543 18 3V5H10V3Z" stroke="#1A1A20" stroke-width="1.5" stroke-linecap="round" stroke-linejoin="round"/>
<path d="M2 10V20C2 21.1046 2.89543 22 4 22H24C25.1046 22 26 21.1046 26 20V10" stroke="#1A1A20" stroke-width="1.5" stroke-linecap="square" stroke-linejoin="round"/>
</svg>
