<svg width="18" height="18" viewBox="0 0 18 18" fill="none" xmlns="http://www.w3.org/2000/svg">
<path fill-rule="evenodd" clip-rule="evenodd" d="M7 1C7 0.585786 6.66421 0.25 6.25 0.25H5C2.37665 0.25 0.25 2.37665 0.25 5V13C0.25 15.6234 2.37665 17.75 5 17.75H13C15.6234 17.75 17.75 15.6234 17.75 13V11.75C17.75 11.3358 17.4142 11 17 11V11C16.5858 11 16.25 11.3358 16.25 11.75V13C16.25 14.7949 14.7949 16.25 13 16.25H5C3.20507 16.25 1.75 14.7949 1.75 13V5C1.75 3.20507 3.20507 1.75 5 1.75H6.25C6.66421 1.75 7 1.41421 7 1V1Z" fill="#1A1A20"/>
<path d="M8.46967 8.46967C8.17678 8.76256 8.17678 9.23744 8.46967 9.53033C8.76256 9.82322 9.23744 9.82322 9.53033 9.53033L8.46967 8.46967ZM16.4697 0.46967L8.46967 8.46967L9.53033 9.53033L17.5303 1.53033L16.4697 0.46967Z" fill="#1A1A20"/>
<path d="M17 7L17 1L11 1" stroke="#1A1A20" stroke-width="1.5" stroke-linecap="round"/>
</svg>
