<svg width="26" height="25" viewBox="0 0 26 25" fill="none" xmlns="http://www.w3.org/2000/svg">
<path d="M1 11.5L0.506122 10.9356C0.34336 11.078 0.25 11.2837 0.25 11.5H1ZM25 11.5H25.75C25.75 11.2837 25.6566 11.078 25.4939 10.9356L25 11.5ZM13 1L13.4939 0.435567L13 0.00342383L12.5061 0.435567L13 1ZM24.25 11.5V22.5H25.75V11.5H24.25ZM24 22.75H2V24.25H24V22.75ZM1.75 22.5V11.5H0.25V22.5H1.75ZM1.49388 12.0644L13.4939 1.56443L12.5061 0.435567L0.506122 10.9356L1.49388 12.0644ZM12.5061 1.56443L24.5061 12.0644L25.4939 10.9356L13.4939 0.435567L12.5061 1.56443ZM2 22.75C1.86193 22.75 1.75 22.6381 1.75 22.5H0.25C0.25 23.4665 1.0335 24.25 2 24.25V22.75ZM24.25 22.5C24.25 22.6381 24.1381 22.75 24 22.75V24.25C24.9665 24.25 25.75 23.4665 25.75 22.5H24.25Z" fill="#1A1A20"/>
<path d="M24.6357 12L1.00006 22.833" stroke="#1A1A20" stroke-width="1.5" stroke-linejoin="round"/>
<path d="M1 12L12.8178 17.4165" stroke="#1A1A20" stroke-width="1.5" stroke-linejoin="round"/>
<path d="M22 6H4V12H22V6Z" fill="white"/>
<path d="M22 13V8C22 6.89543 21.1046 6 20 6H6C4.89543 6 4 6.89543 4 8V13" stroke="#1A1A20" stroke-width="1.5" stroke-linecap="square" stroke-linejoin="round"/>
</svg>
