<svg width="24" height="24" viewBox="0 0 24 24" fill="none" xmlns="http://www.w3.org/2000/svg">
<g clip-path="url(#clip0_97_18027)">
<path d="M4.25 0H19.75C22.1 0 24 1.94872 24 4.35897V19.641C24 22.0513 22.1 24 19.75 24H4.25C1.9 24 0 22.0513 0 19.641V4.35897C0 1.94872 1.9 0 4.25 0Z" fill="#00005B"/>
<path d="M9.63995 14.359H5.91995L5.15995 16.7795C5.13995 16.8718 5.05995 16.9333 4.96995 16.9231H3.08995C2.97995 16.9231 2.94995 16.8615 2.97995 16.7385L6.19995 7.2718C6.22995 7.16923 6.25995 7.07693 6.29995 6.95385C6.33995 6.73846 6.35995 6.51282 6.35995 6.28718C6.34995 6.2359 6.38995 6.18462 6.43995 6.17436C6.44995 6.17436 6.45995 6.17436 6.46995 6.17436H9.02995C9.09995 6.17436 9.14995 6.20513 9.15995 6.25641L12.81 16.7692C12.84 16.8821 12.8099 16.9333 12.7099 16.9333H10.6199C10.5499 16.9436 10.4799 16.8923 10.4599 16.8205L9.63995 14.359ZM6.49995 12.318H9.03995C8.97995 12.1026 8.89995 11.8462 8.80995 11.5795C8.71995 11.3026 8.62995 11.0051 8.53995 10.6974C8.43995 10.3795 8.34995 10.0718 8.24995 9.75385C8.14995 9.4359 8.05995 9.13846 7.97995 8.84103C7.89995 8.55385 7.82995 8.28718 7.75995 8.04103H7.73995C7.64995 8.48205 7.53995 8.92308 7.39995 9.36411C7.24995 9.85641 7.09995 10.3692 6.93995 10.8821C6.80995 11.4051 6.64995 11.8872 6.49995 12.318Z" fill="#9999FF"/>
<path d="M18.7401 13.4154H15.5701C15.6101 13.7333 15.7101 14.0513 15.8801 14.3282C16.0601 14.6051 16.3101 14.8205 16.6101 14.9436C17.0101 15.1179 17.4501 15.2103 17.8901 15.2C18.2401 15.1897 18.5901 15.159 18.9301 15.0872C19.2401 15.0462 19.5401 14.9641 19.8201 14.8513C19.8701 14.8103 19.9001 14.8308 19.9001 14.9333V16.5026C19.9001 16.5436 19.8901 16.5846 19.8801 16.6256C19.8601 16.6564 19.8401 16.6769 19.8101 16.6974C19.4901 16.841 19.1601 16.9436 18.8101 17.0051C18.3401 17.0974 17.8701 17.1385 17.3901 17.1282C16.6301 17.1282 15.9901 17.0051 15.4701 16.7692C14.9801 16.5538 14.5501 16.2154 14.2101 15.7949C13.8901 15.3949 13.6601 14.9436 13.5201 14.4513C13.3801 13.9692 13.3101 13.4667 13.3101 12.9538C13.3101 12.4 13.3901 11.8564 13.5601 11.3231C13.7201 10.8103 13.9701 10.3385 14.3101 9.91794C14.6401 9.50769 15.0501 9.17948 15.5201 8.94359C15.9901 8.70769 16.5501 8.62564 17.1901 8.62564C17.7201 8.61538 18.2501 8.71794 18.7401 8.94359C19.1501 9.1282 19.5101 9.40512 19.7901 9.7641C20.0501 10.1128 20.2601 10.5026 20.3901 10.9333C20.5201 11.3436 20.5801 11.7641 20.5801 12.1846C20.5801 12.4308 20.5701 12.6462 20.5601 12.841C20.5401 13.0359 20.5301 13.1795 20.5201 13.2718C20.5101 13.3436 20.4501 13.4051 20.3801 13.4051C20.3201 13.4051 20.2101 13.4154 20.0501 13.4256C19.8901 13.4461 19.7001 13.4564 19.4701 13.4564C19.2401 13.4564 19.0001 13.4154 18.7401 13.4154ZM15.5701 11.9179H17.6801C17.9401 11.9179 18.1301 11.9179 18.2501 11.9077C18.3301 11.8974 18.4101 11.8769 18.4801 11.8256V11.7231C18.4801 11.5897 18.4601 11.4667 18.4201 11.3436C18.2401 10.7692 17.7101 10.3795 17.1201 10.4C16.5701 10.3692 16.0501 10.6667 15.7901 11.1795C15.6701 11.4154 15.6001 11.6615 15.5701 11.9179Z" fill="#9999FF"/>
</g>
<defs>
<clipPath id="clip0_97_18027">
<rect width="24" height="24" fill="white"/>
</clipPath>
</defs>
</svg>
