<svg width="22" height="22" viewBox="0 0 22 22" fill="none" xmlns="http://www.w3.org/2000/svg">
<g clip-path="url(#clip0_227_6952)">
<path d="M3.89583 0H18.1042C20.2583 0 22 1.78632 22 3.99573V18.0043C22 20.2137 20.2583 22 18.1042 22H3.89583C1.74167 22 0 20.2137 0 18.0043V3.99573C0 1.78632 1.74167 0 3.89583 0Z" fill="#00005B"/>
<path d="M8.83672 13.1624H5.42672L4.73006 15.3812C4.71172 15.4658 4.63839 15.5222 4.55589 15.5128H2.83256C2.73172 15.5128 2.70422 15.4564 2.73172 15.3436L5.68339 6.66577C5.71089 6.57176 5.73839 6.48714 5.77506 6.37432C5.81172 6.17688 5.83006 5.97005 5.83006 5.76321C5.82089 5.7162 5.85756 5.66919 5.90339 5.65979C5.91256 5.65979 5.92172 5.65979 5.93089 5.65979H8.27756C8.34172 5.65979 8.38756 5.688 8.39672 5.735L11.7426 15.3718C11.7701 15.4752 11.7426 15.5222 11.6509 15.5222H9.73505C9.67089 15.5316 9.60672 15.4846 9.58839 15.4188L8.83672 13.1624ZM5.95839 11.2914H8.28672C8.23172 11.094 8.15839 10.8589 8.07589 10.6145C7.99339 10.3606 7.91089 10.088 7.82839 9.80594C7.73672 9.51449 7.65422 9.23244 7.56256 8.94099C7.47089 8.64953 7.38839 8.37688 7.31506 8.10423C7.24172 7.84099 7.17756 7.59654 7.11339 7.3709H7.09506C7.01256 7.77517 6.91172 8.17945 6.78339 8.58372C6.64589 9.035 6.50839 9.50509 6.36172 9.97517C6.24256 10.4547 6.09589 10.8965 5.95839 11.2914Z" fill="#9999FF"/>
<path d="M17.1784 12.2974H14.2726C14.3093 12.5888 14.4009 12.8803 14.5568 13.1341C14.7218 13.388 14.9509 13.5854 15.2259 13.6982C15.5926 13.8581 15.9959 13.9427 16.3993 13.9333C16.7201 13.9239 17.0409 13.8957 17.3526 13.8298C17.6368 13.7922 17.9118 13.717 18.1684 13.6136C18.2143 13.576 18.2418 13.5948 18.2418 13.6888V15.1273C18.2418 15.1649 18.2326 15.2025 18.2234 15.2401C18.2051 15.2683 18.1868 15.2871 18.1593 15.3059C17.8659 15.4375 17.5634 15.5316 17.2426 15.588C16.8118 15.6726 16.3809 15.7102 15.9409 15.7008C15.2443 15.7008 14.6576 15.588 14.1809 15.3717C13.7318 15.1743 13.3376 14.864 13.0259 14.4786C12.7326 14.1119 12.5218 13.6982 12.3934 13.2469C12.2651 12.8051 12.2009 12.3444 12.2009 11.8743C12.2009 11.3666 12.2743 10.8683 12.4301 10.3794C12.5768 9.90933 12.8059 9.47685 13.1176 9.09138C13.4201 8.71531 13.7959 8.41446 14.2268 8.19822C14.6576 7.98198 15.1709 7.90677 15.7576 7.90677C16.2434 7.89737 16.7293 7.99138 17.1784 8.19822C17.5543 8.36745 17.8843 8.6213 18.1409 8.95036C18.3793 9.27002 18.5718 9.62728 18.6909 10.0222C18.8101 10.3982 18.8651 10.7837 18.8651 11.1692C18.8651 11.3948 18.8559 11.5922 18.8468 11.7709C18.8284 11.9495 18.8193 12.0811 18.8101 12.1657C18.8009 12.2316 18.7459 12.288 18.6818 12.288C18.6268 12.288 18.5259 12.2974 18.3793 12.3068C18.2326 12.3256 18.0584 12.335 17.8476 12.335C17.6368 12.335 17.4168 12.2974 17.1784 12.2974ZM14.2726 10.9247H16.2068C16.4451 10.9247 16.6193 10.9247 16.7293 10.9153C16.8026 10.9059 16.8759 10.8871 16.9401 10.8401V10.7461C16.9401 10.6239 16.9218 10.511 16.8851 10.3982C16.7201 9.87173 16.2343 9.51446 15.6934 9.53326C15.1893 9.50506 14.7126 9.77771 14.4743 10.2478C14.3643 10.464 14.3001 10.6897 14.2726 10.9247Z" fill="#9999FF"/>
</g>
<defs>
<clipPath id="clip0_227_6952">
<rect width="22" height="22" fill="white"/>
</clipPath>
</defs>
</svg>
