<svg width="20" height="22" viewBox="0 0 20 22" fill="none" xmlns="http://www.w3.org/2000/svg">
<path d="M11.1809 0.309846C10.449 -0.103203 9.55048 -0.103287 8.81851 0.309625L0.719716 4.87934C0.285523 5.12438 0.0135112 5.57522 0.000489509 6.06712C0.000164494 6.07435 0 6.08164 0 6.08899V15.752C0 16.2579 0.274313 16.7251 0.718927 16.9763L3.6837 18.652C3.98297 18.8212 4.35924 18.6317 4.39372 18.2929C4.73811 14.909 5.36547 8.65651 5.34614 7.95819C5.34601 7.95258 5.34585 7.9473 5.34564 7.94236C5.34564 7.94232 5.34562 7.9423 5.3456 7.94228V7.94228C5.34557 7.94227 5.34555 7.94224 5.34555 7.94221C5.2989 6.84521 6.45944 5.71535 7.59586 5.75325C8.1941 5.76975 13.8076 5.20018 17.4435 4.8245C17.9033 4.77699 18.0305 4.17566 17.6291 3.94912L11.1809 0.309846Z" fill="#DC2A5C"/>
<path d="M14.999 19.3911L14.7697 19.5201L10.7085 21.8139C10.2691 22.062 9.72967 22.062 9.2903 21.814L7.25738 20.6664C6.84561 20.434 6.67087 19.9382 6.83616 19.4991C7.49259 17.7556 8.02928 15.9501 8.56359 14.1527C8.86128 13.1513 9.15823 12.1523 9.47474 11.1679C9.56342 10.8522 9.7324 10.5627 9.9665 10.3252L10.0241 10.2662C10.0281 10.2621 10.0301 10.2564 10.0296 10.2507V10.2507C10.0291 10.2445 10.0315 10.2384 10.0361 10.2343L10.099 10.1777C10.3395 9.95762 10.6321 9.79729 10.9515 9.71044C10.9597 9.70812 10.968 9.70584 10.9764 9.70362L18.7625 7.29826C18.8585 7.2686 18.9548 7.25467 19.0488 7.25471C19.556 7.25449 20 7.6603 20 8.19583V15.2053C20 16.0492 19.5421 16.8283 18.8001 17.2469L14.999 19.3911Z" fill="#DC2A5C"/>
</svg>
