<svg width="17" height="18" viewBox="0 0 17 18" fill="none" xmlns="http://www.w3.org/2000/svg">
<path d="M9.50374 0.25351C8.88163 -0.0844389 8.11791 -0.0845078 7.49574 0.25333L0.611759 3.99218C0.242694 4.19267 0.0114845 4.56154 0.000416083 4.96401C0.00013982 4.96993 0 4.97589 0 4.9819V12.888C0 13.3019 0.233166 13.6841 0.611088 13.8897L3.13115 15.2607C3.38553 15.3991 3.70535 15.2441 3.73466 14.9669C4.02739 12.1983 4.56065 7.0826 4.54422 6.51124C4.54411 6.50665 4.54397 6.50234 4.5438 6.49829C4.5438 6.49827 4.54378 6.49824 4.54376 6.49823V6.49823C4.54373 6.49822 4.54372 6.49819 4.54372 6.49817C4.50406 5.60062 5.49052 4.67619 6.45648 4.7072C6.96498 4.72071 11.7365 4.25469 14.827 3.94732C15.2178 3.90845 15.3259 3.41645 14.9847 3.2311L9.50374 0.25351Z" fill="#DC2A5C"/>
<path d="M12.7492 15.8654L12.5543 15.971L9.1022 17.8477C8.72878 18.0507 8.27022 18.0508 7.89675 17.8478L6.16877 16.9089C5.81877 16.7187 5.67024 16.313 5.81073 15.9538C6.3687 14.5273 6.82489 13.0501 7.27905 11.5795C7.53209 10.7601 7.7845 9.94278 8.05353 9.13738C8.12891 8.87911 8.27254 8.64218 8.47152 8.44785L8.52057 8.39952C8.52392 8.39623 8.52561 8.3916 8.52519 8.38692V8.38692C8.52474 8.38188 8.52673 8.37694 8.53055 8.37363L8.58418 8.32719C8.78854 8.14714 9.03728 8.01597 9.30875 7.9449C9.31579 7.943 9.32284 7.94115 9.3299 7.93933L15.9481 5.97131C16.0297 5.94704 16.1115 5.93564 16.1915 5.93567C16.6226 5.93549 17 6.26752 17 6.70568V12.4407C17 13.1311 16.6108 13.7686 15.9801 14.1111L12.7492 15.8654Z" fill="#DC2A5C"/>
</svg>
