<svg width="24" height="24" viewBox="0 0 24 24" fill="none" xmlns="http://www.w3.org/2000/svg">
<path d="M11.6813 0C11.5738 0 11.4029 0.0109678 11.1296 0.0429823C10.2668 0.158693 11.284 0.141119 11.8626 0.142828C11.8626 0.14722 11.8626 0.109607 11.8626 0.059365L11.8602 0.0594544C11.8602 0.0342478 11.8576 0.000756441 11.6799 0H11.6813ZM11.9353 0.156321C11.5786 0.159981 11.7564 0.203856 12.0025 0.249315C12.3456 0.31676 12.9273 0.434498 13.269 0.505481C13.2665 0.52305 13.9586 0.609594 13.9589 0.608007C13.8218 0.581703 13.6848 0.558346 13.5463 0.537532V0.537502L13.5487 0.513345C13.5512 0.490896 13.5512 0.488155 13.5561 0.465656C12.9658 0.256659 12.6037 0.167567 12.0013 0.156172C11.9791 0.156074 11.957 0.156074 11.9341 0.156172L11.9353 0.156321ZM13.6079 0.196354C13.6054 0.196354 13.6004 0.196351 13.6004 0.196473C13.6004 0.20477 13.603 0.186952 14.306 0.337484V0.331139C14.306 0.327479 14.306 0.325305 14.3084 0.32262C14.3084 0.316276 13.6868 0.202797 13.6077 0.196086L13.6079 0.196354ZM10.3113 0.231771C10.2115 0.235431 10.1033 0.238136 9.99187 0.247409C9.53656 0.283547 9.08 0.379478 8.90448 0.462588C8.90695 0.481133 8.23397 0.724718 8.23693 0.732844C7.26026 1.11773 8.45936 0.766452 9.02437 0.618165C9.45674 0.502136 9.76151 0.44035 9.32913 0.556476C8.99413 0.6462 8.53727 0.775509 7.956 0.993657C6.96404 1.36858 6.83555 1.42558 7.9584 1.00417C7.96087 1.01052 8.89347 0.681674 9.37343 0.558472C10.1677 0.354575 10.1025 0.430123 10.1394 0.415555C10.1419 0.43166 10.137 0.411887 9.44974 0.572204C9.44234 0.541141 8.48868 0.810062 7.8337 1.07167C6.13007 1.75088 4.75245 2.7868 4.7167 2.74259C4.70931 2.73234 4.66107 2.67241 4.10765 3.12993C3.63263 3.50979 3.42144 3.71816 3.11848 4.06837C2.61659 4.64399 2.70231 4.59525 2.5973 4.66148C2.5973 4.66148 2.56065 4.63297 2.14183 5.21721C1.90543 5.55005 1.59565 6.06893 1.32695 6.64763C1.07773 7.18544 0.931457 7.63575 0.971392 7.57933C0.988648 7.58568 0.971203 7.58299 0.691661 8.37949C0.458956 9.04572 0.399637 9.32326 0.35921 9.31301C0.242611 9.28341 0.0344795 10.5585 0.0645537 11.2086C0.0818094 11.2086 0.0498151 11.569 0.0315734 11.9648C0.021713 12.2731 0.0218189 12.5995 0.0168887 12.7893C-0.0444922 12.7945 0.0719817 13.7972 0.196716 14.3555C0.372231 15.1422 0.373309 15.0208 0.377746 14.9848C0.380211 14.9907 0.380279 14.999 0.385209 15.0051C0.382744 14.9965 0.382676 14.9902 0.377746 14.9819C0.380211 14.9716 0.380163 14.9782 0.390024 15.0263C0.448446 15.1999 0.524029 15.4203 0.630274 15.7149C1.04367 16.8769 0.919292 16.3728 0.913375 16.3308C0.836218 16.1187 0.765383 15.9048 0.70129 15.6893C0.862261 16.1579 1.05294 16.6166 1.27134 17.0628C1.61424 17.7646 1.99654 18.3695 1.98174 18.3793C1.95512 18.3961 2.36583 18.9838 2.58695 19.2676C3.36345 20.2489 2.92347 19.6037 3.06817 19.8012C3.07803 19.7907 3.0781 19.7939 3.58887 20.2958C4.10063 20.797 4.11052 20.7841 3.61824 20.2684C3.12867 19.7477 3.6184 20.272 4.38184 20.9141C5.2535 21.6485 5.57684 21.8133 5.56673 21.8281C5.55933 21.8396 6.02666 22.1679 6.62715 22.4949C6.32912 22.3382 5.98246 22.1494 5.72633 21.9884C5.72387 21.992 5.13372 21.5919 5.13076 21.5918C5.13816 21.6004 5.19278 21.6582 5.72056 21.9961C6.34423 22.395 6.8848 22.6598 7.23139 22.8177C7.33838 22.8664 7.40014 22.8942 7.47212 22.9268C6.92931 22.6973 6.92558 22.6998 7.18565 22.8351C7.47506 22.9852 7.96483 23.2069 8.54314 23.3916C9.26788 23.6234 10.0394 23.8106 10.878 23.9171C11.3646 23.979 11.7581 23.9959 12.0034 24C12.3017 23.9999 12.4641 23.9861 12.4969 23.9793C12.4969 23.9756 12.4969 23.9756 12.5068 23.9756C12.1316 23.9995 12.0945 23.9717 12.4919 23.9512C12.5301 23.9475 12.7299 23.9312 12.9394 23.9117C12.9295 23.9169 13.0088 23.9117 13.1597 23.8912C13.4266 23.8653 13.5919 23.8474 13.3282 23.8663C13.6269 23.8201 14.081 23.7361 14.6435 23.5955C15.6532 23.3427 16.4769 22.9795 16.5017 22.9694C16.6349 22.9153 16.3028 23.1018 15.4122 23.3948C14.4528 23.7111 14.5212 23.6906 15.4146 23.4021C16.255 23.1326 16.9439 22.804 17.0908 22.7418C18.0473 22.3421 19.0625 21.7082 19.8005 21.0807C20.3201 20.6388 20.6139 20.2933 20.8121 20.0455C20.7899 20.0252 21.3782 19.2968 21.6175 18.9396C21.6077 18.93 22.0084 18.3413 22.0343 18.2732C22.2031 18.043 22.3636 17.807 22.5157 17.5653C22.8049 17.0928 23.0554 16.6191 23.0145 16.6977C23.0047 16.6926 23.041 16.7097 23.3082 16.0457C23.4926 15.5955 23.666 14.978 23.7658 14.3755C23.8999 13.5713 23.8166 13.7259 23.7957 13.819C23.7883 13.819 23.8056 13.8227 23.8877 13.114C24.0437 11.7697 24.0373 11.6998 23.8679 13.1103C23.7875 13.8071 23.6292 14.1585 23.5234 14.2656C23.4633 14.2522 23.218 14.9066 23.164 15.1016C22.9631 15.7603 22.9517 15.755 23.1378 15.0933C23.1008 15.0828 23.0946 15.0814 22.8207 15.7075C22.0132 17.5357 22.3575 16.2055 22.5039 15.5877C22.7699 14.5805 22.5697 14.9056 22.2699 15.4989C21.9857 16.0511 21.757 16.29 21.7321 16.3158C21.7124 16.3071 21.4039 16.8651 21.2025 17.1918C20.8668 17.7362 20.8641 17.7341 21.2001 17.1881C21.5312 16.6443 21.6295 16.4688 21.4996 16.6343C21.4732 16.681 21.446 16.7299 21.4124 16.7878C21.41 16.7842 21.405 16.7839 21.4026 16.7815V16.7815C21.4001 16.7779 21.3951 16.7776 21.3951 16.7767C21.3263 16.8697 21.242 16.9864 21.1298 17.1437C20.8249 17.5643 20.5526 17.9049 20.365 18.135C20.4668 18.0461 20.6131 17.9183 20.6777 17.8621C20.6974 17.8407 20.7158 17.8191 20.7348 17.7975C20.7175 17.8143 20.7081 17.8311 20.6941 17.8479C21.0695 17.5207 21.2375 17.3756 20.6917 17.8543C20.4538 18.1513 20.2013 18.4365 19.9356 18.7085C19.4452 19.2133 19.0361 19.5189 19.0275 19.5096L19.0102 19.4891C19.1714 19.3532 19.3294 19.2129 19.4837 19.0682C19.8616 18.699 19.8912 18.6089 19.872 18.5725C19.31 19.0638 18.8227 19.4902 18.3053 19.9447C18.2289 19.9972 18.1587 20.0433 18.0964 20.0817C18.0697 20.1091 17.9738 20.1922 17.6057 20.4374C17.6033 20.4338 17.6033 20.432 17.6033 20.4301V20.4302C17.6009 20.4265 17.6009 20.4263 17.6009 20.4246C17.5985 20.4209 17.8637 20.2352 18.0123 20.1333C17.9399 20.1753 17.8795 20.2074 17.8359 20.2282C17.6056 20.3549 16.4404 21.0238 15.5333 21.3958C14.8855 21.6631 14.1808 21.8571 13.4936 21.9564C13.1553 22.0047 12.814 22.0334 12.4724 22.0413C12.3188 22.0528 12.1645 22.0604 12.0097 22.0635C11.8014 22.0721 11.593 22.074 11.3847 22.0672C10.8525 22.0503 10.4049 21.9978 10.7145 22.0623C11.1062 22.1419 10.6753 22.089 10.2836 22.0092C9.75586 21.9029 9.11834 21.7175 8.4365 21.4116C7.8821 21.1616 7.22156 20.8218 6.49066 20.3137C5.76765 19.8115 5.24752 19.3337 4.89822 19.0043C4.55433 18.6768 4.27751 18.3744 3.92205 17.8962C3.53872 17.3809 3.35883 17.0554 3.54963 17.4084C4.21669 18.4558 3.18453 16.8984 3.16013 16.8577C2.81156 16.2751 2.60037 15.7799 2.58237 15.7172C2.58977 15.7135 2.37218 15.1502 2.32238 14.9768C2.2435 14.734 2.15375 14.4165 2.0973 14.2079C2.0443 14.0104 1.89299 13.4532 1.81805 12.766C1.78501 12.4518 1.77163 12.18 1.76966 11.9618C1.74747 11.3068 1.81254 10.6807 1.98584 9.96743C2.11723 9.42921 2.22925 9.04387 2.30986 8.79302C2.3 8.8162 2.29011 8.83698 2.28049 8.86207C2.03719 9.46227 2.02759 9.50073 1.96152 9.58848C1.95166 9.58482 1.89702 9.5709 1.77303 10.1694C1.77056 10.1694 1.64434 10.8285 1.60909 11.0094L1.57972 11.0057C1.63174 10.5789 1.71527 10.1569 1.82744 9.74239C2.01848 9.03843 2.31095 8.40603 2.47019 8.15037C2.49953 8.16379 2.91393 7.4111 3.18829 7.00394C3.58271 6.41814 3.93808 5.97355 4.27087 5.57942C4.5265 5.27692 4.74747 5.02672 4.47212 5.27315C4.32988 5.40045 4.29815 5.38419 4.67482 5.00656C4.9938 4.68658 5.3853 4.35412 5.75161 4.1042C6.25523 3.74282 6.31149 3.71829 6.6635 3.46944C6.83138 3.35163 7.00246 3.2386 7.17699 3.1305C7.4829 2.96333 7.79614 2.8113 8.11488 2.67589C8.72302 2.41736 9.49952 2.17794 9.77882 2.10015C10.3455 1.94827 10.8633 1.8665 11.3282 1.83409C11.6252 1.81335 11.8618 1.81432 12.0092 1.8192C12.1625 1.82286 12.2386 1.82799 12.2386 1.83287C12.2386 1.84239 12.2384 1.82459 12.8421 1.87213C12.8446 1.84253 13.6848 1.96067 14.2141 2.09151C14.9437 2.27193 15.7621 2.55746 16.6407 3.02431C17.4679 3.46402 18.0387 3.90374 18.1669 3.98755C18.1743 3.98023 18.1768 3.97244 18.1842 3.96903C18.1916 3.95951 18.7286 4.38468 19.2495 4.9208C19.8135 5.50121 20.2171 6.05173 20.384 6.3105C20.4836 6.46135 20.9765 7.25013 21.0665 7.4029C21.3182 7.82995 21.5511 8.31457 21.7365 8.81816C21.9098 9.28799 22.0002 9.66952 21.9967 9.70149C21.9893 9.70515 21.9869 9.70517 22.0263 9.8719C22.0485 9.96035 22.1761 10.4535 22.2456 11.0599C22.3146 11.657 22.3025 11.9616 22.3116 11.9616C22.3116 11.8203 22.3093 11.6793 22.3044 11.5386H22.3017C22.2943 11.5386 22.3414 11.535 22.2918 10.9336C22.2433 10.3303 22.1304 9.73045 22.1074 9.54666C22.1498 9.53519 21.9678 8.82199 21.8342 8.40338C21.6518 7.87326 21.4461 7.34393 21.3754 7.16348C21.4047 7.14664 20.9786 6.36207 20.7658 6.04073C20.455 5.58742 20.1161 5.12395 19.9312 4.89048C19.7136 4.60677 19.4001 4.27217 19.0927 3.99187C18.7661 3.69386 18.6521 3.63058 18.7702 3.75441C19.239 4.22097 19.5815 4.68083 19.8573 5.04344C20.2059 5.50159 19.8205 5.03489 19.4998 4.68736C19.0349 4.18253 18.4076 3.5728 17.5773 2.96828C16.5849 2.24398 16.0469 1.98586 16.0814 1.90737C16.1352 1.7858 15.5572 1.44956 14.7827 1.21613C11.8497 0.345519 16.1281 1.50652 15.4702 1.27857C16.1114 1.49891 16.114 1.49595 15.4729 1.26516C14.6365 0.964661 14.2487 0.870495 13.6462 0.701955C13.0198 0.556621 12.4601 0.451021 12.009 0.413857H11.9943C11.2481 0.378061 11.0401 0.358405 10.8508 0.300012C10.8483 0.252235 10.6195 0.225423 10.3195 0.229864L10.3113 0.231771ZM2.30336 8.79424C2.49244 8.3386 2.45916 8.30898 2.30336 8.79424V8.79424ZM18.0061 20.1351C18.0354 20.119 18.0624 20.1026 18.0937 20.0832C18.1036 20.0719 18.1036 20.0693 18.1036 20.07C18.1011 20.0663 18.0601 20.0963 18.0037 20.1351H18.0061ZM19.8694 18.574C20.0907 18.3803 20.1655 18.3151 20.359 18.1457C20.3615 18.142 20.3615 18.1398 20.3665 18.1364C20.204 18.2781 20.1364 18.3368 19.8672 18.5714C19.8672 18.5751 19.8698 18.5751 19.8698 18.5751L19.8694 18.574ZM19.8667 18.5703C19.8642 18.564 19.8595 18.5598 19.8496 18.555C19.8166 18.5261 19.3465 18.9473 19.2136 19.0751C19.2161 19.0715 18.318 19.9488 19.2468 19.108C19.7652 18.656 19.5308 18.8601 19.8636 18.5701L19.8667 18.5703ZM20.3583 18.1445C20.0923 18.4704 20.0076 18.5604 20.3034 18.2703C20.4291 18.1403 20.5517 18.0069 20.6717 17.8708C20.5652 17.9635 20.482 18.0362 20.3583 18.1445V18.1445ZM20.6717 17.8708C20.6791 17.8652 20.6816 17.8598 20.6915 17.8542C20.6939 17.8505 20.6939 17.8503 20.6939 17.8478C20.6914 17.8515 20.684 17.8591 20.6741 17.862C20.6717 17.8657 20.6716 17.8676 20.6667 17.8708H20.6717ZM21.3961 16.7769C21.4412 16.7156 21.4776 16.6675 21.5037 16.6343C21.727 16.2363 21.7028 16.2207 21.7028 16.2207C21.7003 16.2171 21.3922 16.7734 21.3951 16.7764C21.3951 16.7765 21.3975 16.7764 21.3975 16.7764L21.3961 16.7769ZM12.5063 23.9744C12.5396 23.9707 12.6798 23.9695 13.2261 23.9092C13.2286 23.9347 13.8385 23.8371 14.4057 23.7135C14.1912 23.7561 13.9402 23.8014 13.6592 23.8435C13.1442 23.9208 12.7528 23.9586 12.5063 23.9744ZM14.4057 23.7135C15.126 23.5703 15.4119 23.4578 14.8715 23.6025C14.7308 23.6402 14.5696 23.6779 14.4057 23.7135ZM5.1286 21.5902C5.12613 21.5865 5.1286 21.5865 5.1286 21.5865V21.5902L5.13124 21.5939L5.1286 21.5902ZM0.913135 16.3292C0.9156 16.3397 0.92054 16.3505 0.923005 16.3614C0.913144 16.3247 0.913135 16.3216 0.913135 16.3292ZM0.389783 15.0247C0.387318 15.0183 0.38232 15.0098 0.38232 15.0034C0.384785 15.0173 0.389725 15.0266 0.39219 15.0408C0.389725 15.0323 0.389783 15.0313 0.389783 15.0247V15.0247ZM10.196 1.32831C10.196 1.33197 10.196 1.33464 10.1984 1.33781L10.196 1.33787C10.196 1.34153 10.196 1.34469 10.1984 1.34737C10.1984 1.34176 9.56606 1.48472 9.56409 1.47784C9.56409 1.48174 9.55684 1.44281 10.1946 1.32795L10.196 1.32831ZM13.6315 1.53161C13.7055 1.55235 13.8695 1.59728 14.1382 1.66067C14.7378 1.80159 15.1791 1.9851 15.4488 2.11477C15.9534 2.3317 16.3072 2.55535 16.4538 2.6397C16.4514 2.64532 16.4513 2.65021 16.4464 2.65314H16.449C16.4466 2.6568 16.4464 2.65704 16.4464 2.6568C15.9272 2.38978 15.3387 2.11174 14.7273 1.89691C14.0945 1.67332 13.7473 1.56631 13.6325 1.53256L13.6315 1.53161ZM16.5381 2.75599C16.5529 2.75233 16.6442 2.76844 17.2442 3.15552C17.7278 3.46442 17.8966 3.63001 17.9028 3.63577C17.8954 3.64602 17.9102 3.62209 17.2254 3.18558C16.6979 2.85076 16.5308 2.76555 16.5357 2.75584C16.5357 2.75584 16.5356 2.75582 16.5381 2.75572V2.75599ZM14.6753 4.85965C14.6753 4.8597 14.6753 4.85965 14.6753 4.85965V4.85965ZM14.6753 4.85965H14.6729C14.6655 4.85599 14.658 4.88925 14.6464 4.94779C14.6292 5.02485 14.6198 5.13617 14.6168 5.19532C14.6143 5.25439 14.5947 5.31409 14.5708 5.32844C14.5376 5.34893 14.5324 5.30771 14.5487 5.137C14.5659 4.94737 14.5634 4.93763 14.5314 5.05976C14.5018 5.17713 14.4947 5.1847 14.4779 5.10611C14.4483 4.96087 14.3621 5.10246 14.3219 5.37029C14.2721 5.69609 14.2167 5.81636 14.2365 5.55529C14.2439 5.44263 14.2341 5.24078 14.21 5.10691L14.1698 4.86367L14.1313 5.01335C14.1091 5.09566 14.0754 5.15086 14.0545 5.13607C14.0042 5.10137 13.9781 5.29717 13.9603 5.8357C13.9529 6.0712 13.9338 6.35247 13.9172 6.46027C13.8951 6.61403 13.8909 6.57776 13.9074 6.29222C13.9172 6.09208 13.9148 5.94442 13.905 5.9645C13.8951 5.98427 13.8786 6.32478 13.8756 6.72067C13.8731 7.11656 13.8781 7.35244 13.8929 7.24459L13.9151 7.04847L13.9175 7.24459C13.92 7.35244 13.9002 7.62968 13.8766 7.86064L13.8332 8.28087L13.853 7.86064C13.8793 7.27222 13.8455 7.38735 13.8029 8.05065C13.7736 8.50566 13.7735 8.61303 13.8053 8.65192C13.8275 8.67791 13.8319 8.70036 13.8152 8.70036C13.7955 8.70036 13.7822 8.82111 13.7822 8.96728C13.7797 9.11359 13.7625 9.63105 13.7487 10.1173C13.729 10.7433 13.729 11.2587 13.7586 11.8819C13.7783 12.3365 13.7917 12.7211 13.7969 13.0485L13.9644 13.0588C13.9669 13.0544 13.9668 13.0544 13.9668 13.0588L15.4469 13.1493C15.4247 12.885 15.4202 12.3151 15.4493 12.2382C15.486 12.1352 15.5001 11.6461 15.4989 10.7013C15.4964 10.0921 15.5186 9.57816 15.5605 9.0488C15.6273 8.2275 15.6952 7.70246 15.6671 8.22457C15.6523 8.50885 15.6266 9.09615 15.6106 9.52417C15.5958 9.90595 15.6437 9.74455 15.6664 9.33163C15.6763 9.12329 15.7 8.86447 15.7146 8.75671C15.7293 8.64886 15.7477 8.35902 15.7598 8.11251C15.7697 7.86599 15.7932 7.46259 15.807 7.21611C15.8243 6.96968 15.8442 6.61684 15.8503 6.43201C15.8577 6.24719 15.8799 5.98172 15.9021 5.84229C15.9169 5.73416 15.9242 5.66448 15.9242 5.60426C15.9218 5.54401 15.9144 5.49271 15.891 5.42185C15.8457 5.27019 15.8412 5.26637 15.8402 5.38113C15.8378 5.54254 15.7827 5.54455 15.7499 5.38479C15.7278 5.27347 15.7232 5.28132 15.7042 5.46316C15.6845 5.64849 15.5973 5.86748 15.5879 5.7534C15.5855 5.72639 15.5805 5.65108 15.5781 5.58561C15.5707 5.43943 15.4668 5.1766 15.4177 5.17411C15.398 5.17411 15.3748 5.14085 15.3665 5.10217C15.3591 5.06369 15.3467 5.08925 15.3467 5.15838C15.3442 5.22778 15.327 5.28432 15.3137 5.28432C15.294 5.28432 15.27 5.22778 15.2552 5.15838C15.2286 5.03479 15.2287 5.03569 15.1902 5.20035L15.1515 5.36841L15.1293 5.22838C15.1096 5.11548 15.1029 5.14563 15.0889 5.38277C15.0591 5.8255 15.0051 5.95249 15.0261 5.52988C15.0482 5.10501 14.9927 5.00339 14.9476 5.38256C14.9279 5.52882 14.9083 5.83974 14.8994 6.0734C14.892 6.30712 14.8618 6.57095 14.8364 6.65999L14.7899 6.82191L14.7998 6.61153C14.8072 6.49589 14.8195 6.38533 14.8291 6.36561C14.839 6.34585 14.8513 6.18939 14.8513 6.01731C14.8538 5.84536 14.8686 5.57862 14.878 5.4245C14.9073 5.10377 14.8975 5.05118 14.8349 5.20425C14.794 5.30603 14.7881 5.29793 14.7319 5.06026C14.6989 4.92545 14.6852 4.8647 14.6743 4.86043L14.6753 4.85965ZM8.39774 4.8598C8.38048 4.86346 8.36428 5.03071 8.35393 5.23782C8.34407 5.44575 8.32462 5.76701 8.31156 5.9519L8.28941 6.28822L8.26293 6.03614C8.24814 5.89744 8.23356 5.76721 8.23356 5.74676C8.23109 5.72626 8.22374 5.6949 8.21141 5.67724C8.18479 5.63007 8.11749 6.62623 8.13943 6.73092C8.14929 6.78013 8.14176 6.82022 8.12451 6.82022C8.08162 6.82022 8.07995 6.91623 8.1221 6.94178C8.13689 6.95129 8.15162 7.23356 8.15532 7.67498L9.67819 7.5818C9.6708 7.55633 9.66108 7.53385 9.65171 7.5205C9.59477 7.43703 9.54098 6.98578 9.54098 6.58553C9.54098 6.3911 9.53115 6.09358 9.51883 5.92414C9.49911 5.67388 9.49249 5.64214 9.47622 5.75585C9.4565 5.88251 9.45393 5.87776 9.44974 5.7047C9.44727 5.59943 9.44227 5.52371 9.43241 5.5365C9.41022 5.57817 9.34589 6.45032 9.35008 6.66166C9.35254 6.77471 9.34043 6.88351 9.32071 6.90305C9.29852 6.92648 9.28724 6.8164 9.28724 6.59017C9.28724 6.08009 9.24724 6.19556 9.22875 6.75957C9.22135 6.96832 9.19149 6.73639 9.17867 6.36871C9.17128 6.14224 9.149 5.9304 9.13101 5.89832C9.10882 5.85713 9.10438 5.88951 9.12114 6.00793C9.13593 6.14202 9.13092 6.15914 9.10381 6.09211C9.07718 6.02664 9.07069 6.07623 9.08671 6.31607L9.10381 6.6244L9.05855 6.40019C9.03193 6.27689 9.01161 6.0751 9.01161 5.9519C9.01161 5.82865 8.99441 5.68996 8.97839 5.64382C8.95176 5.58123 8.94921 5.61351 8.96129 5.77038C8.96869 5.88614 8.96368 5.99421 8.94396 6.01073C8.92917 6.02732 8.92423 6.15015 8.93409 6.28373C8.94395 6.46913 8.93661 6.53455 8.90111 6.55973C8.86413 6.58467 8.85369 6.55339 8.85369 6.43314C8.85369 6.34551 8.83163 6.24217 8.80698 6.20357C8.77371 6.15443 8.76968 6.11256 8.78965 6.0647C8.82712 5.98364 8.7971 5.63151 8.75667 5.6767C8.73942 5.69354 8.7091 5.62404 8.68469 5.52172C8.65141 5.3828 8.63877 5.3641 8.6363 5.44785C8.63384 5.50949 8.62643 5.52822 8.61656 5.48976C8.60917 5.45126 8.5833 5.42176 8.56481 5.42176C8.54755 5.42176 8.56243 5.473 8.60212 5.53367C8.64181 5.59425 8.65819 5.64382 8.63871 5.64382C8.61653 5.64382 8.60911 5.6867 8.61897 5.74888C8.62883 5.82371 8.61905 5.86268 8.57468 5.88381C8.50368 5.91741 8.49372 5.86796 8.5482 5.76323C8.57753 5.70608 8.5777 5.69563 8.54097 5.71012C8.51164 5.72159 8.49178 5.67687 8.48537 5.58791C8.45899 5.23858 8.41031 4.86141 8.38739 4.8598H8.39774ZM8.63558 5.18492V5.18856H8.63799L8.63558 5.18492ZM14.0732 5.20053L14.0759 5.34053C14.0759 5.41756 14.0658 5.59404 14.0535 5.73264L14.0273 5.98461L14.0249 5.73264C14.0249 5.59404 14.0346 5.41756 14.0511 5.34053L14.0732 5.20053ZM3.07274 5.28703C3.07521 5.29069 3.08022 5.2941 3.09008 5.29752C3.09254 5.30118 3.09983 5.30556 3.10476 5.308C3.10476 5.308 2.70259 5.84793 2.68853 5.8383C2.68607 5.83464 2.65063 5.81199 3.07635 5.28602L3.07274 5.28703ZM9.15508 5.58407C9.15508 5.58773 9.15527 5.58773 9.15773 5.58773C9.15773 5.58773 9.15755 5.58407 9.15508 5.58407ZM9.15773 5.59089C9.15773 5.59455 9.15767 5.59455 9.16014 5.59455C9.16014 5.59455 9.1602 5.59089 9.15773 5.59089ZM9.70227 5.83827C9.6998 5.84193 9.69973 5.8682 9.6948 5.92396C9.69234 6.06259 9.68005 6.22645 9.67266 6.28802C9.64628 6.47869 9.66276 7.11012 9.6948 7.22493C9.73326 7.35411 9.69717 7.44201 9.65797 7.32257C9.62469 7.22855 9.61951 7.27228 9.6481 7.40326C9.65796 7.45177 9.67755 7.47769 9.69456 7.46075C9.70442 7.44611 9.71671 7.49847 9.71671 7.57897L9.75378 7.57531V7.5376C9.74639 6.78667 9.71682 5.86224 9.70179 5.83698C9.70179 5.83332 9.7016 5.83332 9.69914 5.83698L9.70227 5.83827ZM9.79663 5.86192C9.79417 5.86558 9.7941 5.88414 9.78917 5.92354C9.76945 6.16602 9.77932 6.7881 9.79904 6.90386C9.80151 6.93455 9.80897 6.67 9.8065 6.3156C9.80404 6.01646 9.80403 5.85874 9.79663 5.86192V5.86192ZM14.5648 5.95726V5.95735C14.5673 5.96101 14.5673 5.97615 14.5723 6.00343V6.04493C14.5698 6.14831 14.555 6.31707 14.5427 6.40457C14.5254 6.49905 14.5204 6.45335 14.5352 6.26445C14.5451 6.11041 14.5574 5.97378 14.5646 5.96102C14.567 5.95736 14.567 5.95711 14.567 5.95711L14.5648 5.95726ZM13.9977 6.02303C14.0001 6.01937 14.0002 6.02304 14.0051 6.02792C14.0076 6.03743 14.0123 6.05426 14.0123 6.07346C14.0123 6.09298 14.01 6.11485 14.0051 6.13515C13.9953 6.17985 13.9854 6.16657 13.9854 6.10152C13.9829 6.05735 13.9877 6.02769 13.9926 6.02342L13.9977 6.02303ZM8.6741 6.03548C8.69382 6.03548 8.70323 6.07206 8.70323 6.11618C8.70323 6.16064 8.68864 6.21252 8.6741 6.23145C8.65438 6.25024 8.64449 6.21438 8.64449 6.15082C8.64449 6.08745 8.65684 6.03548 8.6741 6.03548ZM8.8703 6.03548C8.85058 6.03548 8.8294 6.05233 8.81806 6.07281C8.8082 6.0933 8.80308 6.1231 8.81541 6.13896C8.8228 6.15482 8.8489 6.13897 8.86837 6.10164C8.87823 6.08187 8.88787 6.06488 8.88787 6.05342C8.89034 6.04195 8.88551 6.0356 8.87319 6.0356L8.8703 6.03548ZM14.7446 6.0516C14.7471 6.0516 14.7471 6.1099 14.7471 6.23666C14.7471 6.37534 14.7372 6.56421 14.7249 6.65669C14.7027 6.80693 14.7028 6.79791 14.7028 6.57266C14.7028 6.43394 14.7126 6.24494 14.7249 6.15249C14.7348 6.08682 14.7422 6.0516 14.7446 6.0516V6.0516ZM15.5826 6.41315C15.5826 6.41315 15.585 6.41322 15.585 6.41315C15.5875 6.41754 15.5877 6.44164 15.5877 6.48786C15.5852 6.54952 15.5704 6.6502 15.5581 6.71179C15.5317 6.81442 15.5317 6.81207 15.5285 6.68367C15.526 6.60671 15.5384 6.50585 15.5581 6.45974C15.5679 6.42941 15.5778 6.41325 15.5802 6.41246L15.5826 6.41315ZM14.4936 6.65463C14.496 6.65829 14.4961 6.66097 14.501 6.67122C14.5035 6.69001 14.5085 6.7157 14.5085 6.74107C14.5085 6.76655 14.506 6.79207 14.501 6.81122C14.4936 6.84973 14.4861 6.81803 14.4861 6.74107C14.4861 6.68336 14.4886 6.65127 14.496 6.65505L14.4936 6.65463ZM13.9495 6.6846C13.9594 6.6846 13.9694 6.72731 13.9644 6.78748C13.9644 6.80749 13.9618 6.82971 13.9618 6.85277C13.9544 6.94513 13.9422 7.02071 13.9353 7.02071C13.9279 7.02071 13.9254 6.94513 13.9254 6.85277C13.9254 6.76041 13.9351 6.68472 13.9519 6.6846H13.9495ZM9.80578 7.00889C9.79839 7.01255 9.79844 7.26955 9.80337 7.57632L9.84021 7.57269C9.83035 7.20533 9.81817 7.03423 9.80337 7.0076L9.80578 7.00889ZM15.5193 7.02962C15.5218 7.02974 15.5268 7.03891 15.5268 7.05592C15.5292 7.07934 15.5244 7.11709 15.5244 7.16333C15.5145 7.25579 15.498 7.48941 15.4849 7.68269C15.475 7.8759 15.4518 8.04771 15.436 8.06423C15.399 8.10418 15.4031 8.02726 15.4534 7.5099C15.4755 7.26913 15.5065 7.05495 15.5191 7.03385C15.5215 7.03019 15.5215 7.02994 15.5215 7.02994L15.5193 7.02962ZM8.10308 7.20587C8.10062 7.20098 8.09562 7.24591 8.09562 7.32641C8.09562 7.43412 8.10315 7.4782 8.11055 7.42435C8.11301 7.39734 8.11295 7.36189 8.11295 7.32641C8.11295 7.29098 8.11055 7.25522 8.11055 7.22824C8.10808 7.21481 8.10801 7.20772 8.10308 7.20601V7.20587ZM17.1801 8.11579C17.1535 8.11579 17.1219 8.12528 17.1089 8.14573C17.099 8.16183 16.8001 8.17459 16.3354 8.18082L16.2362 9.76779C16.3279 9.76413 16.4201 9.76413 16.5049 9.76413C17.4044 9.75779 18.5504 9.71647 18.1373 9.70524C17.997 9.70158 17.8318 9.69134 17.7694 9.68329C17.5769 9.65728 16.939 9.6733 16.8224 9.70697C16.692 9.74467 16.6034 9.71281 16.7239 9.67152C16.8186 9.63902 16.7747 9.63315 16.6423 9.66104C16.5933 9.67129 16.5673 9.6921 16.5843 9.70706C16.604 9.72194 16.5316 9.73255 16.4286 9.73074C16.3112 9.72708 16.2834 9.72196 16.3542 9.71293C16.4165 9.70488 16.4931 9.6815 16.5241 9.66056C16.6084 9.604 17.0647 9.55071 17.4693 9.55071C17.6655 9.55071 17.966 9.54121 18.1373 9.5295C18.3904 9.51266 18.4224 9.50457 18.3075 9.48688C18.1795 9.46711 18.1845 9.46465 18.3592 9.46191C18.4655 9.45825 18.542 9.45338 18.5292 9.44631C18.4865 9.42361 17.6055 9.361 17.392 9.36532C17.2778 9.36898 17.1678 9.3558 17.1481 9.33791C17.1259 9.31717 17.2354 9.30616 17.4642 9.30616C17.9796 9.30616 17.8632 9.26619 17.293 9.24757C17.082 9.24074 17.3151 9.21143 17.6883 9.19818C17.9168 9.18989 18.131 9.169 18.1638 9.15094C18.2052 9.12776 18.1711 9.12429 18.0525 9.13849C17.917 9.15411 17.8998 9.15142 17.9676 9.12336C18.0339 9.09593 17.9824 9.09159 17.7413 9.10555L17.4298 9.12312L17.6563 9.07805C17.7808 9.05311 17.9849 9.03206 18.1091 9.03206C18.2339 9.03206 18.374 9.01694 18.4206 8.99956C18.484 8.9759 18.4503 8.97147 18.2928 8.98128C18.1757 8.9886 18.0664 8.98494 18.0497 8.96835C18.0324 8.95371 17.9091 8.94882 17.774 8.95712C17.5864 8.96932 17.5204 8.961 17.495 8.92569C17.4686 8.89026 17.5025 8.87881 17.6231 8.87881C17.7116 8.87881 17.8157 8.85806 17.8549 8.83261C17.9042 8.80011 17.9469 8.79574 17.9957 8.81748C18.0776 8.8542 18.4333 8.82309 18.3874 8.78281C18.3677 8.76743 18.4406 8.73558 18.5441 8.71138C18.6846 8.67851 18.7033 8.66632 18.6185 8.66369C18.5564 8.66003 18.5374 8.65319 18.5764 8.64489C18.6151 8.63635 18.645 8.61346 18.645 8.59384C18.645 8.57407 18.593 8.59017 18.5316 8.63039C18.4705 8.66997 18.4206 8.68617 18.4206 8.66655C18.4206 8.64508 18.3771 8.63807 18.3145 8.64874C18.2385 8.66167 18.1997 8.64884 18.1782 8.60504C18.1449 8.53471 18.1955 8.5248 18.3 8.58139C18.3582 8.61206 18.3683 8.6106 18.3535 8.57478C18.3436 8.5463 18.3867 8.52622 18.4772 8.52012C18.8309 8.49596 19.2131 8.44523 19.2131 8.42254C19.2131 8.40887 19.0411 8.38931 18.8308 8.37914C18.6206 8.36889 18.296 8.34992 18.1091 8.33696L17.7694 8.31328L18.0241 8.28626C18.1642 8.27138 18.2959 8.25776 18.3166 8.2563C18.3388 8.25264 18.3692 8.24581 18.3867 8.2358C18.4345 8.20981 17.4279 8.1427 17.3222 8.16464C17.2724 8.17513 17.2319 8.16857 17.2319 8.14978C17.2319 8.12855 17.2053 8.1176 17.1801 8.11689V8.11579ZM16.7225 8.12139C16.6138 8.12139 16.5693 8.12774 16.6233 8.1353C16.6499 8.13896 16.6865 8.14114 16.7225 8.14114C16.7592 8.14114 16.7946 8.1375 16.8214 8.1353C16.8762 8.12774 16.8312 8.12139 16.7225 8.12139ZM11.008 8.2028V8.20292C10.7198 8.19926 10.4316 8.20658 10.1149 8.21537C9.62383 8.2305 9.10052 8.24534 8.95311 8.24751C8.80496 8.25117 8.68301 8.26505 8.68301 8.28218C8.68301 8.29877 8.66101 8.2939 8.63414 8.2717C8.5947 8.23812 8.48627 8.23777 8.02653 8.26708C7.35627 8.31017 7.24009 8.33995 7.83443 8.31626L8.25908 8.29868L7.83443 8.34166C7.60098 8.36509 7.32085 8.38323 7.21189 8.3822L7.01377 8.37854L7.21189 8.35706C7.32085 8.3456 7.08261 8.33949 6.68252 8.34339C6.28244 8.3473 5.93866 8.36121 5.9182 8.373C5.90094 8.38447 6.04731 8.38667 6.24945 8.37666C6.53835 8.363 6.5747 8.36541 6.4194 8.38786C6.31044 8.40372 6.02607 8.4226 5.78868 8.43034C5.2439 8.44815 5.04617 8.47395 5.08117 8.52333C5.09843 8.54456 5.04052 8.57857 4.95695 8.59953L4.80577 8.63757L5.05156 8.67733C5.1869 8.69905 5.39098 8.7102 5.50462 8.70149C5.76839 8.68172 5.64715 8.73691 5.31757 8.7859C5.04863 8.82607 4.90392 8.90966 5.05084 8.94011C5.13022 8.9567 5.12271 8.96532 5.0039 8.99316C4.88064 9.022 4.8906 9.02416 5.08213 9.00779C5.25469 8.9929 5.29639 8.99755 5.27568 9.03123C5.25843 9.05441 5.20053 9.07503 5.14087 9.07671C5.08122 9.08037 4.96889 9.09062 4.89099 9.10409C4.75517 9.12751 4.75985 9.13072 5.0039 9.18701C5.24424 9.24238 5.25209 9.24827 5.1493 9.28912C4.99449 9.35049 5.04806 9.36054 5.37198 9.33145C5.52777 9.31754 5.79713 9.30545 5.97092 9.3044C6.14471 9.30074 6.30363 9.29393 6.32311 9.28319C6.34283 9.2727 6.45494 9.25877 6.57179 9.25326L6.78435 9.24277L6.62065 9.28867C6.53092 9.31388 6.26413 9.34185 6.02773 9.35093C5.79182 9.35971 5.47751 9.38161 5.32961 9.39889C4.94628 9.44393 5.04921 9.4973 5.47838 9.47624C5.90558 9.45501 5.7775 9.50911 5.33009 9.53844C5.09048 9.5543 5.05972 9.56188 5.17385 9.57847L5.3154 9.59896L5.14569 9.637C4.97929 9.67424 4.97859 9.6755 5.10308 9.70134C5.17333 9.71598 5.23043 9.74204 5.23043 9.75934C5.23043 9.7769 5.17333 9.79183 5.10308 9.79329C5.03307 9.79695 5.00756 9.80281 5.04627 9.8111C5.08521 9.81965 5.11921 9.8425 5.11921 9.86219C5.12167 9.91065 5.38729 10.012 5.53495 10.0206C5.60102 10.0243 5.67755 10.0294 5.70491 10.0316C5.82003 10.0409 5.59832 10.1274 5.41098 10.1464C5.22733 10.1649 5.21936 10.1695 5.33201 10.1919C5.49422 10.2244 5.49255 10.2797 5.32961 10.2813C5.2135 10.2849 5.21745 10.2869 5.37053 10.3315C5.44251 10.3528 5.4938 10.3633 5.55469 10.3648C5.61583 10.3684 5.68597 10.3589 5.79567 10.3431C5.93618 10.3226 6.20487 10.2995 6.39148 10.292C6.57809 10.2847 6.93475 10.2649 7.18397 10.2493C7.43294 10.2335 7.84063 10.2125 8.0896 10.2026C8.33882 10.1926 8.63182 10.1723 8.74102 10.1578C8.84973 10.1432 9.1114 10.122 9.32167 10.1103C9.73926 10.0871 9.90246 10.0409 9.51618 10.0548C9.0838 10.0704 8.49042 10.0957 8.20299 10.1109C7.67546 10.1387 8.20542 10.0713 9.0364 10.005C9.57083 9.96235 10.0903 9.94301 10.7061 9.94413C11.6609 9.94779 12.1548 9.92998 12.2591 9.89501C12.3284 9.87183 12.793 9.87379 13.0836 9.88843L13.1734 8.44374C13.0701 8.42886 13.0575 8.42376 13.1758 8.42108L13.1857 8.26142C12.8314 8.25605 12.4114 8.24363 11.8999 8.22213C11.5849 8.20847 11.2971 8.20089 11.0087 8.19967L11.008 8.2028ZM8.99957 8.20914C8.93991 8.20548 8.90693 8.21547 8.92566 8.22523C8.93553 8.23084 8.95242 8.23256 8.9714 8.23354C8.99112 8.23354 9.01353 8.22988 9.03424 8.22719C9.07935 8.21768 9.06733 8.21012 9.00101 8.2089L8.99957 8.20914ZM8.42903 8.27336V8.27339C8.52222 8.27705 8.55382 8.28069 8.49885 8.28826C8.47222 8.29192 8.43818 8.29389 8.40761 8.29389C8.37803 8.29389 8.34762 8.29023 8.32889 8.2873C8.29068 8.27876 8.33635 8.27168 8.42903 8.27339V8.27336ZM10.8539 8.31262C10.9353 8.30896 11.0484 8.31726 11.1748 8.33043C11.3459 8.34825 11.3287 8.35166 11.0475 8.35486C10.8685 8.35852 10.7215 8.3485 10.7215 8.3363C10.7215 8.32166 10.7718 8.31314 10.8539 8.31265V8.31262ZM13.8152 8.33964C13.8176 8.33964 13.8177 8.34331 13.8226 8.35331C13.8251 8.37186 13.8301 8.40091 13.8301 8.43126C13.8301 8.46159 13.8276 8.49433 13.8226 8.52164C13.8152 8.57603 13.8077 8.54506 13.8077 8.45265C13.8052 8.38372 13.8102 8.34121 13.8152 8.33997V8.33964ZM6.81565 8.38974V8.3898C6.90907 8.3898 6.98536 8.39541 6.98536 8.40127C6.98536 8.40786 6.90907 8.41907 6.81565 8.42647C6.79346 8.43013 6.76991 8.43013 6.74945 8.43013C6.6888 8.43379 6.64545 8.42478 6.64545 8.41527C6.64545 8.40136 6.72222 8.38977 6.81565 8.38977V8.38974ZM12.8024 8.42117C12.8724 8.42117 12.9298 8.43483 12.9298 8.45113C12.9298 8.46992 12.915 8.47996 12.8857 8.47996C12.8564 8.47996 12.8145 8.47046 12.7598 8.45113C12.691 8.42746 12.6996 8.42117 12.8024 8.42117ZM6.0559 8.45369C6.12196 8.45735 6.13521 8.46222 6.08912 8.47198C6.06693 8.47637 6.04649 8.47834 6.02677 8.47761C6.00705 8.47761 5.98991 8.47394 5.98055 8.4693C5.96083 8.4593 5.99552 8.45172 6.05493 8.45319L6.0559 8.45369ZM11.8445 8.48985C11.9062 8.48985 11.9851 8.48988 12.0805 8.49352C12.7152 8.49986 12.8847 8.51109 12.8467 8.54412C12.8369 8.55267 12.7593 8.55706 12.6483 8.55804H12.527C12.2384 8.55438 11.8393 8.53827 11.7032 8.51526C11.6182 8.50062 11.6577 8.49378 11.8445 8.49256V8.48985ZM5.68324 8.49352L5.93818 8.49718L5.68324 8.52161C5.54347 8.53527 5.3649 8.54526 5.287 8.54526L5.14569 8.54159L5.287 8.51744C5.3649 8.50377 5.54347 8.49379 5.68324 8.49379V8.49352ZM18.8819 8.66065V8.66431L18.8845 8.66065H18.8819ZM17.9083 8.66798C17.9722 8.66798 18.0244 8.68165 18.0244 8.69866C18.0244 8.7155 17.9874 8.72931 17.943 8.72931C17.8981 8.72931 17.846 8.71542 17.8267 8.69866C17.807 8.68182 17.8465 8.66798 17.9083 8.66798ZM17.9517 8.83142C17.9418 8.82776 17.9295 8.83141 17.9187 8.83702C17.9014 8.84556 17.9185 8.86917 17.956 8.88909C17.9757 8.89958 17.993 8.90593 18.0049 8.90666C18.0147 8.91032 18.0246 8.90298 18.0246 8.89346C18.0246 8.8759 18.0048 8.85274 17.9868 8.84152C17.977 8.8359 17.9647 8.83299 17.9536 8.83201L17.9517 8.83142ZM13.7507 8.9419C13.7433 8.9458 13.7408 8.97547 13.7408 9.01976C13.7433 9.08511 13.7482 9.09848 13.7605 9.05378C13.763 9.03328 13.768 9.01135 13.768 8.99188C13.768 8.97236 13.7655 8.95572 13.7605 8.9464C13.7581 8.94151 13.758 8.94005 13.7531 8.94151L13.7507 8.9419ZM6.7025 8.9475C6.7804 8.9475 6.81223 8.95433 6.77328 8.96263C6.75356 8.96653 6.72789 8.96897 6.7025 8.96897C6.67588 8.96897 6.65119 8.96531 6.63221 8.96263C6.59277 8.95433 6.62485 8.9475 6.7025 8.9475ZM6.39942 8.98673V8.98682C6.42161 8.99048 6.40943 8.99316 6.36259 9.00195C6.27409 9.01854 6.1036 9.03045 5.99908 9.0323H5.95696C5.92023 9.02864 5.90177 9.02862 5.91435 9.02277C5.92421 9.01642 6.06524 9.00302 6.22104 8.99358C6.31644 8.98723 6.37552 8.98526 6.39918 8.98673H6.39942ZM6.53231 9.16369C6.75983 9.16369 6.76913 9.16734 6.61728 9.18686C6.5241 9.1998 6.33314 9.21031 6.19287 9.21031C5.9651 9.21031 5.95604 9.20663 6.10789 9.18686C6.20132 9.17393 6.39204 9.16369 6.53231 9.16369ZM12.8164 9.47017C12.9566 9.47017 13.0137 9.47652 12.9437 9.4836C12.9104 9.48726 12.8625 9.4892 12.8164 9.4892C12.7703 9.4892 12.7243 9.48555 12.6893 9.4836C12.6193 9.47677 12.6793 9.47017 12.8164 9.47017ZM9.81613 9.74164C9.89378 9.74164 9.92586 9.74846 9.88691 9.75749C9.86719 9.76188 9.84202 9.76383 9.81613 9.76383C9.78976 9.76383 9.76459 9.76017 9.74536 9.75749C9.70616 9.74895 9.73799 9.74164 9.81613 9.74164ZM15.2964 9.74164C15.2989 9.7453 15.2989 9.74797 15.3039 9.75773C15.3063 9.77652 15.3113 9.80236 15.3113 9.82779C15.3113 9.85324 15.3088 9.87859 15.3039 9.89781C15.2965 9.93632 15.2892 9.90514 15.2892 9.82779C15.2892 9.76991 15.2917 9.73778 15.299 9.74158L15.2964 9.74164ZM17.7473 9.79121V9.79127C17.6968 9.79127 17.645 9.79129 17.5947 9.79493C17.392 9.79859 17.2056 9.80446 17.1469 9.81617C17.1176 9.82203 17.3833 9.82566 17.7413 9.82469C18.1483 9.82103 18.2968 9.81615 18.1375 9.80419C18.0458 9.79761 17.8999 9.79469 17.7473 9.79469V9.79121ZM16.814 9.81242C16.6636 9.81242 16.4547 9.81633 16.2328 9.82096L16.2302 9.85978C16.7876 9.84758 17.0106 9.83609 17.0432 9.81864C17.053 9.81303 16.9619 9.81133 16.8137 9.81206L16.814 9.81242ZM7.96851 9.861V9.86112C8.04814 9.85746 8.05758 9.86696 8.03736 9.88453C8.02011 9.89917 7.84719 9.92106 7.65195 9.93284C7.45672 9.94431 7.22033 9.96204 7.1274 9.97166C7.08031 9.97654 7.04225 9.97826 7.01858 9.97729C6.9964 9.97363 6.98534 9.97216 6.99644 9.96606C7.01862 9.95361 7.23411 9.92417 7.47742 9.90106C7.73897 9.87612 7.88913 9.86322 7.969 9.86085L7.96851 9.861ZM6.64545 9.98381C6.77511 9.98747 6.77761 9.98774 6.67506 10.0116C6.61269 10.0262 6.5109 10.0386 6.44853 10.0397C6.3551 10.0433 6.35039 10.036 6.41916 10.0116C6.466 9.99501 6.56731 9.98234 6.64521 9.98381H6.64545ZM9.92157 10.6849V10.6886H9.92398L9.92157 10.6849ZM9.92157 10.6886L8.43361 10.7797C8.43114 10.7879 8.4312 10.7992 8.4312 10.8059C8.40902 10.9693 8.4048 10.9739 8.40159 10.7815L8.24199 10.7915C8.23952 11.1505 8.22225 11.5796 8.20154 12.107C8.17517 12.7303 8.1722 13.2456 8.19167 13.8715C8.204 14.3579 8.2212 14.8753 8.22489 15.0216C8.22736 15.1677 8.2421 15.2885 8.25787 15.2885C8.27759 15.2885 8.26772 15.3108 8.248 15.337C8.21497 15.3759 8.21503 15.4833 8.2456 15.9383C8.28898 16.6017 8.31909 16.7166 8.29543 16.1282L8.27569 15.708L8.31878 16.1282C8.34096 16.3592 8.36092 16.6365 8.36019 16.7444L8.35778 16.9403L8.33563 16.7444C8.32577 16.6365 8.31583 16.8722 8.3183 17.2682C8.32076 17.664 8.33805 18.0043 8.34791 18.0244C8.35777 18.0444 8.36264 17.8968 8.35032 17.6967C8.33552 17.4112 8.34046 17.3747 8.36019 17.5286C8.37498 17.6363 8.39711 17.9176 8.40352 18.1531C8.42324 18.6917 8.44712 18.8875 8.49716 18.8528C8.51935 18.8379 8.55299 18.8932 8.57444 18.9754L8.61295 19.1251L8.65292 18.8819C8.6751 18.7481 8.68605 18.5462 8.6794 18.4335C8.65968 18.1725 8.7163 18.2928 8.76437 18.6186C8.80505 18.885 8.88931 19.0281 8.92037 18.8828C8.94009 18.8043 8.94694 18.8117 8.97381 18.929C9.00339 19.0511 9.00334 19.0414 8.98609 18.8517C8.97376 18.6814 8.97619 18.6401 9.00824 18.6604C9.03042 18.675 9.05273 18.7346 9.05446 18.7936C9.05692 18.8528 9.07174 18.964 9.08407 19.0411C9.10625 19.1753 9.1104 19.1706 9.16784 18.929C9.22355 18.6913 9.22947 18.6833 9.27063 18.7851C9.33275 18.9382 9.34305 18.8857 9.31397 18.565C9.29918 18.4109 9.28724 18.1441 9.28724 17.972C9.28478 17.8 9.27742 17.6434 9.2651 17.6238C9.25524 17.604 9.23869 17.4934 9.23573 17.3778L9.22586 17.1673L9.27208 17.3294C9.29846 17.4184 9.32578 17.6823 9.33515 17.916C9.34255 18.1497 9.36456 18.4606 9.38354 18.6069C9.4289 18.9861 9.48273 18.8843 9.46153 18.4595C9.43935 18.0369 9.49479 18.164 9.52413 18.6066C9.53892 18.8438 9.55076 18.8739 9.56481 18.761L9.5872 18.621L9.62523 18.7889C9.66295 18.9536 9.66459 18.9545 9.69023 18.8309C9.70749 18.7615 9.73147 18.705 9.74873 18.705C9.76845 18.705 9.78243 18.7615 9.78243 18.8309C9.7849 18.9001 9.79207 18.9257 9.80193 18.8872C9.80933 18.8487 9.8352 18.8153 9.85369 18.8153C9.90274 18.8116 10.0049 18.5499 10.014 18.4038C10.0165 18.3383 10.0214 18.2628 10.0239 18.2359C10.0313 18.1217 10.1209 18.3409 10.1402 18.5262C10.1599 18.708 10.1625 18.716 10.1859 18.6046C10.2192 18.4438 10.2749 18.4456 10.2764 18.6083C10.2789 18.723 10.2789 18.7191 10.3274 18.5675C10.3496 18.4966 10.3604 18.4456 10.3604 18.3853C10.3629 18.3251 10.3531 18.2554 10.3383 18.1472C10.3161 18.0078 10.2942 17.7423 10.2868 17.5575C10.2794 17.3726 10.26 17.0197 10.2432 16.7733C10.2284 16.5267 10.2061 16.1236 10.1962 15.877C10.1864 15.6305 10.1665 15.3405 10.1508 15.2327C10.136 15.125 10.1139 14.8661 10.1028 14.6578C10.0807 14.2449 10.0327 14.0835 10.0468 14.4653C10.0615 14.8933 10.088 15.4806 10.1036 15.7649C10.1331 16.287 10.0633 15.7612 9.9962 14.9407C9.95331 14.4114 9.93358 13.8972 9.93481 13.288C9.93728 12.3432 9.92022 11.8543 9.8857 11.7513C9.85243 11.6521 9.86829 10.7259 9.9028 10.7038C9.90526 10.7002 9.9102 10.6963 9.91267 10.6902L9.92157 10.6886ZM13.8703 10.7271C13.8802 10.7271 13.8923 10.872 13.8898 11.0491C13.8873 11.3275 13.8826 11.3447 13.8633 11.1752C13.8367 10.9257 13.8368 10.7271 13.8708 10.7271H13.8703ZM9.4625 11.0432C9.46496 11.0469 9.46515 11.0551 9.46515 11.0724C9.46761 11.1071 9.46755 11.1526 9.46755 11.1983C9.46755 11.2441 9.46515 11.2898 9.46515 11.3245C9.45775 11.3938 9.44781 11.3369 9.44781 11.1983C9.44781 11.0958 9.45035 11.0384 9.45528 11.0434L9.4625 11.0432ZM8.42759 11.0862C8.44731 11.0862 8.45696 11.1011 8.45696 11.1295C8.45696 11.158 8.44731 11.1999 8.42759 11.2542C8.40121 11.3222 8.39822 11.314 8.39822 11.2121C8.39822 11.1429 8.41058 11.0862 8.42759 11.0862V11.0862ZM8.51281 11.1635C8.51527 11.1635 8.51534 11.1671 8.52027 11.1683C8.52767 11.1779 8.53003 11.255 8.53496 11.3648V11.4845C8.53249 11.7702 8.51529 12.1652 8.49162 12.3C8.47437 12.4127 8.46504 12.3049 8.46948 11.9266C8.47687 11.3375 8.48663 11.1535 8.51474 11.1636L8.51281 11.1635ZM14.0357 11.6557C14.0382 11.6557 14.0431 11.6699 14.0456 11.6982C14.0677 11.833 14.0859 12.228 14.0886 12.5137V12.6335C14.0862 12.7431 14.0861 12.8202 14.0713 12.8299C14.0383 12.8674 14.0269 12.7 14.0203 12.0717C14.0178 11.7881 14.0203 11.6564 14.0302 11.6557H14.0357ZM23.8886 11.97C23.8738 11.97 23.8911 11.9736 23.8462 12.6805H23.8609V12.6841H23.8732C23.8806 12.6841 23.9029 11.9717 23.8881 11.9717L23.8886 11.97ZM15.0212 12.6447C15.0237 12.6484 15.0235 12.6564 15.0285 12.6736C15.0309 12.7083 15.0311 12.754 15.0311 12.7996C15.0311 12.8453 15.0285 12.8911 15.0285 12.9257C15.0211 12.9951 15.0138 12.9382 15.0138 12.7996C15.0138 12.6971 15.0163 12.6397 15.0212 12.6447V12.6447ZM13.963 12.6999C13.9655 12.6999 13.9654 12.6999 13.9654 12.6999C13.9679 12.7035 13.9753 12.7177 13.9851 12.7434C14.0049 12.7977 14.0145 12.8395 14.0145 12.868C14.0145 12.8961 14.0046 12.9113 13.9851 12.9113C13.9654 12.9113 13.9553 12.8547 13.9553 12.7855C13.9553 12.7301 13.9578 12.7025 13.9627 12.6996L13.963 12.6999ZM8.32263 12.7138C8.3251 12.7194 8.33009 12.7924 8.33009 12.9487C8.33256 13.1258 8.32268 13.2708 8.31035 13.2708C8.28102 13.2708 8.27738 13.0722 8.30795 12.8227C8.31534 12.7497 8.31783 12.7115 8.32769 12.7138H8.32263ZM1.69913 13.1587C1.7255 13.1645 1.70636 13.2414 1.80842 13.8166C1.92009 14.4143 1.93091 14.4771 1.91217 14.4824C1.89492 14.4863 1.8557 14.4973 1.73836 13.8311C1.62546 13.2282 1.67854 13.1601 1.68396 13.1593C1.69135 13.1556 1.6939 13.1556 1.70129 13.1556L1.69913 13.1587ZM6.83467 13.6225C6.80804 13.6225 6.78315 13.634 6.78315 13.6554C6.78315 13.6739 6.74243 13.6808 6.69263 13.6705C6.58713 13.6488 5.58006 13.7159 5.62763 13.7417C5.64735 13.7515 5.67697 13.7602 5.69817 13.7617C5.72035 13.7654 5.84991 13.7766 5.99018 13.7917L6.24487 13.8187L5.90544 13.8424C5.71834 13.8555 5.39376 13.8741 5.18348 13.8845C4.97346 13.8947 4.80144 13.9144 4.80144 13.928C4.80144 13.9504 5.18337 14.0012 5.5376 14.0254C5.62733 14.0317 5.67269 14.0514 5.66061 14.0801C5.64829 14.1162 5.65809 14.1176 5.71454 14.0874C5.82054 14.031 5.87013 14.0409 5.83611 14.1111C5.81392 14.1549 5.77553 14.1679 5.70009 14.1549C5.63699 14.1439 5.59393 14.1513 5.59393 14.1725C5.59393 14.1922 5.54385 14.1761 5.48247 14.1363C5.42109 14.0967 5.36981 14.0803 5.36981 14.0998C5.36981 14.1196 5.39923 14.1423 5.43818 14.1508C5.47688 14.1596 5.45769 14.1679 5.39557 14.1696C5.31126 14.1733 5.33017 14.1843 5.47044 14.2172C5.57397 14.2414 5.64416 14.2735 5.62739 14.2886C5.5813 14.3284 5.93698 14.3599 6.01906 14.3233C6.06738 14.3018 6.10986 14.3062 6.15965 14.3384C6.1986 14.3639 6.30297 14.3846 6.39172 14.3846C6.51325 14.3846 6.54494 14.3961 6.51931 14.4315C6.49293 14.4673 6.42788 14.4747 6.24078 14.4629C6.10594 14.4541 5.98142 14.459 5.96466 14.4734C5.94494 14.488 5.83861 14.4939 5.72176 14.4863C5.56325 14.4761 5.53107 14.4807 5.59393 14.5046C5.64052 14.5222 5.7807 14.5371 5.90544 14.5371C6.02968 14.5371 6.23377 14.5586 6.35802 14.5831L6.58479 14.6282L6.27328 14.6106C6.03071 14.5969 5.98067 14.6011 6.04723 14.6284C6.11453 14.6565 6.09735 14.6598 5.96177 14.6435C5.84246 14.6296 5.80961 14.633 5.85127 14.656C5.88431 14.6738 6.09747 14.695 6.32648 14.7033C6.69846 14.7164 6.93253 14.7457 6.72176 14.7526C6.15158 14.7711 6.03491 14.8111 6.55036 14.8111C6.77887 14.8111 6.88986 14.8221 6.86644 14.8429C6.84672 14.8604 6.73695 14.8728 6.62282 14.8702C6.4091 14.8658 5.52751 14.9288 5.48536 14.9514C5.4755 14.9582 5.54906 14.9653 5.6558 14.9672C5.83058 14.9709 5.83526 14.9728 5.70708 14.9922C5.59196 15.01 5.62411 15.0176 5.87727 15.0346C6.04835 15.0461 6.34932 15.0554 6.54555 15.0554C6.95007 15.0554 7.40587 15.1087 7.49018 15.1652C7.51976 15.185 7.58964 15.2068 7.64954 15.2158L7.55421 13.6843C7.15955 13.6777 6.91457 13.6658 6.9052 13.6507C6.89534 13.63 6.86252 13.62 6.83467 13.6208V13.6225ZM7.29206 13.6281C7.18335 13.6281 7.13865 13.6344 7.19263 13.642C7.21926 13.6457 7.25607 13.6479 7.29206 13.6479C7.32879 13.6479 7.36363 13.6442 7.391 13.642C7.44572 13.6344 7.40077 13.6281 7.29206 13.6281ZM13.007 13.7105C12.7189 13.7141 12.4316 13.7197 12.1166 13.7327C11.5434 13.7571 11.0831 13.7703 10.7052 13.7734L10.715 13.9298C10.98 13.9334 10.9846 13.9354 10.8019 13.9604C10.7797 13.9641 10.7509 13.9668 10.7179 13.9692L10.8075 15.4075C11.0577 15.3853 11.6753 15.379 11.756 15.4038C11.8602 15.4385 12.3547 15.4542 13.3094 15.4529C13.9249 15.4493 14.4442 15.4708 14.9791 15.5138C15.8089 15.5801 16.3398 15.6474 15.8123 15.6195C15.5251 15.6046 14.9315 15.579 14.4991 15.5635C14.1128 15.5496 14.276 15.596 14.6934 15.619C14.9041 15.6305 15.1655 15.6519 15.2745 15.6665C15.3832 15.6812 15.6765 15.7012 15.9254 15.7113C16.1749 15.7216 16.5823 15.7423 16.8313 15.758C17.0805 15.7736 17.4369 15.7931 17.6238 15.8006C17.8107 15.8079 18.0788 15.8312 18.2199 15.8519C18.3288 15.868 18.3995 15.875 18.4603 15.8733C18.521 15.8697 18.5728 15.8609 18.6445 15.8398C18.7976 15.795 18.8018 15.7907 18.6854 15.7894C18.5222 15.7858 18.5208 15.7326 18.683 15.7002C18.7957 15.6777 18.7877 15.6731 18.6041 15.6544C18.4165 15.6356 18.1952 15.549 18.3109 15.5398C18.3375 15.5362 18.414 15.5325 18.4801 15.5293C18.6277 15.5208 18.8934 15.4195 18.8961 15.3709C18.8961 15.3511 18.9291 15.3283 18.9688 15.3199C19.0075 15.3111 18.9835 15.3033 18.9117 15.3021C18.8417 15.2984 18.7846 15.2855 18.7846 15.2681C18.7846 15.2506 18.8417 15.2249 18.9117 15.2104C19.0367 15.1844 19.0357 15.1834 18.8693 15.146L18.6999 15.1078L18.8412 15.0873C18.9553 15.0707 18.9248 15.0629 18.6852 15.0473C18.2375 15.0181 18.1097 14.9643 18.5367 14.9851C18.9661 15.0063 19.0685 14.9526 18.6852 14.9077C18.5375 14.8901 18.2232 14.8688 17.9871 14.8597C17.7509 14.8509 17.4844 14.8227 17.3941 14.7975L17.2309 14.7516L17.443 14.7618C17.5601 14.7675 17.6722 14.7806 17.6922 14.7918C17.7094 14.8023 17.8703 14.8116 18.0441 14.8133C18.2177 14.8169 18.4875 14.8265 18.6428 14.8403C18.9672 14.8695 19.0203 14.8588 18.8657 14.7978C18.7629 14.757 18.7708 14.7511 19.0111 14.6958C19.2552 14.6396 19.2599 14.6362 19.124 14.6129C19.0461 14.5992 18.9341 14.5869 18.8744 14.5855C18.8145 14.5818 18.7541 14.5633 18.7396 14.54C18.7174 14.5068 18.7616 14.5017 18.9327 14.5165C19.1247 14.5331 19.1344 14.5312 19.0111 14.5019C18.8923 14.4742 18.8848 14.4654 18.964 14.449C19.1109 14.4186 18.9664 14.3349 18.6975 14.2947C18.3676 14.2456 18.2467 14.1909 18.5102 14.2104C18.6241 14.2192 18.8279 14.2068 18.9635 14.186L19.2093 14.1461L19.0581 14.1081C18.9745 14.0873 18.9188 14.0531 18.9341 14.032C18.9708 13.9826 18.7709 13.9566 18.2268 13.939C17.9887 13.9315 17.7043 13.9124 17.5956 13.8965C17.4403 13.8743 17.4772 13.8716 17.7658 13.8853C17.968 13.8948 18.1171 13.8934 18.0968 13.8816C18.0771 13.8697 17.7326 13.8564 17.3328 13.852C16.9327 13.8481 16.6942 13.8557 16.8031 13.8657L17.0013 13.8869L16.8031 13.8906C16.6942 13.8942 16.4138 13.8735 16.1806 13.85L15.756 13.8071L16.1806 13.8246C16.7752 13.8483 16.6593 13.8183 15.9887 13.7756C15.529 13.746 15.4206 13.7467 15.3809 13.7802C15.3545 13.8024 15.3323 13.8072 15.3323 13.7907C15.3323 13.7739 15.2101 13.7586 15.0622 13.7564C14.9148 13.7528 14.3917 13.7396 13.9002 13.7242C13.5836 13.714 13.2957 13.7103 13.0078 13.7118L13.007 13.7105ZM15.0147 13.7156V13.7157C14.9487 13.7194 14.9352 13.7243 14.9818 13.734C15.004 13.7379 15.0244 13.7399 15.0441 13.7399C15.0614 13.7399 15.0807 13.7362 15.0901 13.7316C15.1098 13.7221 15.0729 13.714 15.0159 13.7155L15.0147 13.7156ZM15.5858 13.7803C15.6789 13.7767 15.7241 13.7862 15.6857 13.7942C15.6659 13.7986 15.6378 13.8008 15.6072 13.8008C15.5779 13.8008 15.5433 13.7972 15.5159 13.7952C15.4607 13.7872 15.4938 13.7813 15.5858 13.7801V13.7803ZM13.1609 13.8194C13.2425 13.8231 13.2928 13.8287 13.2928 13.8431C13.2928 13.8555 13.1465 13.8645 12.9673 13.8618C12.6858 13.8582 12.6686 13.855 12.84 13.8374C12.9662 13.8243 13.0795 13.8187 13.1609 13.8196V13.8194ZM17.1989 13.8967C17.2923 13.8967 17.3686 13.9081 17.3686 13.9219C17.3686 13.9321 17.3255 13.9385 17.2646 13.9368C17.2424 13.9368 17.2223 13.9331 17.1989 13.9331C17.1057 13.9258 17.029 13.9146 17.029 13.9079C17.029 13.9016 17.1057 13.8964 17.1989 13.8964V13.8967ZM11.2124 13.9277C11.3154 13.9277 11.3233 13.9341 11.255 13.958C11.1998 13.9766 11.1574 13.9865 11.1286 13.9865C11.0993 13.9865 11.085 13.977 11.085 13.958C11.085 13.9415 11.1421 13.9277 11.2124 13.9277ZM17.9584 13.9602C18.0183 13.9566 18.0515 13.9666 18.0326 13.9763C18.0227 13.9812 18.0061 13.9846 17.9866 13.9846C17.9669 13.9846 17.9447 13.981 17.9242 13.979C17.8789 13.9695 17.8911 13.9619 17.9575 13.9607L17.9584 13.9602ZM12.1703 13.9961C12.3566 13.9997 12.3969 14.0041 12.3116 14.0188C12.175 14.0419 11.776 14.059 11.4871 14.0615H11.3662C11.2555 14.0579 11.1775 14.0559 11.1676 14.0476C11.1299 14.0147 11.2991 14.0036 11.9341 13.9971C12.0297 13.9935 12.1079 13.9935 12.1703 13.9935V13.9961ZM18.3311 13.9997C18.4713 13.9997 18.6494 14.0102 18.7271 14.0234L18.8691 14.0475L18.7271 14.0512C18.6494 14.0512 18.4713 14.0407 18.3311 14.0275L18.0764 14.0031L18.3311 13.9997ZM9.73814 14.0838C9.7406 14.0875 9.74067 14.0901 9.7456 14.0999C9.74806 14.1194 9.75306 14.1446 9.75306 14.17C9.75306 14.1955 9.75053 14.2207 9.7456 14.24C9.7382 14.2786 9.73067 14.2473 9.73067 14.17C9.73067 14.1122 9.73315 14.08 9.74054 14.0839L9.73814 14.0838ZM5.12908 14.1669L5.13173 14.1706V14.1669H5.12908ZM6.10669 14.174C6.17078 14.174 6.20729 14.1874 6.18806 14.2047C6.16834 14.2215 6.11641 14.235 6.07154 14.235C6.02668 14.235 5.99018 14.2213 5.99018 14.2047C5.99018 14.1878 6.0426 14.174 6.10669 14.174ZM0.124255 14.2408C0.12179 14.2408 0.11685 14.2444 0.114385 14.2444V14.2408C0.11192 14.2408 0.10698 14.2444 0.104515 14.2444C0.09712 14.2481 0.277794 14.9431 0.29012 14.9395C0.29998 14.9359 0.287845 14.9395 0.128107 14.2395L0.124255 14.2408ZM6.0624 14.3364C6.05254 14.3401 6.03616 14.3408 6.02581 14.3462C6.00362 14.3574 5.98801 14.3809 5.98801 14.3982C5.98801 14.4077 5.99542 14.4128 6.00775 14.4111C6.01761 14.4111 6.0374 14.4043 6.05638 14.3933C6.09409 14.3736 6.11019 14.3501 6.09441 14.3414C6.08702 14.3375 6.07475 14.3351 6.06119 14.3358L6.0624 14.3364ZM17.3123 14.4536C17.3902 14.4536 17.4218 14.4604 17.3826 14.4687C17.3653 14.4731 17.3377 14.4751 17.3123 14.4751C17.2857 14.4751 17.2608 14.4714 17.2413 14.4687C17.2023 14.46 17.2339 14.4536 17.3123 14.4536ZM17.6151 14.4931C17.6373 14.4895 17.6976 14.4968 17.7933 14.5005C17.9488 14.51 18.0872 14.5236 18.1 14.5293C18.1098 14.5357 18.0926 14.5376 18.0571 14.5396H18.015C17.9107 14.5359 17.7402 14.5254 17.6517 14.5093C17.6041 14.5005 17.592 14.4953 17.6147 14.4941L17.6151 14.4931ZM22.417 14.606C22.4096 14.6023 22.4244 14.6097 22.2114 15.2069C22.2114 15.2069 22.2137 15.2069 22.2187 15.2105V15.2069C22.2211 15.2069 22.2212 15.2105 22.2261 15.2105C22.2286 15.2142 22.4261 14.6072 22.4173 14.6047L22.417 14.606ZM17.4818 14.6698C17.6223 14.6698 17.8127 14.6803 17.9064 14.693C18.0583 14.7145 18.0495 14.7164 17.8219 14.7164C17.6817 14.7164 17.4905 14.7059 17.397 14.693C17.2449 14.6722 17.2542 14.6698 17.4818 14.6698V14.6698ZM5.36138 14.6735C5.35399 14.6771 5.35405 14.6771 5.35898 14.6791C5.35898 14.6754 5.35892 14.6754 5.36138 14.6735ZM8.19215 14.9172C8.18969 14.9135 8.18469 14.9369 8.18469 14.9772C8.18223 15.0362 8.19198 15.0691 8.19938 15.0506C8.20184 15.0411 8.20684 15.0246 8.20684 15.0051C8.20684 14.9856 8.20431 14.9636 8.19938 14.9433C8.19691 14.9267 8.19197 14.9178 8.18951 14.917L8.19215 14.9172ZM11.1982 14.976C11.3379 14.976 11.3958 14.9823 11.3258 14.9891C11.2925 14.9928 11.2445 14.9947 11.1982 14.9947C11.1518 14.9947 11.1061 14.9911 11.0711 14.9891C11.0011 14.9818 11.0611 14.976 11.1982 14.976ZM7.26341 15.1522C7.25601 15.1522 7.25353 15.1522 7.24367 15.1522C7.22888 15.1558 7.24136 15.1641 7.28869 15.1803C7.40948 15.2215 7.32187 15.2534 7.18999 15.2157C7.07363 15.1821 6.43597 15.1665 6.2427 15.1923C6.18058 15.2006 6.01512 15.2106 5.87535 15.2145C5.46244 15.2257 6.608 15.2671 7.50751 15.2733C7.55287 15.2733 7.60316 15.277 7.65123 15.277L7.64882 15.2388C7.6291 15.2425 7.61069 15.2425 7.58382 15.2425C7.48078 15.2461 7.41106 15.2337 7.42807 15.2188C7.44533 15.2039 7.42083 15.183 7.37029 15.1729C7.3205 15.1624 7.28319 15.1571 7.261 15.1558L7.26341 15.1522ZM14.1982 15.2473C14.2766 15.2473 14.3081 15.2543 14.2692 15.2629C14.2495 15.2668 14.2241 15.2692 14.1982 15.2692C14.1718 15.2692 14.1476 15.2656 14.1279 15.2629C14.0892 15.2543 14.1203 15.2473 14.1982 15.2473ZM6.26702 15.297C6.11443 15.297 5.96825 15.3006 5.87655 15.3065C5.71731 15.3177 5.86679 15.3255 6.27304 15.327C6.63122 15.3306 6.89871 15.3233 6.8674 15.3182C6.80898 15.307 6.62226 15.3001 6.42012 15.2974C6.36959 15.2938 6.31805 15.2938 6.26702 15.2938V15.297ZM7.2001 15.3184C7.05219 15.3184 6.9613 15.3221 6.97116 15.325C7.00049 15.3411 7.19155 15.3521 7.65893 15.3631L7.65652 15.3251C7.48841 15.3214 7.31915 15.3187 7.20058 15.3185L7.2001 15.3184ZM16.0458 15.3673C16.1259 15.3709 16.2761 15.3824 16.5374 15.4075C16.7804 15.4307 16.9969 15.46 17.0186 15.4725C17.0285 15.4788 17.0211 15.4823 16.9965 15.4835C16.9701 15.4871 16.9345 15.4798 16.8879 15.4779C16.7947 15.4684 16.5581 15.4508 16.3628 15.439C16.1676 15.4268 15.9942 15.4054 15.9777 15.3908C15.9604 15.373 15.9677 15.3648 16.046 15.3671L16.0458 15.3673ZM6.39629 15.3709L6.3987 15.3746C6.3987 15.3746 6.39876 15.3746 6.39629 15.3709ZM8.25571 15.4494C8.25817 15.4458 8.25824 15.4558 8.26317 15.4757C8.26564 15.5031 8.26558 15.5355 8.26558 15.566C8.26558 15.5963 8.26304 15.6252 8.25811 15.6439C8.25072 15.6818 8.24078 15.637 8.24078 15.5447C8.24078 15.487 8.24331 15.4531 8.24824 15.4493L8.25571 15.4494ZM17.3691 15.4925C17.4468 15.4888 17.5488 15.5042 17.5952 15.5202C17.6654 15.5446 17.6607 15.5494 17.5655 15.5483C17.5034 15.5447 17.4014 15.5349 17.3395 15.5202C17.2357 15.4963 17.2382 15.4939 17.3691 15.4925ZM9.86163 15.9236C9.8641 15.9236 9.86904 15.9272 9.8715 15.9321C9.88629 15.9487 9.90854 16.1205 9.92037 16.3136C9.93023 16.5069 9.95 16.7406 9.95937 16.833C9.96183 16.8793 9.96659 16.9169 9.96659 16.9405C9.96413 16.9639 9.96436 16.9734 9.95696 16.9627C9.9471 16.9415 9.91465 16.7274 9.89148 16.4866C9.84711 16.0339 9.83993 15.9184 9.86211 15.9234L9.86163 15.9236ZM13.7148 16.1708C13.7123 16.6993 13.6952 17.0419 13.678 17.0526C13.6363 17.0781 13.6382 17.1744 13.6804 17.1744C13.7001 17.1744 13.7066 17.2142 13.6951 17.2634C13.6729 17.3681 13.7407 18.3644 13.767 18.3172C13.7769 18.2997 13.787 18.2683 13.7894 18.2478C13.7919 18.2273 13.8067 18.0969 13.8193 17.9583L13.8455 17.7063L13.8677 18.0426C13.8824 18.2275 13.9009 18.5488 13.91 18.7567C13.9199 18.9646 13.9398 19.1348 13.9541 19.1348C13.9763 19.1348 14.0281 18.7568 14.0525 18.4066C14.0599 18.3177 14.0793 18.273 14.1079 18.2845C14.1449 18.2991 14.1459 18.2889 14.1151 18.2313C14.0584 18.1264 14.0684 18.077 14.1419 18.1107C14.1862 18.1319 14.1992 18.1707 14.1861 18.2454C14.1763 18.3077 14.1838 18.3506 14.2035 18.3506C14.2232 18.3506 14.2058 18.4001 14.1664 18.4607C14.1267 18.5213 14.1101 18.5728 14.1298 18.5728C14.1471 18.5728 14.1727 18.5432 14.1813 18.5048C14.1887 18.4663 14.2011 18.485 14.2011 18.5467C14.2035 18.6304 14.2157 18.6117 14.2492 18.4728C14.2756 18.3704 14.3059 18.3007 14.3212 18.3178C14.3619 18.363 14.3936 18.0109 14.3547 17.9298C14.3325 17.8819 14.3372 17.84 14.3717 17.7909C14.3981 17.7522 14.4187 17.649 14.4187 17.5613C14.4187 17.441 14.4284 17.4099 14.4656 17.4348C14.5026 17.46 14.5099 17.5252 14.4991 17.7106C14.4917 17.8443 14.4966 17.9671 14.509 17.9836C14.5262 18.0004 14.531 18.1083 14.5261 18.2241C14.5162 18.3808 14.5187 18.4132 14.5458 18.3506C14.5631 18.3045 14.579 18.1659 14.579 18.0426C14.579 17.9194 14.6011 17.7175 14.6257 17.5943L14.671 17.3702L14.6515 17.6784C14.6367 17.9183 14.6414 17.9678 14.671 17.9024C14.7003 17.8354 14.7041 17.8524 14.6859 17.9865C14.6711 18.105 14.6761 18.1374 14.6958 18.0962C14.7155 18.0641 14.7355 17.8522 14.7439 17.6258C14.7612 17.2578 14.7871 17.0262 14.7935 17.2349C14.8132 17.7989 14.853 17.9143 14.853 17.4041C14.853 17.1779 14.8628 17.0681 14.8862 17.0914C14.9059 17.1111 14.9156 17.2197 14.9156 17.3328C14.9131 17.544 14.9745 18.4163 14.9974 18.458C15.0048 18.4709 15.0123 18.395 15.0123 18.2898C15.0148 18.1167 15.0196 18.112 15.0388 18.2386C15.0585 18.3523 15.0654 18.3207 15.0819 18.0703C15.0918 17.901 15.1043 17.6034 15.1043 17.4089C15.1043 17.0087 15.1581 16.5575 15.2153 16.474C15.2375 16.4433 15.2603 16.3675 15.2682 16.3058C15.2756 16.2358 15.283 16.2634 15.288 16.3794C15.2904 16.4813 15.2805 16.5501 15.2613 16.5336C15.2465 16.5167 15.2244 16.5423 15.215 16.591C15.1884 16.7221 15.1929 16.7658 15.2249 16.6717C15.2666 16.5524 15.2987 16.6403 15.262 16.7694C15.2287 16.8842 15.212 17.5156 15.2398 17.7063C15.2472 17.7679 15.2595 17.9317 15.262 18.0703C15.2718 18.4788 15.315 17.345 15.3214 16.455C15.3214 16.3962 15.3238 16.3313 15.3238 16.2688L13.7148 16.1708ZM15.3662 16.2717C15.3588 16.6661 15.3564 17.0061 15.3662 16.9877C15.3859 16.9574 15.3956 16.7665 15.4055 16.2741L15.3662 16.2717ZM13.6616 16.5497C13.6591 16.5446 13.6541 16.5899 13.6541 16.6703C13.6541 16.778 13.6617 16.8222 13.6691 16.7683C13.6715 16.7413 13.6765 16.7058 13.6765 16.6703C13.6765 16.6349 13.674 16.5993 13.6691 16.5722C13.6666 16.5586 13.6666 16.5517 13.6666 16.5498L13.6616 16.5497ZM8.37752 16.9733C8.38491 16.9733 8.39464 17.049 8.40376 17.1414C8.40622 17.1645 8.40641 17.1865 8.40641 17.2066C8.40887 17.2669 8.40381 17.3095 8.39148 17.3095C8.37422 17.3095 8.365 17.2338 8.365 17.1414C8.365 17.049 8.36723 16.9733 8.37463 16.9733H8.37752ZM15.3602 17.0878C15.3602 17.0879 15.3602 17.0878 15.3602 17.0878V17.0877V17.0878ZM15.3602 17.0878L15.3575 17.0915C15.3354 17.2073 15.3282 17.8293 15.3477 18.0718C15.3575 18.2293 15.3676 18.0823 15.3701 17.6796C15.3725 17.3498 15.3675 17.0982 15.3626 17.0897L15.3602 17.0878ZM8.93553 17.1668C8.938 17.1705 8.93807 17.1732 8.943 17.1834C8.94546 17.2025 8.95046 17.2282 8.95046 17.2536C8.95046 17.279 8.94793 17.3044 8.943 17.3236C8.9356 17.3622 8.92807 17.3304 8.92807 17.2536C8.92807 17.196 8.93055 17.1638 8.93794 17.1672L8.93553 17.1668ZM9.97983 17.2089H9.98224C9.9847 17.2126 9.99206 17.2367 10.0044 17.2814C10.0216 17.343 10.031 17.4437 10.0338 17.5054C10.0362 17.5978 10.0313 17.6028 10.0044 17.5335C9.98467 17.4873 9.97454 17.3865 9.97454 17.3094C9.97454 17.2454 9.97694 17.2128 9.97694 17.209L9.97983 17.2089ZM9.15003 17.2363C9.15249 17.2363 9.15744 17.2717 9.16977 17.337C9.17963 17.4295 9.19191 17.6185 9.19191 17.7572C9.19191 17.9826 9.18949 17.9916 9.16977 17.8413C9.15991 17.7488 9.14762 17.56 9.14762 17.4212C9.14762 17.2952 9.14991 17.2368 9.15484 17.2363H9.15003ZM21.4746 17.3951C21.4844 17.4014 21.3649 17.5982 21.1132 17.9866C20.7624 18.5267 20.7148 18.538 20.6628 18.5575C20.6801 18.5399 20.6924 18.5231 20.7037 18.5058C20.684 18.4902 20.6816 18.488 21.061 17.9504C21.326 17.5741 21.4647 17.389 21.4746 17.3951V17.3951ZM8.96827 17.5415C8.97074 17.5415 8.97568 17.5581 8.97814 17.5892C8.99294 17.6766 9.00775 17.8455 9.00775 17.9488V17.9903C9.00529 18.0265 9.00528 18.045 8.99788 18.0326C8.99049 18.0196 8.97814 17.8833 8.96803 17.7293C8.96064 17.6113 8.9607 17.5491 8.96563 17.5422C8.96563 17.5385 8.96557 17.5385 8.96803 17.5385L8.96827 17.5415ZM3.55084 17.6481C3.5607 17.6649 3.57732 17.6817 3.58767 17.6983C3.59013 17.6946 3.59525 17.6936 3.59032 17.6946C3.58785 17.6982 3.95091 18.2004 4.05469 18.3577C4.43579 18.8526 4.02799 18.3789 4.03736 18.3706C3.66316 17.9079 3.554 17.6807 3.54217 17.6513L3.55084 17.6481ZM15.4141 17.6518C15.4166 17.6557 15.4215 17.6586 15.4165 17.6557C15.4141 17.652 15.4141 17.652 15.4141 17.6518ZM14.2266 17.7598C14.2291 17.7598 14.2291 17.7635 14.2341 17.7649C14.2513 17.784 14.2634 17.8356 14.2634 17.8801C14.2634 17.9245 14.2486 17.9609 14.2341 17.9609C14.2143 17.9609 14.2042 17.9091 14.2042 17.8457C14.2042 17.79 14.2142 17.7555 14.2309 17.7604L14.2266 17.7598ZM8.43866 17.835C8.44113 17.835 8.44607 17.845 8.44853 17.8609C8.451 17.8814 8.45576 17.9034 8.45576 17.9228C8.45576 17.9423 8.45346 17.959 8.44853 17.9682C8.43867 17.9865 8.43114 17.9536 8.43361 17.8948C8.43607 17.8541 8.43614 17.8337 8.44107 17.8349L8.43866 17.835ZM14.3814 17.8508C14.3789 17.8508 14.3742 17.8545 14.3742 17.8572C14.3668 17.8728 14.3667 17.9028 14.3766 17.9233C14.3864 17.9438 14.4098 17.9606 14.4288 17.9606C14.4387 17.9606 14.4435 17.9542 14.4435 17.9427C14.4435 17.9313 14.4361 17.9146 14.4237 17.8945C14.409 17.8664 14.3908 17.8506 14.3804 17.8511L14.3814 17.8508ZM8.469 18.0118L8.49548 18.2637C8.51027 18.4023 8.51762 18.579 8.51762 18.656L8.51522 18.796L8.48874 18.656C8.47395 18.579 8.46226 18.4023 8.46226 18.2637L8.469 18.0118ZM14.71 18.3803C14.7075 18.3803 14.7076 18.3839 14.7076 18.3869C14.71 18.3832 14.7101 18.3832 14.715 18.3832C14.7126 18.3796 14.7126 18.3796 14.7126 18.3796L14.71 18.3803ZM19.7418 18.7193C19.7442 18.7193 19.7442 18.7193 19.7442 18.7193C19.7442 18.7193 19.7739 18.7463 19.3267 19.1919C19.3267 19.1919 18.8598 19.6171 18.8036 19.6491C18.8012 19.6454 18.8011 19.6442 18.7962 19.6417C18.7814 19.6554 18.7626 19.6695 18.7483 19.6833C18.7458 19.677 18.7509 19.687 19.2018 19.2463C19.6241 18.8351 19.7216 18.7237 19.7401 18.7186L19.7418 18.7193ZM14.1948 18.8091V18.8128L14.1972 18.8091H14.1948ZM4.69191 19.1373C4.68944 19.141 5.14749 19.5713 5.14256 19.5769C5.14256 19.5769 5.12042 19.6006 4.67843 19.1514C4.68089 19.1477 4.68072 19.1467 4.68565 19.1445C4.68811 19.1409 4.68818 19.1389 4.69311 19.1372L4.69191 19.1373ZM20.1127 19.7978C20.1349 19.8015 20.0544 19.9076 19.7374 20.2239C19.31 20.6501 18.752 21.1121 18.1512 21.4876C18.1488 21.4839 18.144 21.4754 18.1366 21.4642L18.1342 21.4678C17.9833 21.5674 17.8301 21.6638 17.6751 21.7567V21.7565C17.6554 21.728 18.2008 21.3038 18.6736 20.9197C19.3338 20.3879 19.3055 20.3509 19.4216 20.3305C19.429 20.3388 19.4678 20.3825 19.9618 19.9093C20.0357 19.8444 20.101 19.7962 20.1171 19.7975L20.1127 19.7978ZM19.5655 20.0949C19.568 20.0949 19.568 20.0949 19.568 20.0949C19.5753 20.1022 19.0715 20.5553 18.8588 20.7231C18.4979 21.0076 18.3053 21.1335 18.2143 21.1913C18.2944 21.1352 18.4657 21.008 18.8438 20.7045C19.3857 20.2658 19.5392 20.1046 19.5643 20.0949H19.5655ZM17.1476 20.6731C17.1501 20.6731 17.1499 20.6768 17.1549 20.6768L17.1722 20.7071C16.9723 20.8167 16.7694 20.9199 16.5641 21.0163C16.0144 21.2886 15.9341 21.2662 15.9336 21.2669L15.9264 21.249C16.1332 21.1621 16.3372 21.0682 16.5388 20.9678C17.0173 20.7226 17.1215 20.6711 17.1476 20.6733V20.6731ZM17.4777 21.4812C17.4999 21.4775 17.4949 21.4961 17.4603 21.5399C17.505 21.6135 16.945 21.9926 16.1317 22.3324C16.1317 22.3324 15.4997 22.5659 15.4943 22.5514C15.5783 22.5211 15.6625 22.4901 15.7463 22.458V22.458L15.7389 22.4421C15.729 22.4125 16.3282 22.1086 16.8496 21.8173C17.2324 21.6074 17.4281 21.4892 17.4779 21.4809L17.4777 21.4812ZM7.10404 22.7568C7.18416 22.7972 7.25347 22.8316 7.31806 22.8631C7.28502 22.848 7.27102 22.8414 7.2338 22.8239C7.2338 22.8239 7.17331 22.7921 7.10404 22.7568ZM10.4618 23.7933C10.4692 23.7876 11.1839 23.8658 11.4736 23.8795C11.6821 23.8897 11.8622 23.8941 12.0017 23.8956C12.3506 23.8919 12.4974 23.8871 12.4976 23.8919C12.4976 23.8975 12.2616 23.9146 12.0017 23.9197C11.7947 23.9197 11.6089 23.9139 11.4724 23.9061C10.7521 23.866 10.4704 23.7896 10.4618 23.7924V23.7933Z" fill="black"/>
</svg>
