<svg width="24" height="24" viewBox="0 0 24 24" fill="none" xmlns="http://www.w3.org/2000/svg">
<path fill-rule="evenodd" clip-rule="evenodd" d="M24 12C24 18.6274 18.6274 24 12 24C5.37258 24 0 18.6274 0 12C0 5.37258 5.37258 0 12 0C18.6274 0 24 5.37258 24 12ZM7.14702 13.9064L11.817 3.32109C11.8872 3.16207 12.1128 3.16207 12.183 3.32109L16.8531 13.9064C18.2434 18.1268 14.8568 20.9553 12.2024 21.0937C12.1429 20.9157 12.0729 20.7434 11.9983 20.576C11.9838 20.5435 11.9692 20.5111 11.9545 20.4789C11.914 20.3897 11.8732 20.3024 11.8329 20.216C11.7423 20.0219 11.654 19.8329 11.5768 19.6398C11.4675 19.3646 11.3816 19.0929 11.3558 18.8187C11.3264 18.5229 11.3718 18.2231 11.4773 17.9534C11.5064 17.8784 11.541 17.8056 11.5781 17.734C12.2591 17.397 12.9005 16.9042 13.4412 16.3022C14.0265 15.6447 14.4696 14.884 14.7208 14.1052C13.9753 14.4429 13.2696 14.9692 12.6823 15.6253C12.1725 16.1992 11.7697 16.8527 11.5088 17.5297C11.465 17.5841 11.423 17.6409 11.3832 17.7003C11.3245 17.3339 11.1896 16.9638 10.9907 16.6235C10.7676 16.2458 10.474 15.9199 10.1426 15.6823C10.1895 16.0874 10.332 16.5024 10.5541 16.8808C10.7621 17.2327 11.0317 17.5401 11.3365 17.7729C11.3185 17.8021 11.3009 17.8317 11.284 17.8621C11.1275 18.1465 11.0369 18.4828 11.0419 18.8354C11.0477 19.1564 11.1222 19.4703 11.2291 19.7704C11.3234 20.0376 11.4374 20.2903 11.5504 20.5406C11.5655 20.5741 11.5806 20.6076 11.5957 20.641C11.6099 20.6728 11.6241 20.7045 11.6381 20.7362C11.6914 20.8562 11.7427 20.9749 11.7893 21.0934C9.13608 20.9493 5.75823 18.1223 7.14702 13.9064Z" fill="#27282C"/>
</svg>
