<svg width="22" height="22" viewBox="0 0 22 22" fill="none" xmlns="http://www.w3.org/2000/svg">
<path fill-rule="evenodd" clip-rule="evenodd" d="M22 11C22 17.0751 17.0751 22 11 22C4.92486 22 0 17.0751 0 11C0 4.92487 4.92486 0 11 0C17.0751 0 22 4.92487 22 11ZM6.55144 12.7475L10.817 3.0789C10.8872 2.91987 11.1128 2.91987 11.183 3.0789L15.4487 12.7475C16.7231 16.6163 13.6187 19.209 11.1855 19.3359C11.131 19.1727 11.0668 19.0148 10.9984 18.8613C10.9851 18.8315 10.9717 18.8018 10.9582 18.7723C10.9211 18.6906 10.8838 18.6105 10.8468 18.5314C10.7637 18.3534 10.6829 18.1802 10.612 18.0032C10.5119 17.7509 10.4332 17.5018 10.4095 17.2505C10.3825 16.9793 10.4241 16.7045 10.5208 16.4573C10.5475 16.3885 10.5793 16.3218 10.6132 16.2561C11.2375 15.9473 11.8254 15.4955 12.3211 14.9437C12.8576 14.341 13.2638 13.6437 13.4941 12.9298C12.8107 13.2393 12.1638 13.7217 11.6255 14.3232C11.1581 14.8493 10.7889 15.4483 10.5497 16.0689C10.5096 16.1187 10.4711 16.1708 10.4346 16.2252C10.3808 15.8894 10.2572 15.5501 10.0748 15.2382C9.87034 14.892 9.60118 14.5933 9.29736 14.3754C9.34038 14.7468 9.47099 15.1272 9.67461 15.4741C9.86528 15.7967 10.1124 16.0784 10.3918 16.2918C10.3753 16.3186 10.3591 16.3457 10.3436 16.3736C10.2002 16.6343 10.1172 16.9425 10.1217 17.2658C10.127 17.5601 10.1954 17.8478 10.2934 18.1229C10.3798 18.3678 10.4843 18.5994 10.5879 18.8289C10.6017 18.8596 10.6156 18.8903 10.6294 18.9209C10.6424 18.9501 10.6554 18.9791 10.6683 19.0082C10.7171 19.1182 10.7642 19.227 10.8068 19.3356C8.37474 19.2035 5.27838 16.6121 6.55144 12.7475Z" fill="#27282C"/>
</svg>
