<svg width="24" height="22" viewBox="0 0 24 22" fill="none" xmlns="http://www.w3.org/2000/svg">
<path d="M21.4492 6.50265C21.4007 6.44908 21.3491 6.39551 21.2976 6.34509C21.246 6.29467 21.1975 6.23795 21.1459 6.18753C21.0943 6.13711 21.0458 6.08039 20.9943 6.02997C20.9427 5.97955 20.8942 5.92282 20.8426 5.87241C20.791 5.82199 20.7425 5.76526 20.6909 5.71484C20.6394 5.66442 20.5909 5.6077 20.5393 5.55728C20.4877 5.50686 20.4392 5.45014 20.3876 5.39972C21.8921 6.93586 22.754 9.02562 22.7868 11.2169C22.7868 16.4385 17.6852 20.6864 11.4128 20.6864C7.9005 20.6864 4.75824 19.3534 2.66846 17.2641L2.82011 17.4217L2.97176 17.5793L3.12342 17.7368L3.27507 17.8944L3.42672 18.0519L3.57838 18.2095L3.73003 18.3671C5.81678 20.5446 9.0288 21.9469 12.626 21.9469C18.8984 21.9469 24 17.699 24 12.4932C24 10.2684 23.078 8.16021 21.4492 6.50265Z" fill="black"/>
<path d="M22.0283 11.2169C22.0283 16.0099 17.2755 19.8954 11.4126 19.8954C5.54969 19.8954 0.796875 16.0099 0.796875 11.2169C0.796875 8.24529 2.61672 5.6203 5.4132 4.06359C8.20969 2.50688 9.95067 0.912354 11.4126 0.912354C12.8745 0.912354 14.1242 2.21382 17.412 4.06359C20.2085 5.6203 22.0283 8.24529 22.0283 11.2169Z" fill="#FBF0DF"/>
<path d="M22.0285 11.2169C22.027 10.6012 21.9454 9.98847 21.7859 9.39548C20.9578 19.8891 8.63751 20.3933 3.7937 17.2547C5.97115 19.0081 8.65816 19.9394 11.4128 19.8954C17.2666 19.8954 22.0285 16.0036 22.0285 11.2169Z" fill="#F6DECE"/>
<path d="M7.32707 3.48692C8.68285 2.64238 10.4845 1.05731 12.2558 1.05416C11.9833 0.962647 11.699 0.914829 11.4126 0.912354C10.6786 0.912354 9.89608 1.30626 8.91033 1.89869C8.56759 2.10667 8.21272 2.33671 7.83662 2.57621C7.12992 3.02999 6.32009 3.54364 5.41017 4.05729C2.52269 5.68018 0.796875 8.35558 0.796875 11.2169C0.796875 11.343 0.796875 11.469 0.796875 11.5919C2.63491 4.8451 5.97432 4.33145 7.32707 3.48692Z" fill="#FFFEFC"/>
<path fill-rule="evenodd" clip-rule="evenodd" d="M10.5391 1.70964C10.5434 2.45372 10.393 3.18998 10.0983 3.86816C9.80359 4.54633 9.37149 5.15044 8.8315 5.63924C8.74657 5.71802 8.8133 5.86928 8.92249 5.82516C9.94464 5.41235 11.3247 4.17706 10.7423 1.68443C10.7181 1.54262 10.5391 1.58044 10.5391 1.70964ZM11.2276 1.70964C11.5987 2.33876 11.8345 3.04382 11.9188 3.77649C12.0031 4.50915 11.9339 5.25209 11.7159 5.95436C11.6795 6.06465 11.81 6.15919 11.8828 6.0678C12.547 5.18546 13.1263 3.43337 11.3914 1.54262C11.3034 1.46069 11.167 1.58674 11.2276 1.69703V1.70964ZM12.0647 1.65607C12.6459 2.08355 13.1321 2.63555 13.4905 3.27483C13.8489 3.91411 14.0712 4.62581 14.1424 5.36193C14.1393 5.38845 14.1462 5.41519 14.1616 5.43659C14.177 5.45799 14.1997 5.47242 14.2251 5.47688C14.2504 5.48134 14.2765 5.47548 14.2978 5.46054C14.3191 5.44559 14.334 5.42269 14.3396 5.39659C14.6186 4.29681 14.4609 2.42182 12.1648 1.44809C12.0435 1.39767 11.9647 1.56783 12.0647 1.64346V1.65607ZM6.46571 4.93336C7.15702 4.71878 7.79709 4.35533 8.34424 3.86668C8.89139 3.37803 9.33334 2.77513 9.64133 2.09724C9.69592 1.9838 9.86881 2.02791 9.84151 2.15396C9.31679 4.67496 7.56065 5.20121 6.46874 5.13189C6.35348 5.13504 6.35652 4.96802 6.46571 4.93336Z" fill="#CCBEA7"/>
<path d="M11.4128 20.6864C5.14044 20.6864 0.0388184 16.4385 0.0388184 11.2169C0.0388184 8.06566 1.91325 5.12556 5.05248 3.36402C5.9624 2.85982 6.7419 2.35247 7.43647 1.90814C7.81864 1.66235 8.17957 1.43231 8.52837 1.21802C9.59298 0.562564 10.5029 0.124542 11.4128 0.124542C12.3227 0.124542 13.1174 0.502691 14.1123 1.11403C14.4156 1.29365 14.7189 1.48903 15.0434 1.70331C15.7986 2.1886 16.6509 2.73692 17.7732 3.36402C20.9124 5.12556 22.7868 8.06251 22.7868 11.2169C22.7868 16.4385 17.6852 20.6864 11.4128 20.6864ZM11.4128 0.912352C10.6788 0.912352 9.89629 1.30626 8.91054 1.89869C8.5678 2.10667 8.21294 2.33671 7.83683 2.57621C7.13013 3.02998 6.3203 3.54364 5.41038 4.05729C2.5229 5.68018 0.797085 8.35558 0.797085 11.2169C0.797085 16.0036 5.559 19.8986 11.4128 19.8986C17.2666 19.8986 22.0286 16.0036 22.0286 11.2169C22.0286 8.35558 20.3027 5.68018 17.4122 4.06359C16.2657 3.43334 15.371 2.84091 14.6461 2.37453C14.3155 2.16339 14.0122 1.96802 13.7362 1.7947C12.8171 1.22748 12.1468 0.912352 11.4128 0.912352Z" fill="black"/>
<path d="M13.5507 13.5173C13.4145 14.0971 13.1043 14.6169 12.6651 15.0015C12.3353 15.3337 11.9084 15.5421 11.4518 15.594C10.9816 15.5503 10.5397 15.3413 10.1992 15.0015C9.76441 14.6151 9.45862 14.0955 9.32565 13.5173C9.32124 13.483 9.32445 13.4481 9.33504 13.4152C9.34563 13.3824 9.36331 13.3525 9.38674 13.3279C9.41016 13.3032 9.4387 13.2845 9.47017 13.2731C9.50164 13.2617 9.5352 13.2579 9.56829 13.262H13.3111C13.344 13.2584 13.3772 13.2626 13.4083 13.2742C13.4393 13.2859 13.4675 13.3047 13.4905 13.3292C13.5136 13.3538 13.531 13.3835 13.5414 13.4161C13.5519 13.4487 13.555 13.4833 13.5507 13.5173Z" fill="#B71422"/>
<path d="M10.1993 15.0267C10.5391 15.3667 10.9794 15.5777 11.4489 15.6255C11.9174 15.577 12.3565 15.3661 12.6955 15.0267C12.804 14.9217 12.9053 14.8091 12.9988 14.6895C12.812 14.4693 12.5837 14.2911 12.3282 14.1659C12.0726 14.0408 11.795 13.9712 11.5126 13.9616C11.2104 13.969 10.9145 14.0527 10.6503 14.2053C10.3862 14.3579 10.1616 14.5749 9.99609 14.8377C10.0659 14.9038 10.1265 14.9669 10.1993 15.0267Z" fill="#FF6164"/>
<path d="M10.2477 14.7778C10.3981 14.5758 10.5906 14.4119 10.8107 14.2984C11.0308 14.1849 11.2729 14.1247 11.5186 14.1223C11.9728 14.1362 12.4056 14.3262 12.7318 14.6549C12.8016 14.5761 12.8683 14.4942 12.932 14.4122C12.5461 14.0304 12.0362 13.8133 11.5034 13.804C11.2187 13.8066 10.9381 13.8746 10.6816 14.0032C10.4252 14.1318 10.1993 14.3177 10.0203 14.5477C10.092 14.6287 10.1679 14.7055 10.2477 14.7778Z" fill="black"/>
<path d="M11.44 15.783C10.9346 15.737 10.4589 15.5149 10.0903 15.1528C9.62076 14.7402 9.29029 14.1827 9.14698 13.5614C9.1367 13.5061 9.13845 13.4491 9.15209 13.3946C9.16574 13.3401 9.19093 13.2894 9.22584 13.2463C9.26741 13.1941 9.31989 13.1525 9.37929 13.1247C9.43869 13.0968 9.50344 13.0835 9.56858 13.0856H13.3114C13.3764 13.0842 13.441 13.0978 13.5002 13.1256C13.5595 13.1535 13.6121 13.1947 13.6541 13.2463C13.6887 13.2895 13.7134 13.3403 13.7266 13.3949C13.7397 13.4494 13.7409 13.5063 13.7299 13.5614C13.5866 14.1827 13.2562 14.7402 12.7867 15.1528C12.4188 15.5143 11.9443 15.7363 11.44 15.783ZM9.56858 13.4511C9.52005 13.4511 9.50791 13.4732 9.50488 13.4795C9.63309 14.0182 9.92311 14.5006 10.3329 14.8566C10.6326 15.1633 11.0222 15.3574 11.44 15.408C11.8567 15.3579 12.2459 15.1663 12.547 14.8629C12.9556 14.5063 13.2445 14.024 13.372 13.4858C13.3654 13.4757 13.3563 13.4677 13.3456 13.4627C13.3349 13.4577 13.323 13.4559 13.3114 13.4574L9.56858 13.4511Z" fill="black"/>
<path d="M16.0292 13.7127C17.0092 13.7127 17.8036 13.2273 17.8036 12.6286C17.8036 12.03 17.0092 11.5446 16.0292 11.5446C15.0493 11.5446 14.2549 12.03 14.2549 12.6286C14.2549 13.2273 15.0493 13.7127 16.0292 13.7127Z" fill="#FEBBD0"/>
<path d="M6.84808 13.7127C7.82802 13.7127 8.62242 13.2273 8.62242 12.6286C8.62242 12.03 7.82802 11.5446 6.84808 11.5446C5.86813 11.5446 5.07373 12.03 5.07373 12.6286C5.07373 13.2273 5.86813 13.7127 6.84808 13.7127Z" fill="#FEBBD0"/>
<path fill-rule="evenodd" clip-rule="evenodd" d="M7.6821 12.1938C8.01277 12.1944 8.33618 12.0931 8.61141 11.9027C8.88664 11.7123 9.10131 11.4413 9.22827 11.1241C9.35523 10.8069 9.38875 10.4577 9.32461 10.1207C9.26047 9.78363 9.10154 9.47395 8.86794 9.23081C8.63434 8.98766 8.33656 8.82198 8.01229 8.75473C7.68802 8.68747 7.35184 8.72167 7.04629 8.853C6.74074 8.98433 6.47955 9.20687 6.29578 9.49248C6.11201 9.77809 6.01392 10.1139 6.01392 10.4575C6.01392 10.9174 6.18957 11.3586 6.50233 11.6841C6.81509 12.0097 7.23939 12.193 7.6821 12.1938ZM15.195 12.1938C15.5261 12.1963 15.8504 12.0966 16.1268 11.9073C16.4032 11.718 16.6193 11.4478 16.7476 11.1307C16.876 10.8137 16.9108 10.4642 16.8477 10.1265C16.7846 9.78887 16.6264 9.47831 16.3932 9.23422C16.1599 8.99012 15.8622 8.8235 15.5377 8.75547C15.2132 8.68745 14.8765 8.72109 14.5704 8.85213C14.2643 8.98317 14.0026 9.2057 13.8184 9.49151C13.6343 9.77731 13.5359 10.1135 13.5359 10.4575C13.5351 10.916 13.7093 11.3563 14.0202 11.6817C14.3312 12.0072 14.7536 12.1913 15.195 12.1938Z" fill="black"/>
<path fill-rule="evenodd" clip-rule="evenodd" d="M7.16656 10.5678C7.29086 10.5684 7.41255 10.5307 7.51619 10.4594C7.61984 10.3881 7.70079 10.2864 7.74877 10.1673C7.79676 10.0481 7.80962 9.91688 7.78574 9.79014C7.76186 9.66339 7.7023 9.54687 7.61462 9.45533C7.52694 9.36379 7.41507 9.30135 7.2932 9.27592C7.17133 9.25049 7.04493 9.26323 6.93003 9.3125C6.81513 9.36178 6.7169 9.44539 6.64777 9.55272C6.57865 9.66006 6.54175 9.7863 6.54175 9.91545C6.54175 10.0879 6.60748 10.2534 6.72457 10.3756C6.84165 10.4978 7.00057 10.5669 7.16656 10.5678ZM14.6795 10.5678C14.8038 10.5684 14.9255 10.5307 15.0291 10.4594C15.1327 10.3881 15.2137 10.2864 15.2617 10.1673C15.3097 10.0481 15.3225 9.91688 15.2986 9.79014C15.2748 9.66339 15.2152 9.54687 15.1275 9.45533C15.0398 9.36379 14.928 9.30135 14.8061 9.27592C14.6842 9.25049 14.5578 9.26323 14.4429 9.3125C14.328 9.36178 14.2298 9.44539 14.1607 9.55272C14.0916 9.66006 14.0547 9.7863 14.0547 9.91545C14.0546 10.0868 14.1195 10.2513 14.2353 10.3734C14.3511 10.4955 14.5085 10.5653 14.6734 10.5678H14.6795Z" fill="white"/>
</svg>
