<svg width="21" height="24" viewBox="0 0 21 24" fill="none" xmlns="http://www.w3.org/2000/svg">
<path d="M20.9999 0.300018L19.1467 21.1152L10.8161 23.4306L2.50854 21.1184L0.657227 0.300018H20.9999Z" fill="#264DE4"/>
<path d="M17.5601 19.7897L19.1438 2.00221H10.8286V21.6608L17.5601 19.7897Z" fill="#2965F1"/>
<path d="M4.90137 9.72346L5.12962 12.2767H10.8286V9.72346H4.90137Z" fill="#EBEBEB"/>
<path d="M10.8288 4.55553H10.82H4.44287L4.67438 7.10885H10.8288V4.55553Z" fill="#EBEBEB"/>
<path d="M10.8289 19.0111V16.3546L10.8177 16.3576L7.98145 15.5898L7.80013 13.5534H6.42193H5.24365L5.60044 17.5625L10.8172 19.0144L10.8289 19.0111Z" fill="#EBEBEB"/>
<path d="M13.9556 12.2767L13.6599 15.5881L10.8196 16.3568V19.0132L16.0404 17.5624L16.0787 17.1311L16.6772 10.4091L16.7393 9.72346L17.1991 4.55553H10.8196V7.10885H14.4081L14.1764 9.72346H10.8196V12.2767H13.9556Z" fill="white"/>
</svg>
