<svg width="23" height="24" viewBox="0 0 23 24" fill="none" xmlns="http://www.w3.org/2000/svg">
<path d="M7.69137 6.01951C7.9519 6.06704 8.20166 5.89435 8.24919 5.6338C8.29672 5.37327 8.12403 5.1235 7.86347 5.07597L7.69137 6.01951ZM1.70869 11.7296C1.84028 11.9595 2.13326 12.0391 2.36312 11.9076C2.59298 11.776 2.67264 11.483 2.54106 11.2531L1.70869 11.7296ZM4.04096 13.2775C3.86286 13.0815 3.55957 13.0669 3.36354 13.245C3.16751 13.4231 3.15299 13.7264 3.33109 13.9224L4.04096 13.2775ZM19.82 19.3436C20.0388 19.1942 20.095 18.8958 19.9456 18.6771C19.7962 18.4584 19.4979 18.4022 19.2792 18.5516L19.82 19.3436ZM7.86347 5.07597C6.37948 4.80527 4.99774 4.79235 3.84922 5.06968C2.69857 5.34756 1.74727 5.92755 1.20693 6.86496L2.03785 7.34395C2.40937 6.69943 3.09553 6.23837 4.07434 6.00201C5.05531 5.76511 6.29516 5.76482 7.69137 6.01951L7.86347 5.07597ZM1.20693 6.86496C0.40424 8.25744 0.733291 10.0256 1.70869 11.7296L2.54106 11.2531C1.63372 9.66806 1.48744 8.29879 2.03785 7.34395L1.20693 6.86496ZM3.33109 13.9224C4.55914 15.2741 6.17823 16.5783 8.07831 17.6771L8.55842 16.8468C6.73565 15.7927 5.19622 14.549 4.04096 13.2775L3.33109 13.9224ZM8.07831 17.6771C10.3418 18.986 12.6603 19.8044 14.7087 20.1018C16.7398 20.3967 18.5822 20.189 19.82 19.3436L19.2792 18.5516C18.3294 19.2002 16.7748 19.4326 14.8465 19.1526C12.9355 18.8752 10.7321 18.1037 8.55842 16.8468L8.07831 17.6771ZM22.0682 18.1161C22.0682 17.1906 21.3187 16.439 20.3929 16.439V17.3981C20.7878 17.3981 21.1091 17.7189 21.1091 18.1161H22.0682ZM20.3929 16.439C19.467 16.439 18.7177 17.1906 18.7177 18.1161H19.6768C19.6768 17.7189 19.9982 17.3981 20.3929 17.3981V16.439ZM18.7177 18.1161C18.7177 19.0417 19.467 19.7932 20.3929 19.7932V18.8341C19.9982 18.8341 19.6768 18.5134 19.6768 18.1161H18.7177ZM20.3929 19.7932C21.3187 19.7932 22.0682 19.0417 22.0682 18.1161H21.1091C21.1091 18.5134 20.7878 18.8341 20.3929 18.8341V19.7932Z" fill="#A2ECFB"/>
<path d="M18.3723 12.9141C18.2014 13.1164 18.2268 13.419 18.4291 13.5899C18.6313 13.7609 18.9339 13.7355 19.1049 13.5332L18.3723 12.9141ZM16.5127 4.88414C16.2479 4.88067 16.0304 5.09258 16.0269 5.3574C16.0235 5.62222 16.2354 5.83969 16.5002 5.84316L16.5127 4.88414ZM13.9641 6.12002C14.223 6.06447 14.3879 5.80948 14.3323 5.55052C14.2767 5.29159 14.0218 5.12671 13.7628 5.18228L13.9641 6.12002ZM0.805316 17.0496C0.843707 17.3117 1.08726 17.493 1.34934 17.4546C1.61139 17.4162 1.79268 17.1726 1.75429 16.9106L0.805316 17.0496ZM19.1049 13.5332C20.0765 12.3836 20.7748 11.1944 21.107 10.0624C21.4398 8.92837 21.4129 7.81632 20.8736 6.88101L20.0428 7.36C20.4136 8.00331 20.4698 8.82729 20.1867 9.79238C19.9029 10.7595 19.2864 11.8326 18.3723 12.9141L19.1049 13.5332ZM20.8736 6.88101C20.084 5.51091 18.4312 4.90913 16.5127 4.88414L16.5002 5.84316C18.2779 5.86631 19.5017 6.4212 20.0428 7.36L20.8736 6.88101ZM13.7628 5.18228C11.9647 5.56813 10.007 6.3246 8.08741 7.43465L8.56752 8.26491C10.4091 7.19999 12.2734 6.48282 13.9641 6.12002L13.7628 5.18228ZM8.08741 7.43465C5.75733 8.78202 3.84721 10.44 2.56367 12.1177C1.29241 13.7795 0.583045 15.5329 0.805316 17.0496L1.75429 16.9106C1.58719 15.7703 2.11758 14.2793 3.32543 12.7005C4.521 11.1378 6.32941 9.55913 8.56752 8.26491L8.08741 7.43465Z" fill="#A2ECFB"/>
<path d="M7.07503 18.7346C6.98586 18.4852 6.71139 18.3554 6.46203 18.4445C6.21264 18.5337 6.08276 18.8082 6.17193 19.0576L7.07503 18.7346ZM14.9293 21.1846C15.0655 20.9575 14.9919 20.663 14.7648 20.5267C14.5378 20.3904 14.2432 20.4639 14.1069 20.691L14.9293 21.1846ZM15.1975 18.1885C15.1185 18.4413 15.2594 18.7102 15.5122 18.7892C15.765 18.8682 16.0339 18.7273 16.1129 18.4745L15.1975 18.1885ZM12.4229 1.49765C12.181 1.39002 11.8975 1.49895 11.7899 1.74094C11.6823 1.98295 11.7912 2.26637 12.0332 2.37397L12.4229 1.49765ZM6.17193 19.0576C6.6799 20.4782 7.35932 21.6815 8.17285 22.5379C8.98784 23.3955 9.96442 23.9302 11.0449 23.9302V22.9711C10.3029 22.9711 9.56176 22.6071 8.86817 21.8771C8.17311 21.1456 7.55306 20.0716 7.07503 18.7346L6.17193 19.0576ZM11.0449 23.9302C12.613 23.9302 13.9511 22.8141 14.9293 21.1846L14.1069 20.691C13.2014 22.1995 12.1182 22.9711 11.0449 22.9711V23.9302ZM16.1129 18.4745C16.6512 16.7517 16.9593 14.726 16.9593 12.5638H16.0002C16.0002 14.6382 15.7042 16.5666 15.1975 18.1885L16.1129 18.4745ZM16.9593 12.5638C16.9593 9.91223 16.4959 7.46322 15.7105 5.52589C14.9323 3.60594 13.805 2.11227 12.4229 1.49765L12.0332 2.37397C13.0838 2.84119 14.0823 4.06225 14.8217 5.8862C15.554 7.69277 16.0002 10.0168 16.0002 12.5638H16.9593Z" fill="#A2ECFB"/>
<path fill-rule="evenodd" clip-rule="evenodd" d="M18.7175 18.1161C18.7175 17.1905 19.4668 16.439 20.3927 16.439C21.3188 16.439 22.068 17.1906 22.068 18.1161C22.068 19.0416 21.3188 19.7932 20.3927 19.7932C19.4668 19.7932 18.7175 19.0416 18.7175 18.1161ZM20.3927 17.3981C19.998 17.3981 19.6766 17.7188 19.6766 18.1161C19.6766 18.5133 19.998 18.8341 20.3927 18.8341C20.7876 18.8341 21.1089 18.5133 21.1089 18.1161C21.1089 17.7188 20.7876 17.3981 20.3927 17.3981Z" fill="#A2ECFB"/>
<path fill-rule="evenodd" clip-rule="evenodd" d="M0 18.1161C0 17.1905 0.749296 16.439 1.6752 16.439C2.60109 16.439 3.35043 17.1905 3.35043 18.1161C3.35043 19.0416 2.60109 19.7932 1.6752 19.7932C0.749296 19.7932 0 19.0416 0 18.1161ZM1.6752 17.3981C1.28042 17.3981 0.959099 17.7188 0.959099 18.1161C0.959099 18.5133 1.28042 18.8341 1.6752 18.8341C2.06999 18.8341 2.39133 18.5133 2.39133 18.1161C2.39133 17.7188 2.06999 17.3981 1.6752 17.3981Z" fill="#A2ECFB"/>
<path fill-rule="evenodd" clip-rule="evenodd" d="M11.0451 0.959099C10.6503 0.959099 10.329 1.27984 10.329 1.67709C10.329 2.07434 10.6503 2.39508 11.0451 2.39508C11.4399 2.39508 11.7612 2.07434 11.7612 1.67709C11.7612 1.27984 11.4399 0.959099 11.0451 0.959099ZM9.36987 1.67709C9.36987 0.751571 10.1192 0 11.0451 0C11.971 0 12.7203 0.751571 12.7203 1.67709C12.7203 2.60261 11.971 3.35418 11.0451 3.35418C10.1192 3.35418 9.36987 2.60261 9.36987 1.67709Z" fill="#A2ECFB"/>
<path fill-rule="evenodd" clip-rule="evenodd" d="M11.2758 13.6344C10.6854 13.7622 10.1038 13.3864 9.976 12.7951C9.84868 12.2038 10.2236 11.6213 10.814 11.4933C11.4043 11.3655 11.986 11.7413 12.1138 12.3326C12.2413 12.9239 11.8661 13.5064 11.2758 13.6344Z" fill="#A2ECFB"/>
</svg>
