<svg width="15" height="22" viewBox="0 0 15 22" fill="none" xmlns="http://www.w3.org/2000/svg">
<g clip-path="url(#clip0_97_1465)">
<path d="M7.5 11C7.5 10.0275 7.89509 9.0949 8.59835 8.40727C9.30161 7.71964 10.2554 7.33333 11.25 7.33333C12.2446 7.33333 13.1984 7.71964 13.9017 8.40727C14.6049 9.0949 15 10.0275 15 11C15 11.9725 14.6049 12.9051 13.9017 13.5927C13.1984 14.2804 12.2446 14.6667 11.25 14.6667C10.2554 14.6667 9.30161 14.2804 8.59835 13.5927C7.89509 12.9051 7.5 11.9725 7.5 11V11Z" fill="#1ABCFE"/>
<path d="M0 18.3333C0 17.3609 0.395088 16.4282 1.09835 15.7406C1.80161 15.053 2.75544 14.6667 3.75 14.6667H7.5V18.3333C7.5 19.3058 7.10491 20.2384 6.40165 20.9261C5.69839 21.6137 4.74456 22 3.75 22C2.75544 22 1.80161 21.6137 1.09835 20.9261C0.395088 20.2384 0 19.3058 0 18.3333H0Z" fill="#0ACF83"/>
<path d="M7.5 0V7.33333H11.25C12.2446 7.33333 13.1984 6.94703 13.9017 6.25939C14.6049 5.57176 15 4.63913 15 3.66667C15 2.69421 14.6049 1.76158 13.9017 1.07394C13.1984 0.386308 12.2446 0 11.25 0L7.5 0Z" fill="#FF7262"/>
<path d="M0 3.66667C0 4.63913 0.395088 5.57176 1.09835 6.25939C1.80161 6.94703 2.75544 7.33333 3.75 7.33333H7.5V0H3.75C2.75544 0 1.80161 0.386308 1.09835 1.07394C0.395088 1.76158 0 2.69421 0 3.66667H0Z" fill="#F24E1E"/>
<path d="M0 11C0 11.9725 0.395088 12.9051 1.09835 13.5927C1.80161 14.2804 2.75544 14.6667 3.75 14.6667H7.5V7.33333H3.75C2.75544 7.33333 1.80161 7.71964 1.09835 8.40727C0.395088 9.0949 0 10.0275 0 11H0Z" fill="#A259FF"/>
</g>
<defs>
<clipPath id="clip0_97_1465">
<rect width="15" height="22" fill="white"/>
</clipPath>
</defs>
</svg>
