<svg width="22" height="22" viewBox="0 0 22 22" fill="none" xmlns="http://www.w3.org/2000/svg">
<mask id="mask0_227_7739" style="mask-type:luminance" maskUnits="userSpaceOnUse" x="3" y="0" width="16" height="22">
<path d="M16.4325 5.42435C16.4184 5.34147 16.3818 5.26407 16.3267 5.20061C16.2715 5.13714 16.2 5.09006 16.1199 5.0645C16.0399 5.03895 15.9543 5.03592 15.8726 5.05573C15.7909 5.07555 15.7162 5.11745 15.6567 5.17685L13.278 7.56247L11.4057 3.99779C11.3668 3.92388 11.3085 3.862 11.237 3.81883C11.1655 3.77566 11.0836 3.75285 11.0001 3.75285C10.9166 3.75285 10.8346 3.77566 10.7632 3.81883C10.6917 3.862 10.6333 3.92388 10.5945 3.99779L9.57123 5.9457L7.00456 1.15956C6.95917 1.07477 6.88826 1.00641 6.80186 0.964151C6.71547 0.921896 6.61797 0.907887 6.52318 0.924109C6.42838 0.94033 6.34109 0.98596 6.27367 1.05454C6.20624 1.12312 6.16209 1.21117 6.14748 1.30622L3.66675 17.1875L10.3011 20.9068C10.506 21.0212 10.7368 21.0813 10.9714 21.0813C11.2061 21.0813 11.4369 21.0212 11.6417 20.9068L18.3334 17.1875L16.4325 5.42435Z" fill="white"/>
</mask>
<g mask="url(#mask0_227_7739)">
<path d="M3.66675 17.1875L6.14862 1.30509C6.16342 1.21011 6.2077 1.12219 6.2752 1.05376C6.3427 0.985331 6.43001 0.939854 6.52477 0.923765C6.61954 0.907675 6.71697 0.921786 6.80327 0.964102C6.88958 1.00642 6.96039 1.0748 7.00571 1.15957L9.57237 5.94686L10.5956 3.99894C10.6345 3.92504 10.6928 3.86316 10.7643 3.81999C10.8358 3.77682 10.9177 3.75401 11.0012 3.75401C11.0847 3.75401 11.1667 3.77682 11.2381 3.81999C11.3096 3.86316 11.368 3.92504 11.4069 3.99894L18.3334 17.1875H3.66675Z" fill="#FFA000"/>
<path opacity="0.12" d="M12.1458 1.03125L0 0V22L3.66667 17.1875L12.1458 1.03125Z" fill="url(#paint0_linear_227_7739)"/>
<path d="M12.241 11.0012L9.57123 5.94574L3.66675 17.1875L12.241 11.0012Z" fill="#F57C00"/>
<path opacity="0.2" d="M0 0H22V22H0V0Z" fill="url(#paint1_linear_227_7739)"/>
<path d="M18.3334 17.1875L16.4325 5.42438C16.4184 5.3415 16.3818 5.2641 16.3267 5.20063C16.2715 5.13717 16.2 5.09008 16.1199 5.06453C16.0399 5.03898 15.9543 5.03595 15.8726 5.05576C15.7909 5.07557 15.7162 5.11747 15.6567 5.17688L3.66675 17.1875L10.3011 20.908C10.506 21.0224 10.7368 21.0825 10.9714 21.0825C11.2061 21.0825 11.4369 21.0224 11.6417 20.908L18.3334 17.1875Z" fill="#FFCA28"/>
<path d="M16.4324 5.42435C16.4183 5.34147 16.3817 5.26407 16.3266 5.20061C16.2714 5.13714 16.1999 5.09006 16.1198 5.0645C16.0397 5.03895 15.9542 5.03592 15.8725 5.05573C15.7908 5.07555 15.7161 5.11745 15.6566 5.17685L13.2779 7.56247L11.4056 3.99779C11.3667 3.92388 11.3084 3.862 11.2369 3.81883C11.1654 3.77566 11.0835 3.75285 11 3.75285C10.9165 3.75285 10.8345 3.77566 10.7631 3.81883C10.6916 3.862 10.6332 3.92388 10.5943 3.99779L9.57112 5.9457L7.00445 1.15956C6.95906 1.07477 6.88815 1.00641 6.80175 0.964151C6.71536 0.921896 6.61786 0.907887 6.52307 0.924109C6.42827 0.94033 6.34098 0.98596 6.27356 1.05454C6.20613 1.12312 6.16198 1.21117 6.14737 1.30622L3.66664 17.1875H3.65747L3.66549 17.1966L3.7308 17.2287L13.2722 7.67706L15.6532 5.29372C15.7126 5.234 15.7874 5.19182 15.8693 5.17181C15.9511 5.15181 16.0369 5.15476 16.1172 5.18034C16.1975 5.20592 16.2692 5.25313 16.3244 5.3168C16.3796 5.38047 16.4161 5.45812 16.4301 5.54122L18.315 17.1989L18.3333 17.1875L16.4324 5.42435ZM3.68841 17.1657L6.14851 1.41966C6.16313 1.3246 6.20727 1.23655 6.2747 1.16798C6.34213 1.0994 6.42942 1.05377 6.52421 1.03755C6.61901 1.02132 6.71651 1.03533 6.8029 1.07759C6.88929 1.11984 6.9602 1.18821 7.0056 1.27299L9.57226 6.06029L10.5955 4.11237C10.6344 4.03846 10.6927 3.97658 10.7642 3.93342C10.8357 3.89025 10.9176 3.86743 11.0011 3.86743C11.0846 3.86743 11.1666 3.89025 11.238 3.93342C11.3095 3.97658 11.3679 4.03846 11.4067 4.11237L13.2401 7.59914L3.68841 17.1657Z" fill="white" fill-opacity="0.2"/>
<path opacity="0.2" d="M11.6417 20.7957C11.4369 20.9101 11.2061 20.9702 10.9714 20.9702C10.7368 20.9702 10.506 20.9101 10.3011 20.7957L3.68279 17.0832L3.66675 17.1875L10.3011 20.9069C10.506 21.0213 10.7368 21.0813 10.9714 21.0813C11.2061 21.0813 11.4369 21.0213 11.6417 20.9069L18.3334 17.1875L18.3162 17.0821L11.6417 20.7957Z" fill="#A52714"/>
<path d="M16.4325 5.42435C16.4184 5.34147 16.3818 5.26407 16.3267 5.20061C16.2715 5.13714 16.2 5.09006 16.1199 5.0645C16.0399 5.03895 15.9543 5.03592 15.8726 5.05573C15.7909 5.07555 15.7162 5.11745 15.6567 5.17685L13.278 7.56247L11.4057 3.99779C11.3668 3.92388 11.3085 3.862 11.237 3.81883C11.1655 3.77566 11.0836 3.75285 11.0001 3.75285C10.9166 3.75285 10.8346 3.77566 10.7632 3.81883C10.6917 3.862 10.6333 3.92388 10.5945 3.99779L9.57123 5.9457L7.00456 1.15956C6.95917 1.07477 6.88826 1.00641 6.80186 0.964151C6.71547 0.921896 6.61797 0.907887 6.52318 0.924109C6.42838 0.94033 6.34109 0.98596 6.27367 1.05454C6.20624 1.12312 6.16209 1.21117 6.14748 1.30622L3.66675 17.1875L10.3011 20.9068C10.506 21.0212 10.7368 21.0813 10.9714 21.0813C11.2061 21.0813 11.4369 21.0212 11.6417 20.9068L18.3334 17.1875L16.4325 5.42435Z" fill="url(#paint2_linear_227_7739)"/>
</g>
<defs>
<linearGradient id="paint0_linear_227_7739" x1="6.51979" y1="11.7494" x2="5.60313" y2="11.2704" gradientUnits="userSpaceOnUse">
<stop stop-color="#A52714"/>
<stop offset="0.4" stop-color="#A52714" stop-opacity="0.5"/>
<stop offset="0.8" stop-color="#A52714" stop-opacity="0"/>
</linearGradient>
<linearGradient id="paint1_linear_227_7739" x1="10.4145" y1="10.4168" x2="10.0043" y2="10.0066" gradientUnits="userSpaceOnUse">
<stop stop-color="#A52714" stop-opacity="0.8"/>
<stop offset="0.5" stop-color="#A52714" stop-opacity="0.21"/>
<stop offset="1" stop-color="#A52714" stop-opacity="0"/>
</linearGradient>
<linearGradient id="paint2_linear_227_7739" x1="3.11536" y1="4.61548" x2="18.4337" y2="19.9338" gradientUnits="userSpaceOnUse">
<stop stop-color="white" stop-opacity="0.1"/>
<stop offset="1" stop-color="white" stop-opacity="0"/>
</linearGradient>
</defs>
</svg>
