<svg width="17" height="23" viewBox="0 0 17 23" fill="none" xmlns="http://www.w3.org/2000/svg">
<mask id="mask0_97_754" style="mask-type:luminance" maskUnits="userSpaceOnUse" x="-1" y="0" width="18" height="24">
<path d="M14.7965 5.22402C14.7802 5.12796 14.7378 5.03824 14.6739 4.96467C14.61 4.89111 14.5271 4.83653 14.4343 4.80691C14.3414 4.7773 14.2423 4.77378 14.1476 4.79675C14.0529 4.81971 13.9663 4.86828 13.8974 4.93714L11.1401 7.70241L8.96981 3.57044C8.92474 3.48477 8.85712 3.41304 8.77426 3.363C8.69139 3.31297 8.59643 3.28652 8.49963 3.28652C8.40283 3.28652 8.30787 3.31297 8.22501 3.363C8.14214 3.41304 8.07453 3.48477 8.02946 3.57044L6.84339 5.82835L3.86826 0.280529C3.81565 0.182248 3.73345 0.103007 3.63331 0.0540274C3.53317 0.00504724 3.42016 -0.0111908 3.31027 0.00761237C3.20039 0.0264156 3.09921 0.0793073 3.02105 0.158798C2.9429 0.23829 2.89172 0.340352 2.87478 0.450536L-0.000732422 18.8591L7.68944 23.1704C7.92694 23.303 8.19442 23.3726 8.46643 23.3726C8.73844 23.3726 9.00592 23.303 9.24342 23.1704L17 18.8591L14.7965 5.22402Z" fill="white"/>
</mask>
<g mask="url(#mask0_97_754)">
<path d="M-0.000732422 18.8591L2.87611 0.449201C2.89326 0.33911 2.94459 0.237197 3.02283 0.157876C3.10107 0.0785551 3.20228 0.0258416 3.31212 0.00719124C3.42197 -0.0114591 3.5349 0.0048977 3.63494 0.0539482C3.73498 0.102999 3.81707 0.18226 3.86959 0.280522L6.84472 5.82967L8.03079 3.57176C8.07585 3.48609 8.14347 3.41436 8.22634 3.36432C8.3092 3.31429 8.40416 3.28784 8.50096 3.28784C8.59776 3.28784 8.69272 3.31429 8.77559 3.36432C8.85845 3.41436 8.92607 3.48609 8.97114 3.57176L17 18.8591H-0.000732422Z" fill="#FFA000"/>
<path opacity="0.12" d="M9.82775 0.131765L-4.25098 -1.0636V24.4375L-0.000793457 18.8591L9.82775 0.131765Z" fill="url(#paint0_linear_97_754)"/>
<path d="M9.93806 11.6883L6.84339 5.82834L-0.000732422 18.8591L9.93806 11.6883Z" fill="#F57C00"/>
<path opacity="0.2" d="M-4.25098 -1.0636H21.2501V24.4375H-4.25098V-1.0636Z" fill="url(#paint1_linear_97_754)"/>
<path d="M17 18.8591L14.7965 5.22401C14.7802 5.12795 14.7378 5.03823 14.6739 4.96467C14.61 4.8911 14.5271 4.83652 14.4343 4.80691C14.3414 4.77729 14.2423 4.77377 14.1476 4.79674C14.0529 4.81971 13.9663 4.86827 13.8974 4.93713L-0.000732422 18.8591L7.68944 23.1717C7.92694 23.3043 8.19442 23.374 8.46643 23.374C8.73844 23.374 9.00592 23.3043 9.24342 23.1717L17 18.8591Z" fill="#FFCA28"/>
<path d="M14.7964 5.22402C14.7801 5.12796 14.7377 5.03824 14.6738 4.96467C14.6099 4.89111 14.527 4.83653 14.4342 4.80691C14.3413 4.7773 14.2421 4.77378 14.1474 4.79675C14.0527 4.81971 13.9662 4.86828 13.8972 4.93714L11.1399 7.70241L8.96969 3.57044C8.92462 3.48477 8.85701 3.41304 8.77414 3.363C8.69128 3.31297 8.59632 3.28652 8.49952 3.28652C8.40272 3.28652 8.30776 3.31297 8.22489 3.363C8.14203 3.41304 8.07441 3.48477 8.02934 3.57044L6.84327 5.82835L3.86815 0.280529C3.81553 0.182248 3.73333 0.103007 3.63319 0.0540274C3.53305 0.00504724 3.42004 -0.0111908 3.31016 0.00761237C3.20028 0.0264156 3.09909 0.0793073 3.02094 0.158798C2.94278 0.23829 2.89161 0.340352 2.87467 0.450536L-0.000849162 18.8591H-0.0114746L-0.00217737 18.8698L0.0735292 18.907L11.1333 7.83523L13.8933 5.07261C13.9622 5.00338 14.0488 4.95449 14.1437 4.9313C14.2386 4.90811 14.338 4.91153 14.4311 4.94118C14.5242 4.97083 14.6072 5.02556 14.6712 5.09936C14.7352 5.17316 14.7776 5.26317 14.7938 5.3595L16.9786 18.8724L16.9999 18.8591L14.7964 5.22402ZM0.0243861 18.8339L2.87599 0.582026C2.89293 0.471843 2.94411 0.36978 3.02226 0.290288C3.10042 0.210797 3.2016 0.157906 3.31149 0.139103C3.42137 0.120299 3.53438 0.136537 3.63452 0.185517C3.73466 0.234498 3.81686 0.313738 3.86947 0.412019L6.8446 5.96116L8.03067 3.70325C8.07574 3.61759 8.14336 3.54586 8.22622 3.49582C8.30909 3.44578 8.40405 3.41934 8.50085 3.41934C8.59765 3.41934 8.69261 3.44578 8.77547 3.49582C8.85833 3.54586 8.92595 3.61759 8.97102 3.70325L11.0961 7.74491L0.0243861 18.8339Z" fill="white" fill-opacity="0.2"/>
<path opacity="0.2" d="M9.24342 23.0416C9.00592 23.1742 8.73844 23.2438 8.46643 23.2438C8.19442 23.2438 7.92694 23.1742 7.68944 23.0416L0.017862 18.7383L-0.000732422 18.8591L7.68944 23.1704C7.92694 23.303 8.19442 23.3726 8.46643 23.3726C8.73844 23.3726 9.00592 23.303 9.24342 23.1704L17 18.8591L16.9801 18.7369L9.24342 23.0416Z" fill="#A52714"/>
<path d="M14.7965 5.22402C14.7802 5.12796 14.7378 5.03824 14.6739 4.96467C14.61 4.89111 14.5271 4.83653 14.4343 4.80691C14.3414 4.7773 14.2423 4.77378 14.1476 4.79675C14.0529 4.81971 13.9663 4.86828 13.8974 4.93714L11.1401 7.70241L8.96981 3.57044C8.92474 3.48477 8.85712 3.41304 8.77426 3.363C8.69139 3.31297 8.59643 3.28652 8.49963 3.28652C8.40283 3.28652 8.30787 3.31297 8.22501 3.363C8.14214 3.41304 8.07453 3.48477 8.02946 3.57044L6.84339 5.82835L3.86826 0.280529C3.81565 0.182248 3.73345 0.103007 3.63331 0.0540274C3.53317 0.00504724 3.42016 -0.0111908 3.31027 0.00761237C3.20039 0.0264156 3.09921 0.0793073 3.02105 0.158798C2.9429 0.23829 2.89172 0.340352 2.87478 0.450536L-0.000732422 18.8591L7.68944 23.1704C7.92694 23.303 8.19442 23.3726 8.46643 23.3726C8.73844 23.3726 9.00592 23.303 9.24342 23.1704L17 18.8591L14.7965 5.22402Z" fill="url(#paint2_linear_97_754)"/>
</g>
<defs>
<linearGradient id="paint0_linear_97_754" x1="3.30638" y1="12.5556" x2="2.24383" y2="12.0004" gradientUnits="userSpaceOnUse">
<stop stop-color="#A52714"/>
<stop offset="0.4" stop-color="#A52714" stop-opacity="0.5"/>
<stop offset="0.8" stop-color="#A52714" stop-opacity="0"/>
</linearGradient>
<linearGradient id="paint1_linear_97_754" x1="7.82087" y1="11.0109" x2="7.34538" y2="10.5354" gradientUnits="userSpaceOnUse">
<stop stop-color="#A52714" stop-opacity="0.8"/>
<stop offset="0.5" stop-color="#A52714" stop-opacity="0.21"/>
<stop offset="1" stop-color="#A52714" stop-opacity="0"/>
</linearGradient>
<linearGradient id="paint2_linear_97_754" x1="-0.639867" y1="4.28643" x2="17.1162" y2="22.0425" gradientUnits="userSpaceOnUse">
<stop stop-color="white" stop-opacity="0.1"/>
<stop offset="1" stop-color="white" stop-opacity="0"/>
</linearGradient>
</defs>
</svg>
