<svg width="24" height="24" viewBox="0 0 24 24" fill="none" xmlns="http://www.w3.org/2000/svg">
<path fill-rule="evenodd" clip-rule="evenodd" d="M12 1.65674L20.9575 6.82836V17.1716L12 22.3432L3.04248 17.1716V6.82836L12 1.65674ZM4.04753 7.40863V15.006L10.6271 3.60994L4.04753 7.40863ZM12 3.24206L4.4154 16.379H19.5846L12 3.24206ZM18.5796 17.384H5.42045L12 21.1827L18.5796 17.384ZM19.9525 15.006L13.3729 3.60994L19.9525 7.40863V15.006Z" fill="#E10098"/>
<path d="M12.0001 4.35381C13.1692 4.35381 14.1169 3.40609 14.1169 2.23701C14.1169 1.06793 13.1692 0.120209 12.0001 0.120209C10.831 0.120209 9.8833 1.06793 9.8833 2.23701C9.8833 3.40609 10.831 4.35381 12.0001 4.35381Z" fill="#E10098"/>
<path d="M20.4549 9.23531C21.624 9.23531 22.5717 8.28759 22.5717 7.11851C22.5717 5.94943 21.624 5.00171 20.4549 5.00171C19.2859 5.00171 18.3381 5.94943 18.3381 7.11851C18.3381 8.28759 19.2859 9.23531 20.4549 9.23531Z" fill="#E10098"/>
<path d="M20.4549 18.9983C21.624 18.9983 22.5717 18.0506 22.5717 16.8815C22.5717 15.7124 21.624 14.7647 20.4549 14.7647C19.2859 14.7647 18.3381 15.7124 18.3381 16.8815C18.3381 18.0506 19.2859 18.9983 20.4549 18.9983Z" fill="#E10098"/>
<path d="M12.0001 23.8798C13.1692 23.8798 14.1169 22.9321 14.1169 21.763C14.1169 20.5939 13.1692 19.6462 12.0001 19.6462C10.831 19.6462 9.8833 20.5939 9.8833 21.763C9.8833 22.9321 10.831 23.8798 12.0001 23.8798Z" fill="#E10098"/>
<path d="M3.5438 18.9983C4.71288 18.9983 5.6606 18.0506 5.6606 16.8815C5.6606 15.7124 4.71288 14.7647 3.5438 14.7647C2.37473 14.7647 1.427 15.7124 1.427 16.8815C1.427 18.0506 2.37473 18.9983 3.5438 18.9983Z" fill="#E10098"/>
<path d="M3.5438 9.23531C4.71288 9.23531 5.6606 8.28759 5.6606 7.11851C5.6606 5.94943 4.71288 5.00171 3.5438 5.00171C2.37473 5.00171 1.427 5.94943 1.427 7.11851C1.427 8.28759 2.37473 9.23531 3.5438 9.23531Z" fill="#E10098"/>
</svg>
