<svg width="24" height="17" viewBox="0 0 24 17" fill="none" xmlns="http://www.w3.org/2000/svg">
<path d="M1.6015 12.8863C1.08937 12.8864 0.577153 13.0817 0.186523 13.472L1.60107 14.8873C2.64177 15.9479 4.07823 16.5685 5.6014 16.5685C7.12469 16.5685 8.56149 15.9479 9.60215 14.8873L11.0171 13.472C10.2356 12.6914 8.9686 12.6907 8.18717 13.472H8.18674C7.51689 14.1634 6.58935 14.5676 5.60097 14.5676C4.61272 14.5676 3.68539 14.1635 3.01563 13.4723C2.62487 13.0815 2.11278 12.8865 1.60065 12.8865L1.6015 12.8863Z" fill="#27282C"/>
<path d="M5.57946 0.676585C5.53741 0.67684 5.49544 0.679753 5.45376 0.68529C4.43929 0.782437 3.64603 1.63742 3.64555 2.67685H5.61683C7.24632 2.68338 8.6612 3.7723 9.08335 5.34756C9.50668 6.92764 8.82053 8.58294 7.40381 9.40086C5.98714 10.2188 4.21079 9.9854 3.05399 8.82873C2.07 7.84465 1.75487 6.41176 2.18598 5.13363C2.47203 4.06619 1.83779 2.96919 0.771005 2.6828L0.252492 4.61565C0.00975595 5.39778 -0.0565709 6.21591 0.048229 7.01192C0.205472 8.2055 0.745141 9.34873 1.64029 10.2439C3.43072 12.0343 6.21331 12.4011 8.40602 11.1351C10.5988 9.86908 11.6726 7.27607 11.0173 4.83032C10.7889 3.978 10.3691 3.21551 9.8125 2.58332C10.6211 2.32615 11.2071 1.56945 11.2071 0.675735H7.2038H5.60324L5.57946 0.676585Z" fill="#27282C"/>
<path d="M22.5714 0.689148L21.1562 2.10365L19.534 3.6956C18.5818 4.63303 19.9898 6.05982 20.9405 5.12031L22.5627 3.52799L22.5773 3.50686V3.50722C22.5922 3.48633 22.5915 3.48633 22.6064 3.47589C22.6213 3.45499 22.6224 3.45479 22.6224 3.4533C23.3508 2.6684 23.3339 1.44112 22.5773 0.677124L22.5714 0.689148ZM13.2609 0.689148C12.5012 1.45031 12.4803 2.67226 13.2012 3.4573C13.2161 3.4782 13.246 3.49912 13.2609 3.51852L16.466 6.72246L13.293 9.89508L11.8909 11.2972C12.664 12.0707 13.9145 12.0783 14.6966 11.3194L14.7111 11.2986L18.5414 7.47016C18.8966 7.15749 19.0566 6.61847 18.7193 6.15222C18.6596 6.06864 18.6001 5.9936 18.521 5.93031L14.6805 2.09126L13.2609 0.689148ZM20.2205 7.9832C19.322 8.0041 18.8863 9.0839 19.534 9.70597L21.1591 11.3023L21.1737 11.3231C21.1886 11.3231 21.1897 11.3442 21.1897 11.3442C21.2046 11.3651 21.2345 11.3813 21.2495 11.3978C21.2644 11.4187 21.2637 11.4189 21.2786 11.4189C22.0652 12.0974 23.2535 12.0633 23.9998 11.3187L22.5845 9.90382V9.90419L20.9492 8.29875C20.7627 8.10458 20.4994 7.99839 20.2292 8.00033L20.2205 7.9832Z" fill="#ED0E5C"/>
</svg>
