<svg width="20" height="14" viewBox="0 0 20 14" fill="none" xmlns="http://www.w3.org/2000/svg">
<path d="M1.33444 10.1757C0.907662 10.1758 0.480805 10.3385 0.155273 10.6638L1.33409 11.8432C2.20135 12.7271 3.39843 13.2442 4.66776 13.2442C5.9372 13.2442 7.13455 12.7271 8.00178 11.8432L9.18095 10.6638C8.52971 10.0133 7.47382 10.0126 6.82261 10.6638H6.82226C6.26404 11.2399 5.49107 11.5768 4.6674 11.5768C3.84385 11.5768 3.07105 11.24 2.51291 10.664C2.18727 10.3384 1.76052 10.1758 1.33374 10.1759L1.33444 10.1757Z" fill="#27282C"/>
<path d="M4.64944 0.000707785C4.6144 0.00092056 4.57942 0.00334834 4.54469 0.00796258C3.69928 0.0889196 3.03821 0.801419 3.03781 1.66763H4.68058C6.03852 1.67307 7.2176 2.58052 7.56941 3.89326C7.92219 5.21003 7.35038 6.58947 6.16976 7.27108C4.98918 7.95269 3.50886 7.75821 2.54484 6.7943C1.72483 5.97422 1.46221 4.78011 1.82148 3.71499C2.05986 2.82544 1.53132 1.91125 0.642313 1.67258L0.210211 3.28333C0.00792666 3.93511 -0.0473468 4.61691 0.0399882 5.28025C0.171027 6.27493 0.62076 7.22763 1.36673 7.97364C2.85878 9.46566 5.17765 9.7713 7.00495 8.71629C8.83232 7.66127 9.72719 5.50039 9.18104 3.46222C8.99071 2.75194 8.64086 2.11652 8.17704 1.58969C8.85086 1.37537 9.33922 0.744776 9.33922 0H6.00308H4.66926L4.64944 0.000707785Z" fill="#27282C"/>
<path d="M18.8098 0.0111802L17.6304 1.18996L16.2786 2.51661C15.4851 3.29781 16.6584 4.48683 17.4507 3.70389L18.8025 2.37693L18.8147 2.35932V2.35962C18.8271 2.34221 18.8265 2.34221 18.839 2.33351C18.8514 2.3161 18.8523 2.31593 18.8523 2.31468C19.4593 1.66059 19.4453 0.637839 18.8147 0.00115967L18.8098 0.0111802ZM11.0509 0.0111802C10.4178 0.645496 10.4004 1.66381 11.0011 2.31802C11.0135 2.33543 11.0385 2.35287 11.0509 2.36904L13.7218 5.03904L11.0776 7.68294L9.90918 8.85139C10.5534 9.49603 11.5956 9.50236 12.2473 8.86991L12.2594 8.8526L15.4514 5.66214C15.7474 5.40157 15.8807 4.95238 15.5996 4.56383C15.5499 4.49418 15.5003 4.43164 15.4344 4.37891L12.2339 1.17963L11.0509 0.0111802ZM16.8507 6.08968C16.1019 6.10709 15.7388 7.00695 16.2786 7.52534L17.6329 8.85564L17.645 8.87295C17.6574 8.87295 17.6584 8.89056 17.6584 8.89056C17.6708 8.90797 17.6957 8.92152 17.7082 8.9352C17.7206 8.95261 17.72 8.95281 17.7325 8.95281C18.3879 9.51822 19.3783 9.48982 20.0001 8.86931L18.8207 7.69023V7.69053L17.458 6.35264C17.3025 6.19083 17.0831 6.10233 16.8579 6.10395L16.8507 6.08968Z" fill="#ED0E5C"/>
</svg>
