<svg width="24" height="24" viewBox="0 0 24 24" fill="none" xmlns="http://www.w3.org/2000/svg">
<path d="M21 2C21 4.76142 18.7614 7 16 7H8C5.23858 7 3 4.76142 3 2V2H21V2Z" fill="url(#paint0_linear_352_21509)"/>
<path d="M16.0909 11.1667C16.0909 10.2462 16.8371 9.5 17.7576 9.5H21V11.1667C21 17.1498 16.2379 22 10.3636 22H3V22C3 19.2386 5.23858 17 8 17H10.3636C13.5267 17 16.0909 14.3883 16.0909 11.1667V11.1667Z" fill="url(#paint1_linear_352_21509)"/>
<defs>
<linearGradient id="paint0_linear_352_21509" x1="12" y1="2" x2="12" y2="22" gradientUnits="userSpaceOnUse">
<stop stop-color="#D65ED4"/>
<stop offset="0.9999" stop-color="#3062E3"/>
<stop offset="1" stop-color="#1A1A20" stop-opacity="0"/>
</linearGradient>
<linearGradient id="paint1_linear_352_21509" x1="12" y1="2" x2="12" y2="22" gradientUnits="userSpaceOnUse">
<stop stop-color="#D65ED4"/>
<stop offset="0.9999" stop-color="#3062E3"/>
<stop offset="1" stop-color="#1A1A20" stop-opacity="0"/>
</linearGradient>
</defs>
</svg>
