<svg width="20" height="20" viewBox="0 0 20 20" fill="none" xmlns="http://www.w3.org/2000/svg">
<g opacity="0.92" clip-path="url(#clip0_344_12686)">
<g clip-path="url(#clip1_344_12686)">
<path d="M18.5167 0H1.475C0.658333 0 0 0.641667 0 1.44167V18.5583C0 19.3583 0.658333 20 1.475 20H18.5167C19.3333 20 20 19.35 20 18.5583V1.44167C20 0.641667 19.3333 0 18.5167 0Z" fill="white"/>
<path d="M5.91667 17.0833V7.5H3V17.0833H5.91667Z" fill="black"/>
<path d="M6.16667 4.45833C6.16667 3.51667 5.4 2.75 4.45833 2.75C3.51667 2.75 2.75 3.51667 2.75 4.45833C2.75 5.4 3.51667 6.16667 4.45833 6.16667C5.4 6.16667 6.16667 5.4 6.16667 4.45833Z" fill="black"/>
<path d="M10.6666 7.5H7.83325V17.0833H10.7499V12.325C10.7499 11.075 10.9916 9.90833 12.5333 9.90833C14.0583 9.90833 14.0833 11.2917 14.0833 12.4V17.0833H16.9999V11.8083C16.9999 9.23333 16.4833 7.25 13.4833 7.25C12.0416 7.25 11.0749 8.05 10.6749 8.8H10.6666V7.5Z" fill="black"/>
</g>
</g>
<defs>
<clipPath id="clip0_344_12686">
<rect width="20" height="20" fill="white"/>
</clipPath>
<clipPath id="clip1_344_12686">
<rect width="20" height="20" fill="white"/>
</clipPath>
</defs>
</svg>
