<svg width="40" height="40" viewBox="0 0 40 40" fill="none" xmlns="http://www.w3.org/2000/svg">
<g opacity="0.92" clip-path="url(#clip0_344_12686)">
<g clip-path="url(#clip1_344_12686)">
<path d="M37.0333 0H2.95C1.31667 0 0 1.28333 0 2.88333V37.1167C0 38.7167 1.31667 40 2.95 40H37.0333C38.6667 40 40 38.7 40 37.1167V2.88333C40 1.28333 38.6667 0 37.0333 0Z" fill="white"/>
<path d="M11.8333 34.1667V15H6V34.1667H11.8333Z" fill="black"/>
<path d="M12.3333 8.91667C12.3333 7.03333 10.8 5.5 8.91667 5.5C7.03333 5.5 5.5 7.03333 5.5 8.91667C5.5 10.8 7.03333 12.3333 8.91667 12.3333C10.8 12.3333 12.3333 10.8 12.3333 8.91667Z" fill="black"/>
<path d="M21.3332 15H15.6665V34.1667H21.4998V24.65C21.4998 22.15 21.9832 19.8167 25.0665 19.8167C28.1165 19.8167 28.1665 22.5833 28.1665 24.8V34.1667H33.9998V23.6167C33.9998 18.4667 32.9665 14.5 26.9665 14.5C24.0832 14.5 22.1498 16.1 21.3498 17.6H21.3332V15Z" fill="black"/>
</g>
</g>
<defs>
<clipPath id="clip0_344_12686">
<rect width="40" height="40" fill="white"/>
</clipPath>
<clipPath id="clip1_344_12686">
<rect width="40" height="40" fill="white"/>
</clipPath>
</defs>
</svg>
