<svg width="32" height="32" viewBox="0 0 32 32" fill="none" xmlns="http://www.w3.org/2000/svg">
<g opacity="0.92" clip-path="url(#clip0_344_12686)">
<g clip-path="url(#clip1_344_12686)">
<path d="M29.6267 0H2.36C1.05333 0 0 1.02667 0 2.30667V29.6933C0 30.9733 1.05333 32 2.36 32H29.6267C30.9333 32 32 30.96 32 29.6933V2.30667C32 1.02667 30.9333 0 29.6267 0Z" fill="white"/>
<path d="M9.46657 27.3332V11.9999H4.7999V27.3332H9.46657Z" fill="black"/>
<path d="M9.86657 7.13324C9.86657 5.62657 8.6399 4.3999 7.13324 4.3999C5.62657 4.3999 4.3999 5.62657 4.3999 7.13324C4.3999 8.6399 5.62657 9.86657 7.13324 9.86657C8.6399 9.86657 9.86657 8.6399 9.86657 7.13324Z" fill="black"/>
<path d="M17.0664 11.9999H12.5331V27.3332H17.1998V19.7199C17.1998 17.7199 17.5864 15.8532 20.0531 15.8532C22.4931 15.8532 22.5331 18.0666 22.5331 19.8399V27.3332H27.1998V18.8932C27.1998 14.7732 26.3731 11.5999 21.5731 11.5999C19.2664 11.5999 17.7198 12.8799 17.0798 14.0799H17.0664V11.9999Z" fill="black"/>
</g>
</g>
<defs>
<clipPath id="clip0_344_12686">
<rect width="32" height="32" fill="white"/>
</clipPath>
<clipPath id="clip1_344_12686">
<rect width="32" height="32" fill="white"/>
</clipPath>
</defs>
</svg>
