<svg width="28" height="28" viewBox="0 0 28 28" fill="none" xmlns="http://www.w3.org/2000/svg">
<g opacity="0.92" clip-path="url(#clip0_344_12686)">
<g clip-path="url(#clip1_344_12686)">
<path d="M25.9233 0H2.065C0.921667 0 0 0.898333 0 2.01833V25.9817C0 27.1017 0.921667 28 2.065 28H25.9233C27.0667 28 28 27.09 28 25.9817V2.01833C28 0.898333 27.0667 0 25.9233 0Z" fill="white"/>
<path d="M8.28343 23.9168V10.5001H4.2001V23.9168H8.28343Z" fill="black"/>
<path d="M8.63343 6.24176C8.63343 4.92343 7.5601 3.8501 6.24176 3.8501C4.92343 3.8501 3.8501 4.92343 3.8501 6.24176C3.8501 7.5601 4.92343 8.63343 6.24176 8.63343C7.5601 8.63343 8.63343 7.5601 8.63343 6.24176Z" fill="black"/>
<path d="M14.9333 10.5001H10.9667V23.9168H15.05V17.2551C15.05 15.5051 15.3883 13.8718 17.5467 13.8718C19.6817 13.8718 19.7167 15.8084 19.7167 17.3601V23.9168H23.8V16.5318C23.8 12.9268 23.0767 10.1501 18.8767 10.1501C16.8583 10.1501 15.505 11.2701 14.945 12.3201H14.9333V10.5001Z" fill="black"/>
</g>
</g>
<defs>
<clipPath id="clip0_344_12686">
<rect width="28" height="28" fill="white"/>
</clipPath>
<clipPath id="clip1_344_12686">
<rect width="28" height="28" fill="white"/>
</clipPath>
</defs>
</svg>
