<svg width="24" height="24" viewBox="0 0 24 24" fill="none" xmlns="http://www.w3.org/2000/svg">
<g clip-path="url(#clip0_446_4485)">
<path d="M12.008 6.26254L13.8443 4.03167C13.9006 3.95143 13.9973 3.9113 14.0939 3.9113H16.3651C16.6228 3.9113 16.7677 4.20019 16.6147 4.40081L12.008 10.3953L3.83351 -0.454128C3.68049 -0.654745 3.82546 -0.943634 4.08318 -0.943634H6.35432C6.45096 -0.943634 6.54761 -0.903511 6.60398 -0.823264L12.008 6.26254Z" fill="white"/>
<path d="M16.2845 12L22.0026 19.5994C22.1557 19.808 22.0107 20.0969 21.753 20.0969H19.4657C19.3691 20.0969 19.2724 20.0568 19.2161 19.9765L13.2161 12L21.1892 1.60801C21.2456 1.53579 21.3342 1.48764 21.4308 1.48764H23.6859C23.9355 1.48764 24.0805 1.78455 23.9275 1.98517L16.2845 12Z" fill="white"/>
<path d="M1.99729 4.40061L7.71541 11.992L0.0644077 22.0228C-0.0886124 22.2234 0.0563541 22.5204 0.306018 22.5204H2.56105C2.6577 22.5204 2.74629 22.4722 2.80266 22.4L10.7839 12L4.77582 4.03147C4.71944 3.95123 4.6228 3.9111 4.52615 3.9111H2.2389C1.98924 3.9111 1.84427 4.19999 1.99729 4.40061Z" fill="white"/>
<path d="M11.992 17.7377L10.1557 19.9685C10.0994 20.0488 10.0108 20.0889 9.91413 20.0889H7.63494C7.37722 20.0889 7.23225 19.8 7.38527 19.5994L11.992 13.6049L20.1665 24.4543C20.3195 24.655 20.1745 24.9438 19.9168 24.9438H17.6457C17.549 24.9438 17.4524 24.9037 17.396 24.8235L11.992 17.7377Z" fill="white"/>
</g>
<defs>
<clipPath id="clip0_446_4485">
<rect width="24" height="26" fill="white" transform="translate(0 -1)"/>
</clipPath>
</defs>
</svg>
