<svg width="24" height="24" viewBox="0 0 24 24" fill="none" xmlns="http://www.w3.org/2000/svg">
<path d="M13.8602 3.45205C12.9614 2.35654 12.1874 1.24392 12.0292 1.01284C12.0126 0.995721 11.9876 0.995721 11.971 1.01284C11.8128 1.24392 11.0388 2.35654 10.14 3.45205C2.42485 13.5598 11.3551 20.3811 11.3551 20.3811L11.43 20.4324C11.4966 21.4851 11.663 23 11.663 23H11.9959H12.3289C12.3289 23 12.4953 21.4936 12.5619 20.4324L12.6368 20.3725C12.6451 20.3725 21.5754 13.5598 13.8602 3.45205ZM11.9959 20.227C11.9959 20.227 11.5965 19.8761 11.4883 19.6963V19.6793L11.971 8.67282C11.971 8.63859 12.0209 8.63859 12.0209 8.67282L12.5036 19.6793V19.6963C12.3954 19.8761 11.9959 20.227 11.9959 20.227Z" fill="#00ED64"/>
</svg>
