<svg width="20" height="24" viewBox="0 0 20 24" fill="none" xmlns="http://www.w3.org/2000/svg">
<path d="M10.5585 1.07138C10.2204 0.880177 9.81913 0.880177 9.48121 1.07138L0.589064 6.23586C0.251139 6.42718 0.0610352 6.7884 0.0610352 7.17104V17.5211C0.0610352 17.9037 0.272225 18.2649 0.589064 18.4563L9.48121 23.6207C9.81913 23.8119 10.2204 23.8119 10.5585 23.6207L19.4505 18.4563C19.7885 18.2649 19.9785 17.9037 19.9785 17.5211V7.17104C19.9785 6.7884 19.7673 6.42718 19.4505 6.23586L10.5585 1.07138Z" fill="url(#paint0_linear_97_525)"/>
<path d="M19.4717 6.23588L10.5373 1.0714C10.4529 1.02889 10.3472 0.986391 10.2628 0.965195L0.251221 18.2012C0.335674 18.3075 0.441324 18.3925 0.546863 18.4563L9.48129 23.6207C9.73476 23.7695 10.0304 23.812 10.305 23.7269L19.704 6.42719C19.6407 6.34219 19.5562 6.27838 19.4717 6.23588Z" fill="url(#paint1_linear_97_525)"/>
<path d="M19.472 18.4559C19.7255 18.3071 19.9156 18.0521 20 17.7758L10.2207 0.943557C9.96736 0.901054 9.69269 0.92225 9.46041 1.07107L0.589355 6.21424L10.1574 23.7691C10.2841 23.7478 10.432 23.7053 10.5588 23.6416L19.472 18.4559Z" fill="url(#paint2_linear_97_525)"/>
<defs>
<linearGradient id="paint0_linear_97_525" x1="13.6413" y1="4.91772" x2="5.52072" y2="21.3812" gradientUnits="userSpaceOnUse">
<stop stop-color="#3F873F"/>
<stop offset="0.3296" stop-color="#3F8B3D"/>
<stop offset="0.6367" stop-color="#3E9638"/>
<stop offset="0.9341" stop-color="#3DA92E"/>
<stop offset="1" stop-color="#3DAE2B"/>
</linearGradient>
<linearGradient id="paint1_linear_97_525" x1="8.66844" y1="13.5546" x2="31.3263" y2="-3.08272" gradientUnits="userSpaceOnUse">
<stop offset="0.1376" stop-color="#3F873F"/>
<stop offset="0.4016" stop-color="#52A044"/>
<stop offset="0.7129" stop-color="#64B749"/>
<stop offset="0.9081" stop-color="#6ABF4B"/>
</linearGradient>
<linearGradient id="paint2_linear_97_525" x1="-0.264675" y1="12.3424" x2="20.3112" y2="12.3424" gradientUnits="userSpaceOnUse">
<stop offset="0.0919165" stop-color="#6ABF4B"/>
<stop offset="0.2871" stop-color="#64B749"/>
<stop offset="0.5984" stop-color="#52A044"/>
<stop offset="0.8624" stop-color="#3F873F"/>
</linearGradient>
</defs>
</svg>
