<svg width="18" height="22" viewBox="0 0 18 22" fill="none" xmlns="http://www.w3.org/2000/svg">
<path fill-rule="evenodd" clip-rule="evenodd" d="M0 0H7.67694C7.80054 0 7.9237 0.000762335 8.04728 0.00320908C8.47472 0.0116721 9.53974 0.0389129 10.1319 0.108334C10.6376 0.167605 11.2016 0.250552 11.5714 0.355572C11.6065 0.365526 11.6415 0.375677 11.6763 0.386026C14.0878 1.10159 16.0644 2.75864 17.1339 4.9065C17.6893 6.02181 18 7.26946 18 8.58637C18 10.2051 17.5305 11.7192 16.7143 13.0115C16.6338 13.1389 16.55 13.2641 16.4629 13.3871C15.3108 15.0141 13.5894 16.2442 11.5714 16.8172C10.7567 17.0485 9.89354 17.1727 9 17.1727H6.42857C5.71849 17.1727 5.14286 17.7219 5.14286 18.3994V22C2.30254 22 0 19.7486 0 16.9714V0ZM11.5714 11.3292C11.6248 11.2837 11.6768 11.2367 11.7274 11.1884C12.4254 10.5225 12.8571 9.60253 12.8571 8.58637C12.8571 7.49651 12.3605 6.51732 11.5714 5.84351C10.889 5.26081 9.98789 4.9065 9 4.9065H5.14286V8.58637C5.14286 10.6187 6.86976 12.2662 9 12.2662C9.98789 12.2662 10.889 11.9119 11.5714 11.3292Z" fill="url(#paint0_linear_290_22815)"/>
<defs>
<linearGradient id="paint0_linear_290_22815" x1="9" y1="6.67501e-08" x2="9" y2="22" gradientUnits="userSpaceOnUse">
<stop stop-color="#1E3EAE"/>
<stop offset="1" stop-color="#A45BED"/>
</linearGradient>
</defs>
</svg>
