<svg width="22" height="22" viewBox="0 0 22 22" fill="none" xmlns="http://www.w3.org/2000/svg">
<path d="M11 15.4103C16.5228 15.4103 21 13.3955 21 10.9103C21 8.42499 16.5228 6.41027 11 6.41027C5.47715 6.41027 1 8.42499 1 10.9103C1 13.3955 5.47715 15.4103 11 15.4103Z" stroke="#149ECA"/>
<path d="M7.10299 13.1603C9.86441 17.9432 13.8478 20.8132 16.0001 19.5705C18.1524 18.3279 17.6586 13.4432 14.8972 8.66027C12.1358 3.87734 8.15242 1.00737 6.0001 2.25001C3.84779 3.49265 4.34156 8.37734 7.10299 13.1603Z" stroke="#149ECA"/>
<path d="M7.10299 8.66027C4.34156 13.4432 3.84779 18.3279 6.0001 19.5705C8.15242 20.8132 12.1358 17.9432 14.8972 13.1603C17.6586 8.37734 18.1524 3.49265 16.0001 2.25001C13.8478 1.00737 9.86441 3.87734 7.10299 8.66027Z" stroke="#149ECA"/>
<path d="M11 12.9103C12.1046 12.9103 13 12.0149 13 10.9103C13 9.80572 12.1046 8.91029 11 8.91029C9.89543 8.91029 9 9.80572 9 10.9103C9 12.0149 9.89543 12.9103 11 12.9103Z" fill="#149ECA"/>
</svg>
