<svg width="24" height="22" viewBox="0 0 24 22" fill="none" xmlns="http://www.w3.org/2000/svg">
<path d="M12 15.8931C18.1154 15.8931 23.073 13.6622 23.073 10.9103C23.073 8.1583 18.1154 5.92741 12 5.92741C5.88455 5.92741 0.927002 8.1583 0.927002 10.9103C0.927002 13.6622 5.88455 15.8931 12 15.8931Z" stroke="#149ECA"/>
<path d="M7.68483 13.4017C10.7426 18.6978 15.1533 21.8757 17.5366 20.4997C19.9199 19.1238 19.3731 13.715 16.3154 8.41884C13.2577 3.12271 8.84687 -0.0552043 6.46361 1.32077C4.08035 2.69674 4.62711 8.10555 7.68483 13.4017Z" stroke="#149ECA"/>
<path d="M7.68483 8.41884C4.62711 13.715 4.08035 19.1238 6.46361 20.4997C8.84687 21.8757 13.2577 18.6978 16.3154 13.4017C19.3731 8.10555 19.9199 2.69674 17.5366 1.32077C15.1533 -0.055204 10.7426 3.12271 7.68483 8.41884Z" stroke="#149ECA"/>
<path d="M12 13.1249C13.2231 13.1249 14.2146 12.1334 14.2146 10.9103C14.2146 9.68722 13.2231 8.69571 12 8.69571C10.7769 8.69571 9.7854 9.68722 9.7854 10.9103C9.7854 12.1334 10.7769 13.1249 12 13.1249Z" fill="#149ECA"/>
</svg>
