<svg width="20" height="20" viewBox="0 0 20 20" fill="none" xmlns="http://www.w3.org/2000/svg">
<path d="M13.9122 13.8534C14.6438 13.7778 15.1988 13.1471 15.1735 12.3903C15.1483 11.6335 14.5177 11.0281 13.7609 11.0281H13.7104C12.9284 11.0534 12.323 11.7092 12.3482 12.4912C12.3734 12.8696 12.5248 13.1976 12.7518 13.4246C11.8942 15.1147 10.5824 16.3508 8.61477 17.3851C7.27779 18.0914 5.89036 18.3437 4.50293 18.1671C3.36775 18.0157 2.48484 17.5112 1.92987 16.6788C1.12264 15.4427 1.04696 14.1057 1.72806 12.7687C2.20736 11.8101 2.96414 11.1038 3.44343 10.7506C3.34253 10.4227 3.19117 9.86773 3.11549 9.46411C-0.542279 12.1128 -0.163888 15.6949 0.946057 17.3851C1.77852 18.6464 3.46866 19.4284 5.33539 19.4284C5.83991 19.4284 6.34443 19.3779 6.84895 19.2518C10.0779 18.6212 12.5248 16.704 13.9122 13.8534Z" fill="#764ABC"/>
<path d="M18.3519 10.7254C16.4347 8.48028 13.6094 7.24421 10.3805 7.24421H9.97689C9.74985 6.79014 9.27056 6.48743 8.74081 6.48743H8.69036C7.90835 6.51265 7.30293 7.16853 7.32815 7.95054C7.35338 8.70732 7.98403 9.31274 8.74081 9.31274H8.79126C9.34623 9.28752 9.82553 8.93435 10.0273 8.45506H10.4814C12.3986 8.45506 14.2149 9.01003 15.8545 10.0947C17.1159 10.9272 18.024 12.0119 18.5285 13.3237C18.9574 14.3832 18.9321 15.4174 18.4781 16.3003C17.7717 17.6373 16.5861 18.3689 15.0221 18.3689C14.013 18.3689 13.0545 18.0662 12.5499 17.8391C12.2725 18.0914 11.7679 18.495 11.4148 18.7473C12.4995 19.2518 13.6094 19.5293 14.6689 19.5293C17.0906 19.5293 18.8817 18.1923 19.5628 16.8553C20.2943 15.3922 20.2439 12.8696 18.3519 10.7254Z" fill="#764ABC"/>
<path d="M5.53724 14.2823C5.56247 15.0391 6.19312 15.6445 6.9499 15.6445H7.00035C7.78235 15.6193 8.38778 14.9634 8.36255 14.1814C8.33733 13.4246 7.70668 12.8192 6.9499 12.8192H6.89944C6.84899 12.8192 6.77331 12.8192 6.72286 12.8444C5.68859 11.129 5.25975 9.26232 5.41111 7.24423C5.51201 5.73067 6.01653 4.41892 6.89944 3.3342C7.631 2.40084 9.04366 1.94677 10.0022 1.92154C12.6762 1.87109 13.8114 5.20093 13.8871 6.53791C14.215 6.61358 14.77 6.79017 15.1484 6.9163C14.8456 2.82968 12.323 0.710693 9.90134 0.710693C7.631 0.710693 5.53724 2.35038 4.70478 4.77208C3.54438 8.00101 4.30116 11.1038 5.71382 13.5507C5.58769 13.7273 5.51201 14.0048 5.53724 14.2823Z" fill="#764ABC"/>
</svg>
