<svg width="24" height="23" viewBox="0 0 24 23" fill="none" xmlns="http://www.w3.org/2000/svg">
<path d="M16.6075 15.5322C17.472 15.4428 18.1279 14.6975 18.0981 13.8031C18.0683 12.9087 17.323 12.1932 16.4286 12.1932H16.369C15.4448 12.2231 14.7293 12.9982 14.7591 13.9224C14.7889 14.3695 14.9678 14.7571 15.2361 15.0254C14.2225 17.0228 12.6722 18.4836 10.3469 19.706C8.76682 20.5407 7.12714 20.8388 5.48746 20.6301C4.1459 20.4513 3.10247 19.855 2.4466 18.8712C1.49261 17.4104 1.40317 15.8303 2.2081 14.2503C2.77454 13.1174 3.66891 12.2827 4.23534 11.8653C4.11609 11.4777 3.93722 10.8219 3.84778 10.3449C-0.475008 13.4752 -0.0278229 17.7085 1.28392 19.706C2.26773 21.1966 4.26515 22.1208 6.47127 22.1208C7.06751 22.1208 7.66376 22.0611 8.26001 21.9121C12.076 21.1668 14.9678 18.901 16.6075 15.5322Z" fill="#764ABC"/>
<path d="M21.8543 11.8355C19.5886 9.18219 16.2496 7.72138 12.4336 7.72138H11.9566C11.6883 7.18476 11.1219 6.82701 10.4958 6.82701H10.4362C9.51202 6.85682 8.79653 7.63194 8.82634 8.55613C8.85615 9.4505 9.60146 10.166 10.4958 10.166H10.5555C11.2113 10.1362 11.7778 9.71881 12.0163 9.15237H12.5529C14.8186 9.15237 16.9651 9.80824 18.9029 11.0902C20.3935 12.074 21.4668 13.3559 22.063 14.9062C22.5698 16.1583 22.54 17.3806 22.0034 18.424C21.1686 20.0041 19.7675 20.8686 17.9191 20.8686C16.7266 20.8686 15.5937 20.5109 14.9975 20.2426C14.6696 20.5407 14.0733 21.0177 13.6559 21.3158C14.9379 21.9121 16.2496 22.24 17.5017 22.24C20.3637 22.24 22.4804 20.6599 23.2853 19.0799C24.1499 17.3508 24.0903 14.3695 21.8543 11.8355Z" fill="#764ABC"/>
<path d="M6.70988 16.039C6.73969 16.9334 7.485 17.6489 8.37937 17.6489H8.43899C9.36318 17.6191 10.0787 16.844 10.0489 15.9198C10.019 15.0254 9.27374 14.3099 8.37937 14.3099H8.31974C8.26012 14.3099 8.17068 14.3099 8.11106 14.3397C6.88875 12.3125 6.38194 10.1064 6.56082 7.7214C6.68007 5.93266 7.27631 4.38241 8.31974 3.10048C9.1843 1.99743 10.8538 1.4608 11.9867 1.43099C15.1468 1.37137 16.4883 5.3066 16.5778 6.88665C16.9653 6.97609 17.6212 7.18477 18.0684 7.33384C17.7106 2.50424 14.7294 0 11.8674 0C9.1843 0 6.70988 1.9378 5.72607 4.79979C4.3547 8.61576 5.24907 12.2827 6.91856 15.1745C6.7695 15.3832 6.68007 15.7111 6.70988 16.039Z" fill="#764ABC"/>
</svg>
