<svg width="17" height="19" viewBox="0 0 17 19" fill="none" xmlns="http://www.w3.org/2000/svg">
<path fill-rule="evenodd" clip-rule="evenodd" d="M0 0H8.5C13.1944 0 17 3.79871 17 8.48465C17 12.7414 13.8595 16.2661 9.76515 16.876C9.16706 16.965 8.57331 17.1088 8.03887 17.3912L5.08517 18.9521C4.77059 19.1184 4.40515 18.8255 4.46468 18.4752C4.52289 18.1327 4.54696 17.8113 4.53466 17.4754C4.49554 16.4071 3.69841 15.5676 2.89376 14.8623C1.11977 13.3073 0 11.0265 0 8.48465V0ZM6.88095 8.08062C6.88095 8.75004 6.3373 9.29271 5.66667 9.29271C4.99603 9.29271 4.45238 8.75004 4.45238 8.08062C4.45238 7.4112 4.99603 6.86853 5.66667 6.86853C6.3373 6.86853 6.88095 7.4112 6.88095 8.08062ZM12.5476 8.08062C12.5476 8.75004 12.004 9.29271 11.3333 9.29271C10.6627 9.29271 10.119 8.75004 10.119 8.08062C10.119 7.4112 10.6627 6.86853 11.3333 6.86853C12.004 6.86853 12.5476 7.4112 12.5476 8.08062Z" fill="#22E2C2"/>
</svg>
