<svg width="21" height="23" viewBox="0 0 21 23" fill="none" xmlns="http://www.w3.org/2000/svg">
<path fill-rule="evenodd" clip-rule="evenodd" d="M0 0H10.5C16.299 0 21 4.59844 21 10.2709C21 15.4239 17.1206 19.6905 12.0628 20.4288C11.324 20.5366 10.5906 20.7107 9.93037 21.0525L6.28169 22.9421C5.89309 23.1433 5.44166 22.7888 5.5152 22.3647C5.5871 21.9501 5.61684 21.561 5.60164 21.1544C5.55331 19.8613 4.56863 18.8451 3.57464 17.9912C1.38324 16.1088 0 13.3479 0 10.2709V0ZM8.5 9.7818C8.5 10.5922 7.82843 11.2491 7 11.2491C6.17157 11.2491 5.5 10.5922 5.5 9.7818C5.5 8.97145 6.17157 8.31453 7 8.31453C7.82843 8.31453 8.5 8.97145 8.5 9.7818ZM15.5 9.7818C15.5 10.5922 14.8284 11.2491 14 11.2491C13.1716 11.2491 12.5 10.5922 12.5 9.7818C12.5 8.97145 13.1716 8.31453 14 8.31453C14.8284 8.31453 15.5 8.97145 15.5 9.7818Z" fill="#22E2C2"/>
</svg>
