<svg width="24" height="19" viewBox="0 0 24 19" fill="none" xmlns="http://www.w3.org/2000/svg">
<path d="M20.6604 10.9103C19.8212 10.9153 19.0946 11.1282 18.4852 11.4451C18.2601 10.9747 18.0351 10.5638 17.9976 10.2568C17.9554 9.9003 17.9039 9.68245 17.9554 9.25665C18.007 8.83085 18.2414 8.22681 18.2414 8.1773C18.2367 8.13274 18.1898 7.91489 17.707 7.90993C17.2241 7.90498 16.8069 8.00896 16.76 8.14264C16.7131 8.27632 16.6194 8.58329 16.5584 8.90017C16.474 9.36557 15.5927 11.0143 15.0911 11.8808C14.927 11.5441 14.7864 11.247 14.7583 11.0094C14.7161 10.6529 14.6645 10.435 14.7161 10.0092C14.7676 9.58342 15.002 8.97938 15.002 8.92987C14.9974 8.88531 14.9505 8.66746 14.4676 8.66251C13.9848 8.65756 13.5675 8.76153 13.5207 8.89521C13.4738 9.0289 13.4222 9.34577 13.3191 9.65274C13.2206 9.95971 12.0487 12.7126 11.7439 13.4305C11.5892 13.7969 11.4533 14.089 11.3549 14.287C11.2564 14.4851 11.3502 14.3019 11.3408 14.3217C11.2564 14.49 11.2095 14.5841 11.2095 14.5841V14.589C11.1439 14.7128 11.0736 14.8316 11.0408 14.8316C11.0173 14.8316 10.9704 14.4999 11.0501 14.0444C11.2236 13.0888 11.6455 11.5985 11.6408 11.5441C11.6408 11.5193 11.7205 11.2569 11.3689 11.1232C11.0267 10.9896 10.9048 11.2124 10.8767 11.2124C10.8486 11.2124 10.8251 11.2916 10.8251 11.2916C10.8251 11.2916 11.2048 9.61313 10.0985 9.61313C9.40468 9.61313 8.44835 10.4103 7.97487 11.1381C7.67484 11.3114 7.03729 11.6778 6.36223 12.0689C6.10439 12.2174 5.83718 12.3759 5.58403 12.5195L5.53247 12.46C4.19173 10.9499 1.71182 9.88049 1.81496 7.85052C1.85246 7.1128 2.09623 5.16699 6.57787 2.81025C10.2485 0.879295 13.1878 1.40907 13.6988 2.58744C14.4254 4.27084 12.1284 7.39997 8.3124 7.85052C6.85915 8.02381 6.09502 7.42967 5.90281 7.20687C5.70123 6.97417 5.6731 6.96426 5.5981 7.00882C5.47621 7.07814 5.55122 7.28609 5.5981 7.40987C5.71061 7.72179 6.1794 8.27632 6.97634 8.55358C7.67484 8.79619 9.38124 8.92987 11.4439 8.08818C13.7551 7.14251 15.5599 4.51839 15.0302 2.32503C14.4911 0.0920615 10.9845 -0.64071 7.67015 0.60203C5.69654 1.3447 3.55886 2.50327 2.02122 4.02328C0.192939 5.8255 -0.0977117 7.39997 0.0241739 8.05352C0.450774 10.3855 3.49323 11.9055 4.71208 13.0294C4.65114 13.0641 4.59489 13.0987 4.54332 13.1285C3.93389 13.4453 1.61338 14.7277 1.03207 16.0843C0.375767 17.6192 1.13521 18.7233 1.6415 18.8718C3.20726 19.3322 4.81053 18.5054 5.67779 17.1438C6.54037 15.7823 6.43723 14.0147 6.03876 13.2077L6.0247 13.178L6.50286 12.8809C6.81227 12.6878 7.11698 12.5096 7.38419 12.3561C7.23418 12.7868 7.12636 13.2968 7.0701 14.0395C7.00447 14.9109 7.342 16.0397 7.78735 16.4853C7.98424 16.6784 8.21864 16.6834 8.36396 16.6834C8.87963 16.6834 9.11403 16.2328 9.37187 15.6932C9.69064 15.0346 9.97192 14.2722 9.97192 14.2722C9.97192 14.2722 9.62032 16.3368 10.5813 16.3368C10.9329 16.3368 11.2845 15.8565 11.4439 15.609V15.6139C11.4439 15.6139 11.4533 15.5991 11.472 15.5644C11.5096 15.505 11.5283 15.4703 11.5283 15.4703V15.4604C11.6689 15.203 11.983 14.6138 12.4518 13.6384C13.0566 12.3808 13.6379 10.8064 13.6379 10.8064C13.6379 10.8064 13.6941 11.1926 13.8676 11.8263C13.9707 12.2026 14.1957 12.6135 14.3692 13.0146C14.2285 13.2225 14.1442 13.3414 14.1442 13.3414L14.1488 13.3463C14.0363 13.5047 13.9098 13.6731 13.7785 13.8414C13.3003 14.4455 12.7284 15.1337 12.6534 15.3317C12.5643 15.5644 12.5831 15.7377 12.7565 15.8763C12.8831 15.9754 13.1081 15.9952 13.3472 15.9754C13.7785 15.9457 14.0785 15.8318 14.2285 15.7625C14.4629 15.6733 14.7301 15.5397 14.988 15.3416C15.4568 14.9752 15.7427 14.4554 15.7146 13.7622C15.7005 13.381 15.5833 13.0047 15.438 12.6482C15.4802 12.5838 15.5224 12.5195 15.5646 12.4501C16.3053 11.3064 16.8772 10.0488 16.8772 10.0488C16.8772 10.0488 16.9335 10.435 17.1069 11.0688C17.196 11.3906 17.3741 11.7421 17.5335 12.0887C16.8397 12.6878 16.4037 13.381 16.2537 13.8365C15.9771 14.6782 16.1928 15.0594 16.6006 15.1485C16.7834 15.1881 17.046 15.099 17.2429 15.0099C17.4866 14.9257 17.782 14.7821 18.0539 14.5692C18.5227 14.2029 18.9727 13.6929 18.9493 13.0047C18.9352 12.6878 18.8555 12.3759 18.7477 12.0788C19.3384 11.8213 20.1025 11.6728 21.0729 11.7966C23.159 12.0541 23.5715 13.4305 23.4918 14.0048C23.4122 14.5791 22.9762 14.896 22.8309 14.995C22.6855 15.0891 22.6386 15.1238 22.6527 15.1931C22.6715 15.2971 22.7371 15.2921 22.8637 15.2723C23.0371 15.2426 23.9606 14.8019 23.9981 13.7424C24.0544 12.3808 22.8309 10.8955 20.6604 10.9103ZM4.57145 16.6388C3.88232 17.436 2.91193 17.738 2.49939 17.4805C2.05404 17.2082 2.22749 16.0348 3.076 15.1881C3.59167 14.6732 4.26204 14.1979 4.70271 13.9058C4.80115 13.8414 4.95117 13.7473 5.12931 13.6335C5.15743 13.6137 5.17619 13.6038 5.17619 13.6038C5.209 13.584 5.2465 13.5592 5.28401 13.5344C5.5981 14.7425 5.29807 15.8021 4.57145 16.6388ZM9.61095 13.0195C9.37186 13.6384 8.86557 15.2277 8.56086 15.1386C8.29833 15.0644 8.13894 13.8612 8.50929 12.6729C8.69681 12.0739 9.09528 11.3609 9.32967 11.0836C9.70939 10.638 10.1219 10.4895 10.2251 10.6727C10.347 10.9103 9.76096 12.6333 9.61095 13.0195ZM13.7691 15.1188C13.666 15.1733 13.5722 15.2129 13.53 15.1832C13.4972 15.1634 13.5722 15.0891 13.5722 15.0891C13.5722 15.0891 14.0926 14.4999 14.2989 14.2276C14.4161 14.0692 14.5567 13.886 14.7067 13.678V13.7374C14.7067 14.4504 14.0598 14.9257 13.7691 15.1188ZM16.9757 14.3464C16.9006 14.287 16.91 14.1038 17.1632 13.5295C17.2616 13.3017 17.4866 12.9205 17.8757 12.5591C17.9226 12.7076 17.9507 12.8512 17.9461 12.9849C17.9414 13.8761 17.3413 14.2078 16.9757 14.3464Z" fill="#CF649A"/>
</svg>
