<svg width="22" height="17" viewBox="0 0 22 17" fill="none" xmlns="http://www.w3.org/2000/svg">
<path d="M18.9387 9.76188C18.1694 9.76631 17.5034 9.9568 16.9447 10.2403C16.7385 9.81947 16.5322 9.45178 16.4978 9.17712C16.4591 8.85816 16.4119 8.66324 16.4591 8.28226C16.5064 7.90129 16.7213 7.36083 16.7213 7.31653C16.717 7.27666 16.674 7.08174 16.2314 7.07731C15.7888 7.07288 15.4063 7.16591 15.3633 7.28552C15.3204 7.40513 15.2344 7.67979 15.1786 7.96331C15.1012 8.37972 14.2933 9.85491 13.8335 10.6302C13.6831 10.3289 13.5542 10.0631 13.5284 9.85048C13.4897 9.53152 13.4425 9.3366 13.4897 8.95562C13.537 8.57464 13.7519 8.03419 13.7519 7.98989C13.7476 7.95002 13.7046 7.7551 13.262 7.75067C12.8194 7.74624 12.4369 7.83927 12.3939 7.95888C12.351 8.07848 12.3037 8.362 12.2092 8.63666C12.1189 8.91132 11.0446 11.3744 10.7653 12.0167C10.6235 12.3446 10.4989 12.6059 10.4086 12.7831C10.3184 12.9603 10.4043 12.7964 10.3957 12.8141C10.3184 12.9648 10.2754 13.0489 10.2754 13.0489V13.0534C10.2152 13.1641 10.1508 13.2704 10.1207 13.2704C10.0992 13.2704 10.0562 12.9736 10.1293 12.5661C10.2883 11.7111 10.675 10.3776 10.6707 10.3289C10.6707 10.3068 10.7438 10.072 10.4215 9.95237C10.1078 9.83276 9.99608 10.0321 9.97029 10.0321C9.94451 10.0321 9.92302 10.103 9.92302 10.103C9.92302 10.103 10.2711 8.60122 9.25695 8.60122C8.62096 8.60122 7.74432 9.31445 7.3103 9.96566C7.03527 10.1207 6.45085 10.4485 5.83204 10.7985C5.59569 10.9314 5.35075 11.0732 5.1187 11.2016L5.07143 11.1485C3.84241 9.79732 1.56917 8.84044 1.66371 7.02415C1.69809 6.36408 1.92154 4.6231 6.02971 2.51443C9.39446 0.786738 12.0888 1.26075 12.5572 2.31508C13.2233 3.82127 11.1177 6.62102 7.6197 7.02415C6.28755 7.1792 5.5871 6.6476 5.41091 6.44825C5.22613 6.24004 5.20035 6.23118 5.13159 6.27105C5.01986 6.33307 5.08862 6.51913 5.13159 6.62988C5.23472 6.90897 5.66445 7.40513 6.39498 7.65321C7.03527 7.87028 8.59947 7.98989 10.4903 7.23679C12.6088 6.39066 14.2632 4.04277 13.7777 2.08029C13.2835 0.0823708 10.0691 -0.573266 7.03097 0.538659C5.22183 1.20316 3.26229 2.23977 1.85279 3.59978C0.17686 5.21229 -0.0895691 6.62102 0.0221594 7.20578C0.413209 9.2923 3.20212 10.6523 4.31941 11.6579C4.26355 11.6889 4.21198 11.7199 4.16471 11.7465C3.60607 12.03 1.47893 13.1774 0.946068 14.3912C0.344453 15.7645 1.04061 16.7524 1.50471 16.8853C2.93999 17.2973 4.40965 16.5575 5.20464 15.3392C5.99534 14.121 5.9008 12.5395 5.53553 11.8174L5.52264 11.7908L5.96096 11.525C6.24458 11.3522 6.5239 11.1928 6.76884 11.0554C6.63133 11.4408 6.53249 11.8971 6.48093 12.5616C6.42076 13.3413 6.73017 14.3513 7.13841 14.75C7.31889 14.9228 7.53375 14.9272 7.66697 14.9272C8.13966 14.9272 8.35453 14.5241 8.59088 14.0412C8.88309 13.4521 9.14092 12.7698 9.14092 12.7698C9.14092 12.7698 8.81863 14.6171 9.69957 14.6171C10.0219 14.6171 10.3442 14.1874 10.4903 13.9659V13.9704C10.4903 13.9704 10.4989 13.9571 10.516 13.9261C10.5504 13.8729 10.5676 13.8419 10.5676 13.8419V13.833C10.6965 13.6027 10.9844 13.0755 11.4142 12.2028C11.9685 11.0776 12.5014 9.66885 12.5014 9.66885C12.5014 9.66885 12.5529 10.0144 12.7119 10.5814C12.8065 10.9181 13.0127 11.2858 13.1717 11.6446C13.0428 11.8307 12.9655 11.937 12.9655 11.937L12.9698 11.9414C12.8666 12.0832 12.7506 12.2338 12.6303 12.3844C12.192 12.9249 11.6677 13.5407 11.599 13.7179C11.5173 13.9261 11.5345 14.0811 11.6935 14.2051C11.8095 14.2937 12.0158 14.3115 12.2349 14.2937C12.6303 14.2672 12.9053 14.1653 13.0428 14.1033C13.2577 14.0235 13.5026 13.9039 13.739 13.7267C14.1687 13.3989 14.4308 12.9337 14.4051 12.3135C14.3922 11.9724 14.2847 11.6358 14.1515 11.3168C14.1902 11.2592 14.2289 11.2016 14.2675 11.1396C14.9465 10.1163 15.4708 8.99106 15.4708 8.99106C15.4708 8.99106 15.5223 9.3366 15.6813 9.90364C15.763 10.1916 15.9263 10.5061 16.0724 10.8162C15.4364 11.3522 15.0368 11.9724 14.8992 12.38C14.6457 13.1331 14.8434 13.4742 15.2172 13.5539C15.3848 13.5894 15.6255 13.5096 15.806 13.4299C16.0294 13.3546 16.3001 13.2261 16.5494 13.0356C16.9791 12.7078 17.3916 12.2515 17.3702 11.6358C17.3573 11.3522 17.2842 11.0732 17.1854 10.8074C17.7268 10.577 18.4273 10.4441 19.3168 10.5548C21.2291 10.7852 21.6072 12.0167 21.5342 12.5306C21.4611 13.0445 21.0615 13.328 20.9283 13.4166C20.7951 13.5008 20.7521 13.5318 20.765 13.5938C20.7822 13.6868 20.8423 13.6824 20.9584 13.6647C21.1174 13.6381 21.9639 13.2438 21.9983 12.2958C22.0499 11.0776 20.9283 9.74859 18.9387 9.76188ZM4.19049 14.8874C3.5588 15.6006 2.66927 15.8708 2.29111 15.6405C1.88287 15.3968 2.04187 14.3469 2.81967 13.5894C3.29237 13.1287 3.90687 12.7034 4.31081 12.442C4.40106 12.3844 4.53857 12.3003 4.70186 12.1984C4.72765 12.1806 4.74484 12.1718 4.74484 12.1718C4.77492 12.1541 4.8093 12.1319 4.84367 12.1098C5.13159 13.1907 4.85657 14.1387 4.19049 14.8874ZM8.81004 11.6491C8.59088 12.2028 8.12677 13.6248 7.84745 13.5451C7.60681 13.4786 7.4607 12.4021 7.80018 11.339C7.97207 10.8029 8.33734 10.165 8.5522 9.91693C8.90028 9.51823 9.27844 9.38533 9.37298 9.54924C9.4847 9.76188 8.94755 11.3035 8.81004 11.6491ZM12.6217 13.5274C12.5272 13.5761 12.4412 13.6115 12.4025 13.585C12.3725 13.5672 12.4412 13.5008 12.4412 13.5008C12.4412 13.5008 12.9182 12.9736 13.1073 12.73C13.2147 12.5882 13.3436 12.4243 13.4811 12.2382V12.2914C13.4811 12.9293 12.8881 13.3546 12.6217 13.5274ZM15.561 12.8363C15.4923 12.7831 15.5009 12.6192 15.7329 12.1053C15.8231 11.9016 16.0294 11.5604 16.3861 11.2371C16.4291 11.37 16.4548 11.4984 16.4505 11.618C16.4462 12.4154 15.8962 12.7122 15.561 12.8363Z" fill="#CF649A"/>
</svg>
