<svg width="24" height="14" viewBox="0 0 24 14" fill="none" xmlns="http://www.w3.org/2000/svg">
<path d="M4.48679 13H23V4.6129L19.534 1H1L1.02075 9.4086L4.48679 13Z" fill="white" stroke="#071577" stroke-width="0.415094"/>
<path d="M23 4.6129H4.48682V13" stroke="#071577" stroke-width="0.415094"/>
<path d="M4.48679 4.6129L1 1" stroke="#071577" stroke-width="0.415094"/>
<path d="M9.28109 9.62367C9.28109 10.2688 8.88675 10.785 7.91128 10.785C7.47543 10.785 7.14335 10.6774 6.83203 10.5484V9.66668C7.14335 9.83872 7.53769 9.94625 7.89052 9.94625C8.20184 9.94625 8.36788 9.86023 8.36788 9.66668C8.36788 9.08603 6.83203 9.27958 6.83203 8.07528C6.83203 7.3441 7.41316 6.89249 8.18109 6.89249C8.51316 6.89249 8.82448 6.97851 9.1358 7.17206V8.09679C8.72071 7.81722 8.40939 7.7312 8.16033 7.7312C7.86977 7.7312 7.72448 7.83872 7.72448 8.01077C7.70373 8.56991 9.28109 8.35485 9.28109 9.62367Z" fill="#001A72"/>
<path d="M15.4246 6.9785L14.2623 10.7204H13.3699L12.5812 8.1613L11.7718 10.7204H10.8793L9.71704 6.9785H10.7133L11.3567 9.47312L12.1246 6.9785H13.017L13.785 9.47312L14.4284 6.9785H15.4246Z" fill="#001A72"/>
<path d="M21.0075 8.24733V10.7204H20.115V8.41937C20.115 8.03227 19.8452 7.77421 19.5339 7.77421C19.2226 7.77421 18.9528 8.01077 18.9528 8.41937V10.7204H18.0603V8.41937C18.0603 8.03227 17.7905 7.77421 17.4792 7.77421C17.1679 7.77421 16.8981 8.01077 16.8981 8.41937V10.7204H16.0056V6.97851H16.8566V7.25808C17.1264 6.97851 17.3962 6.89249 17.7283 6.89249C18.1018 6.89249 18.4339 7.06453 18.6622 7.3656C18.9528 7.04302 19.3264 6.89249 19.7622 6.89249C20.4886 6.91399 21.0075 7.45163 21.0075 8.24733Z" fill="#001A72"/>
</svg>
