<svg width="24" height="15" viewBox="0 0 24 15" fill="none" xmlns="http://www.w3.org/2000/svg">
<path d="M3.77736 14H23.8333V4.91398L20.0785 1H0L0.0224843 10.1093L3.77736 14Z" fill="white" stroke="#071577" stroke-width="0.415094"/>
<path d="M23.8333 4.91397H3.77734V14" stroke="#071577" stroke-width="0.415094"/>
<path d="M3.77736 4.91398L0 1" stroke="#071577" stroke-width="0.415094"/>
<path d="M8.97126 10.3423C8.97126 11.0412 8.54406 11.6004 7.4873 11.6004C7.01513 11.6004 6.65538 11.4839 6.31812 11.3441V10.3889C6.65538 10.5753 7.08258 10.6918 7.46481 10.6918C7.80208 10.6918 7.98195 10.5986 7.98195 10.3889C7.98195 9.75987 6.31812 9.96955 6.31812 8.66489C6.31812 7.87278 6.94767 7.38353 7.77959 7.38353C8.13934 7.38353 8.47661 7.47672 8.81387 7.6864V8.68819C8.36418 8.38532 8.02692 8.29213 7.75711 8.29213C7.44233 8.29213 7.28494 8.40862 7.28494 8.595C7.26245 9.20073 8.97126 8.96776 8.97126 10.3423Z" fill="#001A72"/>
<path d="M15.6265 7.47672L14.3674 11.5305H13.4006L12.5462 8.75808L11.6693 11.5305H10.7025L9.44336 7.47672H10.5226L11.2196 10.1792L12.0515 7.47672H13.0184L13.8503 10.1792L14.5473 7.47672H15.6265Z" fill="#001A72"/>
<path d="M21.6748 8.85127V11.5305H20.708V9.03765C20.708 8.6183 20.4157 8.33873 20.0784 8.33873C19.7412 8.33873 19.4489 8.595 19.4489 9.03765V11.5305H18.482V9.03765C18.482 8.6183 18.1898 8.33873 17.8525 8.33873C17.5152 8.33873 17.2229 8.595 17.2229 9.03765V11.5305H16.2561V7.47672H17.178V7.77959C17.4703 7.47672 17.7625 7.38353 18.1223 7.38353C18.527 7.38353 18.8868 7.56991 19.1341 7.89607C19.4489 7.54661 19.8536 7.38353 20.3258 7.38353C21.1127 7.40683 21.6748 7.98926 21.6748 8.85127Z" fill="#001A72"/>
</svg>
