<svg width="22" height="22" viewBox="0 0 22 22" fill="none" xmlns="http://www.w3.org/2000/svg">
<path fill-rule="evenodd" clip-rule="evenodd" d="M0.824999 0H21.175C21.6306 0 22 0.369365 22 0.825V21.175C22 21.6307 21.6306 22 21.175 22H0.824999C0.369365 22 0 21.6307 0 21.175V0.825C0 0.369365 0.369365 0 0.824999 0ZM12.2297 11.7043V9.9H4.39999V11.7043H7.19531V19.7382H9.42062V11.7043H12.2297ZM13.1168 19.5261C13.4757 19.709 13.9001 19.8463 14.39 19.9378C14.8801 20.0292 15.3964 20.075 15.9393 20.075C16.4684 20.075 16.971 20.0247 17.4472 19.924C17.9234 19.8234 18.3408 19.6576 18.6997 19.4266C19.0585 19.1956 19.3426 18.8938 19.552 18.521C19.7613 18.1481 19.866 17.6873 19.866 17.1384C19.866 16.7405 19.8061 16.3918 19.6865 16.0922C19.567 15.7925 19.3944 15.5261 19.169 15.2928C18.9436 15.0595 18.6732 14.8503 18.3581 14.665C18.0429 14.4798 17.6876 14.3048 17.2919 14.1402C17.002 14.0212 16.7421 13.9057 16.5121 13.7937C16.282 13.6816 16.0865 13.5672 15.9255 13.4506C15.7645 13.3339 15.6403 13.2105 15.5529 13.0801C15.4655 12.9498 15.4218 12.8022 15.4218 12.6376C15.4218 12.4866 15.4609 12.3505 15.5391 12.2294C15.6173 12.1081 15.7277 12.004 15.8703 11.9171C16.013 11.8302 16.1877 11.7628 16.3948 11.7147C16.6018 11.6668 16.8319 11.6427 17.0849 11.6427C17.2689 11.6427 17.4633 11.6564 17.668 11.6839C17.8727 11.7114 18.0786 11.7537 18.2856 11.8108C18.4927 11.868 18.694 11.94 18.8895 12.027C19.085 12.1139 19.2656 12.2145 19.4312 12.3288V10.2774C19.0953 10.1493 18.7285 10.0543 18.3305 9.99265C17.9326 9.93088 17.4759 9.9 16.9606 9.9C16.4362 9.9 15.9393 9.95602 15.4701 10.0681C15.0008 10.1802 14.5879 10.3551 14.2313 10.593C13.8748 10.8309 13.593 11.1339 13.386 11.502C13.1789 11.8703 13.0754 12.3105 13.0754 12.8228C13.0754 13.4769 13.2652 14.035 13.6448 14.4969C14.0243 14.9589 14.6005 15.35 15.3734 15.6702C15.6771 15.7937 15.96 15.9149 16.2223 16.0339C16.4845 16.1527 16.7111 16.2763 16.902 16.4043C17.0929 16.5324 17.2436 16.6719 17.354 16.8228C17.4645 16.9738 17.5197 17.1453 17.5197 17.3374C17.5197 17.4793 17.4851 17.6107 17.4161 17.7319C17.3471 17.8532 17.2424 17.9583 17.1021 18.0475C16.9618 18.1367 16.787 18.2065 16.5777 18.2568C16.3684 18.3071 16.1233 18.3323 15.8427 18.3323C15.3642 18.3323 14.8904 18.2488 14.4211 18.0819C13.9519 17.9149 13.5171 17.6645 13.1168 17.3306V19.5261Z" fill="#3178C6"/>
</svg>
