<svg width="20" height="20" viewBox="0 0 20 20" fill="none" xmlns="http://www.w3.org/2000/svg">
<path fill-rule="evenodd" clip-rule="evenodd" d="M0.749999 0H19.25C19.6642 0 20 0.335786 20 0.75V19.25C20 19.6642 19.6642 20 19.25 20H0.749999C0.335786 20 0 19.6642 0 19.25V0.75C0 0.335786 0.335786 0 0.749999 0ZM11.1179 10.6403V9H3.99999V10.6403H6.5412V17.9438H8.5642V10.6403H11.1179ZM11.9244 17.751C12.2506 17.9173 12.6365 18.0421 13.0819 18.1252C13.5273 18.2084 13.9968 18.25 14.4903 18.25C14.9713 18.25 15.4282 18.2042 15.8611 18.1128C16.294 18.0213 16.6735 17.8705 16.9997 17.6605C17.3259 17.4505 17.5842 17.1762 17.7745 16.8372C17.9648 16.4983 18.06 16.0794 18.06 15.5804C18.06 15.2186 18.0056 14.9016 17.8968 14.6292C17.7881 14.3568 17.6313 14.1146 17.4263 13.9025C17.2214 13.6905 16.9757 13.5002 16.6892 13.3318C16.4027 13.1635 16.0796 13.0044 15.72 12.8547C15.4564 12.7465 15.2201 12.6415 15.011 12.5397C14.8018 12.4378 14.6241 12.3338 14.4778 12.2278C14.3314 12.1218 14.2185 12.0095 14.139 11.891C14.0595 11.7725 14.0198 11.6384 14.0198 11.4887C14.0198 11.3515 14.0553 11.2278 14.1264 11.1176C14.1976 11.0074 14.2979 10.9128 14.4276 10.8338C14.5572 10.7548 14.7161 10.6935 14.9044 10.6498C15.0925 10.6062 15.3017 10.5843 15.5317 10.5843C15.699 10.5843 15.8757 10.5968 16.0618 10.6217C16.248 10.6467 16.4351 10.6852 16.6233 10.7371C16.8115 10.7891 16.9945 10.8545 17.1723 10.9336C17.35 11.0126 17.5142 11.1041 17.6648 11.208V9.34308C17.3594 9.22662 17.0259 9.14031 16.6641 9.08423C16.3023 9.02808 15.8872 9 15.4188 9C14.942 9 14.4903 9.05092 14.0637 9.15285C13.6371 9.25469 13.2617 9.41377 12.9376 9.63C12.6134 9.84623 12.3572 10.1217 12.1691 10.4564C11.9808 10.7912 11.8867 11.1914 11.8867 11.6571C11.8867 12.2518 12.0593 12.7591 12.4043 13.179C12.7494 13.599 13.2732 13.9545 13.9759 14.2456C14.2519 14.3579 14.5091 14.4681 14.7475 14.5762C14.9859 14.6843 15.1919 14.7966 15.3654 14.913C15.539 15.0295 15.676 15.1562 15.7764 15.2935C15.8768 15.4307 15.927 15.5866 15.927 15.7613C15.927 15.8902 15.8956 16.0098 15.8328 16.1199C15.7701 16.2302 15.6749 16.3258 15.5474 16.4068C15.4198 16.4879 15.2609 16.5514 15.0706 16.5971C14.8803 16.6428 14.6576 16.6657 14.4025 16.6657C13.9675 16.6657 13.5367 16.5898 13.1101 16.4381C12.6835 16.2863 12.2883 16.0586 11.9244 15.7551V17.751Z" fill="#3178C6"/>
</svg>
