<svg width="18" height="23" viewBox="0 0 18 23" fill="none" xmlns="http://www.w3.org/2000/svg">
<path fill-rule="evenodd" clip-rule="evenodd" d="M0 0.5C2.54023 1.41154 4.24013 1.14911 7.86235 1C8.62053 1 9.37915 1.02009 10.1319 1.10833C10.6376 1.1676 11.2016 1.25055 11.5714 1.35557C11.6065 1.36553 11.6415 1.37568 11.6763 1.38603C14.0878 2.10159 16.0644 3.75864 17.1339 5.9065C17.6893 7.02181 18 8.26946 18 9.58637C18 11.2051 17.5305 12.7192 16.7143 14.0115C16.6338 14.1389 16.55 14.2641 16.4629 14.3871C15.3108 16.0141 13.5894 17.2442 11.5714 17.8172C10.7567 18.0485 9.89354 18.1727 9 18.1727H6.42857C5.71849 18.1727 5.14286 18.7219 5.14286 19.3994V23C2.30254 23 0 20.7486 0 17.9714V0.5ZM11.5714 12.3292C11.6248 12.2837 11.6768 12.2367 11.7274 12.1884C12.4254 11.5225 12.8571 10.6025 12.8571 9.58637C12.8571 8.49651 12.3605 7.51732 11.5714 6.84351C10.889 6.26081 9.98789 5.9065 9 5.9065H5.14286V9.58637C5.14286 11.6187 6.86976 13.2662 9 13.2662C9.98789 13.2662 10.889 12.9119 11.5714 12.3292Z" fill="url(#paint0_linear_290_22815)"/>
<defs>
<linearGradient id="paint0_linear_290_22815" x1="9" y1="1" x2="9" y2="23" gradientUnits="userSpaceOnUse">
<stop stop-color="#1E3EAE"/>
<stop offset="1" stop-color="#A45BED"/>
</linearGradient>
</defs>
</svg>
